<svg id="svg" version="1.1" xmlns="http://www.w3.org/2000/svg" xmlns:xlink="http://www.w3.org/1999/xlink" width="400" height="153.68309485956544" viewBox="0, 0, 400,153.68309485956544"><g id="svgg"><path id="path0" d="M47.250 76.345 C 39.521 76.923,32.441 82.063,30.901 88.215 C 30.402 90.205,30.348 90.595,30.341 92.229 C 30.312 98.798,34.514 103.799,42.917 107.195 C 43.283 107.344,44.413 107.800,45.427 108.209 C 51.869 110.808,54.111 112.777,54.034 115.770 C 53.921 120.143,48.432 122.460,45.287 119.461 C 44.104 118.333,43.312 116.564,43.084 114.542 L 42.967 113.500 36.211 113.500 L 29.454 113.500 29.544 115.875 C 29.972 127.148,38.785 133.382,52.329 131.992 C 59.487 131.258,64.929 127.326,66.760 121.566 C 68.051 117.504,67.815 112.109,66.214 109.083 C 66.069 108.808,65.836 108.363,65.697 108.094 C 65.558 107.825,64.763 106.920,63.931 106.082 C 61.941 104.082,60.507 103.099,56.500 100.993 C 55.995 100.728,53.934 99.770,52.917 99.329 C 47.548 96.997,45.067 95.422,44.320 93.870 C 42.869 90.859,45.170 87.667,48.791 87.667 C 51.359 87.667,53.098 89.293,53.580 92.147 L 53.696 92.833 60.456 92.833 L 67.216 92.833 67.120 91.351 C 67.067 90.536,66.948 89.579,66.855 89.226 C 66.763 88.873,66.563 88.096,66.411 87.500 C 64.966 81.825,58.488 76.971,51.605 76.407 C 49.471 76.232,48.869 76.223,47.250 76.345 M208.583 76.341 C 202.422 76.790,196.549 80.206,193.686 85.007 C 193.309 85.639,193.000 86.236,193.000 86.334 C 193.000 86.432,192.895 86.678,192.766 86.881 C 191.772 88.447,191.440 93.245,192.152 95.750 C 192.505 96.990,193.285 98.976,193.495 99.167 C 193.545 99.212,193.782 99.550,194.020 99.917 C 195.855 102.736,201.611 106.531,206.157 107.919 C 206.875 108.138,211.527 110.307,211.810 110.554 C 211.960 110.686,212.317 110.911,212.602 111.055 C 215.856 112.702,216.403 117.162,213.640 119.522 C 210.021 122.614,204.938 119.925,204.543 114.708 L 204.452 113.500 197.617 113.500 L 190.783 113.500 190.880 115.625 C 191.355 126.081,198.436 132.167,210.127 132.167 C 221.721 132.167,228.398 126.694,228.936 116.750 C 229.367 108.799,225.803 104.411,215.070 99.672 C 207.111 96.158,205.333 94.748,205.333 91.946 C 205.333 88.020,210.898 86.054,213.611 89.022 C 214.097 89.553,214.828 91.250,214.948 92.124 L 215.045 92.833 221.773 92.833 L 228.500 92.833 228.500 91.598 C 228.500 83.872,221.624 77.122,213.034 76.416 C 210.794 76.232,210.220 76.222,208.583 76.341 M171.500 84.000 L 171.500 90.833 168.583 90.833 L 165.667 90.833 165.667 95.333 L 165.667 99.833 168.583 99.833 L 171.500 99.833 171.500 115.500 L 171.500 131.167 177.499 131.167 L 183.498 131.167 183.541 115.542 L 183.583 99.917 186.542 99.871 L 189.500 99.826 189.500 95.333 L 189.500 90.841 186.542 90.796 L 183.583 90.750 183.540 83.958 L 183.496 77.167 177.498 77.167 L 171.500 77.167 171.500 84.000 M94.867 89.534 C 91.168 89.766,87.919 91.253,85.223 93.950 C 83.632 95.540,83.667 95.562,83.667 93.000 L 83.667 90.833 78.083 90.833 L 72.500 90.833 72.500 117.750 L 72.500 144.667 78.417 144.667 L 84.333 144.667 84.333 136.260 C 84.333 131.196,84.396 127.815,84.490 127.756 C 84.576 127.703,85.002 128.005,85.436 128.427 C 92.245 135.045,105.088 133.570,111.591 125.425 C 120.618 114.118,115.838 94.289,103.168 90.484 C 100.126 89.571,98.060 89.335,94.867 89.534 M139.167 89.602 C 125.679 90.817,116.800 104.840,121.185 118.000 C 127.113 135.791,152.749 137.565,161.272 120.773 C 164.240 114.926,164.317 107.531,161.473 101.500 C 159.576 97.477,155.317 93.133,152.000 91.839 C 151.679 91.713,151.340 91.553,151.245 91.482 C 149.655 90.290,143.010 89.255,139.167 89.602 M293.750 89.607 C 292.901 89.736,290.607 90.531,290.141 90.857 C 289.898 91.027,289.643 91.167,289.574 91.167 C 289.102 91.167,286.000 94.358,286.000 94.844 C 286.000 94.930,285.887 95.000,285.750 95.000 C 285.541 95.000,285.500 94.657,285.500 92.917 L 285.500 90.833 279.917 90.833 L 274.333 90.833 274.333 111.000 L 274.333 131.167 280.333 131.167 L 286.333 131.167 286.333 119.175 C 286.333 111.179,286.394 106.889,286.515 106.300 C 286.763 105.091,287.328 103.546,287.605 103.316 C 287.730 103.211,287.833 103.035,287.833 102.924 C 287.833 101.891,290.664 100.756,293.250 100.753 C 296.771 100.748,298.678 102.081,299.326 105.000 C 299.437 105.504,299.597 106.188,299.681 106.519 C 299.766 106.855,299.833 112.442,299.833 119.144 L 299.833 131.167 305.843 131.167 L 311.852 131.167 311.781 117.042 C 311.692 99.304,311.587 98.595,308.451 94.522 C 305.585 90.800,299.431 88.742,293.750 89.607 M334.083 89.834 C 320.254 92.858,313.084 108.036,319.502 120.700 C 324.638 130.833,336.296 135.071,347.250 130.787 C 347.983 130.500,348.658 130.214,348.750 130.150 C 348.842 130.087,349.292 129.828,349.750 129.576 C 354.555 126.927,359.833 119.860,359.833 116.075 C 359.833 116.034,357.109 116.000,353.779 116.000 L 347.726 116.000 346.926 117.170 C 343.908 121.588,336.889 122.776,333.167 119.499 C 332.938 119.297,332.563 118.968,332.333 118.767 C 329.007 115.852,328.211 109.558,330.622 105.230 C 334.084 99.014,344.057 99.102,347.260 105.376 L 347.750 106.336 353.750 106.293 L 359.750 106.250 359.692 105.750 C 359.144 100.988,354.046 94.523,348.750 91.874 C 344.426 89.712,338.447 88.880,334.083 89.834 M229.667 90.928 C 229.667 91.035,230.116 92.214,231.251 95.083 C 231.650 96.092,232.164 97.404,232.393 98.000 C 233.166 100.007,234.356 103.068,235.276 105.417 C 235.779 106.700,236.382 108.237,236.615 108.833 C 236.848 109.429,237.101 110.067,237.176 110.250 C 237.252 110.433,237.574 111.258,237.893 112.083 C 238.480 113.606,239.453 116.096,240.756 119.417 C 241.152 120.425,241.901 122.337,242.420 123.667 C 242.940 124.996,243.620 126.723,243.932 127.504 C 244.504 128.934,244.625 129.633,244.352 129.925 C 244.270 130.012,243.927 130.796,243.589 131.667 C 243.251 132.537,242.830 133.558,242.654 133.935 C 242.477 134.312,242.333 134.666,242.333 134.722 C 242.333 134.779,242.108 135.316,241.833 135.917 C 241.558 136.517,241.331 137.100,241.328 137.213 C 241.325 137.325,241.213 137.562,241.078 137.740 C 240.943 137.918,240.833 138.160,240.833 138.278 C 240.833 138.395,240.608 138.983,240.333 139.583 C 240.058 140.184,239.833 140.781,239.833 140.911 C 239.833 141.041,239.764 141.190,239.679 141.242 C 239.595 141.294,239.405 141.700,239.258 142.143 C 239.111 142.586,238.842 143.238,238.662 143.593 C 238.079 144.735,237.695 144.667,244.654 144.667 L 250.975 144.667 251.224 143.875 C 251.361 143.440,251.783 142.258,252.162 141.250 C 252.542 140.242,252.964 139.117,253.102 138.750 C 253.239 138.383,253.492 137.708,253.664 137.250 C 253.836 136.792,254.177 135.892,254.422 135.250 C 254.667 134.608,255.007 133.708,255.177 133.250 C 255.348 132.792,255.720 131.817,256.004 131.083 C 256.288 130.350,256.630 129.397,256.765 128.965 C 256.899 128.534,257.082 128.136,257.171 128.081 C 257.260 128.025,257.333 127.866,257.333 127.727 C 257.333 127.588,257.527 126.973,257.763 126.362 C 258.295 124.985,258.983 123.142,259.578 121.500 C 259.827 120.813,260.127 120.025,260.244 119.750 C 260.362 119.475,260.664 118.688,260.916 118.000 C 261.346 116.828,261.674 115.944,262.743 113.083 C 262.982 112.442,263.288 111.670,263.423 111.369 C 263.557 111.068,263.667 110.736,263.667 110.630 C 263.667 110.525,263.806 110.134,263.975 109.761 C 264.145 109.388,264.489 108.521,264.740 107.833 C 264.991 107.146,265.415 106.021,265.682 105.333 C 265.950 104.646,266.169 104.008,266.169 103.917 C 266.169 103.825,266.273 103.551,266.399 103.308 C 266.526 103.065,266.719 102.577,266.828 102.224 C 266.936 101.872,267.124 101.358,267.245 101.083 C 267.482 100.543,267.810 99.674,268.754 97.083 C 269.446 95.185,270.049 93.590,270.488 92.500 C 270.655 92.087,270.839 91.543,270.899 91.290 L 271.007 90.829 264.712 90.873 L 258.417 90.917 257.066 95.000 C 256.324 97.246,254.607 102.458,253.252 106.583 C 251.897 110.708,250.732 114.146,250.663 114.223 C 250.449 114.461,250.222 113.865,247.751 106.583 C 246.894 104.058,244.881 98.228,243.752 95.000 C 243.319 93.763,242.837 92.337,242.681 91.833 L 242.397 90.917 236.032 90.873 C 232.531 90.849,229.667 90.874,229.667 90.928 M95.729 100.746 C 100.570 101.217,104.250 105.647,104.250 111.005 C 104.250 113.617,104.222 113.741,103.112 115.985 C 99.147 124.000,86.350 122.643,84.337 113.993 C 84.220 113.493,84.059 112.866,83.979 112.600 C 83.585 111.295,84.081 108.226,84.994 106.314 C 86.674 102.797,90.895 100.216,94.333 100.604 C 94.563 100.630,95.191 100.694,95.729 100.746 M143.743 100.846 C 148.995 101.817,152.612 107.750,151.327 113.285 C 150.394 117.302,147.724 120.103,143.979 120.992 C 135.642 122.972,129.144 113.719,133.340 105.845 C 135.384 102.011,139.456 100.054,143.743 100.846 " stroke="none" fill="#040404" fill-rule="evenodd"></path><path id="path1" d="M0.000 76.833 L 0.000 153.667 200.000 153.667 L 400.000 153.667 400.000 76.833 L 400.000 0.000 200.000 0.000 L 0.000 0.000 0.000 76.833 M255.750 4.731 C 261.087 5.722,266.436 8.019,269.852 10.788 C 275.420 15.302,278.792 20.000,280.887 26.167 C 281.925 29.225,282.024 29.033,279.054 29.747 C 277.594 30.098,277.635 30.123,277.178 28.631 C 275.572 23.382,272.970 19.213,269.194 15.833 C 268.425 15.146,267.703 14.495,267.588 14.386 C 266.514 13.371,262.155 11.025,259.917 10.257 C 259.183 10.005,258.433 9.737,258.250 9.661 C 257.720 9.441,254.415 8.871,252.451 8.660 C 241.158 7.446,228.601 15.319,224.663 26.083 C 224.596 26.267,224.457 26.626,224.354 26.883 C 223.971 27.836,224.040 27.905,225.792 28.316 C 226.685 28.526,227.642 28.761,227.917 28.838 C 228.192 28.915,228.735 29.061,229.125 29.163 C 229.887 29.361,230.044 29.795,229.679 30.700 C 229.594 30.911,229.428 31.557,229.309 32.135 C 229.026 33.518,229.007 33.526,227.167 33.073 C 226.296 32.858,225.208 32.601,224.750 32.501 C 224.292 32.401,223.654 32.250,223.333 32.164 C 223.012 32.079,221.912 31.812,220.887 31.572 C 219.852 31.330,218.986 31.038,218.940 30.916 C 218.656 30.177,220.531 24.397,221.882 21.843 C 227.155 11.881,235.981 5.844,247.333 4.436 C 248.558 4.284,254.455 4.491,255.750 4.731 M252.814 18.517 C 260.216 19.748,265.498 24.166,267.693 30.960 C 268.088 32.182,267.988 32.429,267.025 32.599 C 266.690 32.658,266.007 32.810,265.507 32.936 C 264.142 33.282,263.858 33.245,263.730 32.708 C 261.007 21.330,244.580 19.116,238.690 29.332 C 237.727 31.002,237.777 31.172,239.333 31.547 C 240.021 31.713,240.846 31.915,241.167 31.997 C 241.487 32.079,242.088 32.224,242.500 32.319 C 243.168 32.473,245.570 33.043,249.583 33.998 C 250.317 34.172,251.404 34.429,252.000 34.568 C 253.049 34.812,256.321 35.592,259.750 36.415 C 260.667 36.635,262.129 36.981,263.000 37.184 C 268.945 38.568,268.530 38.342,268.166 39.992 C 264.168 58.107,239.081 59.529,233.324 41.966 C 232.864 40.562,232.915 40.444,234.108 40.172 C 234.644 40.049,235.458 39.858,235.917 39.747 C 237.015 39.480,237.105 39.533,237.423 40.640 C 238.684 45.023,242.325 48.385,247.333 49.789 C 248.449 50.102,252.621 50.154,253.500 49.865 C 255.793 49.113,256.383 48.866,257.575 48.162 C 258.958 47.344,260.854 45.607,261.654 44.424 C 262.411 43.303,263.208 41.820,263.107 41.718 C 263.010 41.621,259.673 40.757,258.333 40.483 C 257.921 40.398,256.815 40.142,255.875 39.913 C 253.771 39.400,251.421 38.839,248.583 38.172 C 247.392 37.892,246.154 37.593,245.833 37.507 C 245.512 37.422,244.088 37.081,242.667 36.750 C 240.295 36.196,238.249 35.712,234.250 34.757 C 232.444 34.326,232.449 34.339,233.064 31.848 C 235.197 23.203,244.251 17.092,252.814 18.517 M274.883 40.014 C 276.093 40.299,277.979 40.750,279.075 41.016 C 280.170 41.282,281.176 41.500,281.312 41.500 C 281.946 41.500,282.131 41.952,281.876 42.878 C 281.744 43.358,281.573 44.050,281.496 44.417 C 280.713 48.161,277.602 55.594,274.596 60.901 C 274.085 61.804,273.667 62.565,273.667 62.592 C 273.667 62.619,273.168 63.453,272.558 64.445 C 271.948 65.438,271.237 66.608,270.977 67.046 C 270.508 67.834,267.009 73.042,266.191 74.167 C 265.777 74.737,264.611 76.328,263.259 78.167 C 262.565 79.112,258.630 84.147,258.035 84.853 C 252.677 91.205,250.882 93.169,250.448 93.153 C 249.248 93.109,237.537 78.435,231.771 69.750 C 230.102 67.236,226.833 61.936,226.833 61.744 C 226.833 61.709,226.605 61.294,226.325 60.820 C 226.046 60.346,225.327 58.974,224.729 57.771 C 224.130 56.568,223.542 55.396,223.423 55.167 C 223.166 54.673,221.724 51.228,221.100 49.616 C 220.419 47.857,219.342 44.171,219.438 43.922 C 219.485 43.800,219.687 43.655,219.887 43.600 C 222.827 42.792,223.667 42.752,223.667 43.418 C 223.667 43.870,224.799 47.321,225.634 49.418 C 227.843 54.959,231.551 61.752,235.710 67.876 C 236.145 68.517,237.289 70.182,237.986 71.188 C 238.867 72.459,242.772 77.708,243.798 79.000 C 247.829 84.074,250.179 86.833,250.469 86.833 C 250.787 86.833,254.531 82.411,257.657 78.344 C 258.603 77.113,259.443 76.025,259.523 75.928 C 260.579 74.635,263.735 70.165,265.898 66.901 C 270.726 59.612,274.574 52.127,276.490 46.296 C 276.988 44.779,277.271 44.979,273.333 44.059 C 270.821 43.472,270.929 43.625,271.466 41.417 C 271.913 39.575,272.066 39.269,272.467 39.416 C 272.586 39.460,273.673 39.729,274.883 40.014 M52.860 76.428 C 61.599 77.901,67.333 84.194,67.333 92.313 L 67.333 93.000 60.510 93.000 C 55.815 93.000,53.652 92.944,53.575 92.820 C 53.514 92.722,53.364 92.211,53.241 91.685 C 52.632 89.073,51.305 87.917,48.917 87.917 C 45.818 87.917,44.179 89.353,44.170 92.075 C 44.162 94.554,46.394 96.392,52.500 98.936 C 64.121 103.777,68.280 108.721,67.751 117.065 C 67.132 126.821,60.368 132.250,48.833 132.250 C 38.329 132.250,31.770 127.880,29.822 119.583 C 29.468 118.080,29.059 114.021,29.218 113.606 C 29.313 113.360,29.993 113.333,36.232 113.333 L 43.140 113.333 43.228 113.792 C 43.276 114.044,43.364 114.717,43.424 115.288 C 44.009 120.906,51.152 122.650,53.406 117.726 C 55.139 113.941,52.691 111.211,44.833 108.165 C 37.460 105.307,33.530 102.385,31.517 98.265 C 27.036 89.094,34.052 78.038,45.378 76.421 C 46.316 76.287,47.308 76.145,47.583 76.104 C 48.390 75.987,51.299 76.165,52.860 76.428 M212.333 76.164 C 215.048 76.480,217.608 77.111,218.833 77.767 C 219.063 77.889,219.512 78.103,219.833 78.241 C 220.154 78.380,220.564 78.589,220.744 78.705 C 220.925 78.821,221.562 79.232,222.161 79.618 C 226.279 82.268,228.145 85.791,228.745 92.043 L 228.837 93.004 221.891 92.960 L 214.945 92.917 214.665 91.748 C 213.536 87.052,207.543 86.265,205.741 90.578 C 204.490 93.573,206.301 95.492,213.417 98.710 C 226.113 104.452,229.072 107.686,229.079 115.833 C 229.087 126.328,222.152 132.380,210.187 132.319 C 202.079 132.278,196.900 129.912,193.238 124.576 C 192.830 123.981,191.833 121.911,191.833 121.658 C 191.833 121.562,191.729 121.281,191.601 121.033 C 191.239 120.334,190.667 116.548,190.667 114.856 L 190.667 113.333 197.589 113.333 C 202.984 113.333,204.523 113.379,204.568 113.542 C 204.600 113.656,204.707 114.364,204.805 115.113 C 205.246 118.473,207.255 120.546,210.083 120.559 C 214.550 120.581,216.951 115.696,214.051 112.486 C 212.805 111.107,210.900 110.094,204.833 107.584 C 195.548 103.742,191.541 99.100,191.597 92.250 C 191.616 89.889,192.199 87.225,193.002 85.833 C 196.348 80.030,201.547 76.871,209.000 76.113 C 210.085 76.002,211.079 76.017,212.333 76.164 M183.833 83.917 L 183.833 90.667 186.667 90.667 L 189.500 90.667 189.500 95.333 L 189.500 100.000 186.668 100.000 L 183.835 100.000 183.793 115.625 L 183.750 131.250 177.626 131.294 L 171.502 131.337 171.459 115.710 L 171.417 100.083 168.458 100.038 L 165.500 99.992 165.500 95.333 L 165.500 90.674 168.458 90.629 L 171.417 90.583 171.460 83.875 L 171.504 77.167 177.669 77.167 L 183.833 77.167 183.833 83.917 M98.417 89.326 C 99.940 89.477,102.502 89.972,102.750 90.161 C 102.842 90.232,103.320 90.421,103.813 90.582 C 108.038 91.961,112.388 96.319,114.543 101.333 C 116.583 106.080,117.096 114.023,115.615 117.917 C 115.476 118.283,115.316 118.789,115.261 119.041 C 114.999 120.236,113.222 123.534,111.916 125.250 C 105.652 133.480,93.008 135.276,85.793 128.961 L 84.670 127.978 84.627 136.364 L 84.583 144.750 78.417 144.750 L 72.250 144.750 72.250 117.750 L 72.250 90.750 78.042 90.706 L 83.833 90.662 83.833 92.869 L 83.833 95.076 85.125 93.798 C 86.387 92.550,88.979 90.760,89.826 90.552 C 90.059 90.494,90.400 90.353,90.583 90.237 C 91.665 89.555,95.842 89.070,98.417 89.326 M300.167 89.576 C 305.761 90.678,309.517 94.047,311.143 99.417 C 311.800 101.586,311.831 102.368,311.832 117.042 L 311.833 131.333 305.761 131.333 L 299.689 131.333 299.629 118.708 L 299.569 106.083 299.144 104.867 C 298.346 102.579,297.240 101.508,295.237 101.084 C 291.651 100.324,288.695 101.407,287.426 103.946 C 286.631 105.537,286.619 105.736,286.515 118.833 L 286.417 131.250 280.292 131.294 L 274.167 131.337 274.167 111.002 L 274.167 90.667 279.917 90.667 L 285.667 90.667 285.667 92.667 C 285.667 94.659,285.790 95.045,286.185 94.292 C 288.213 90.429,294.219 88.403,300.167 89.576 M340.417 89.335 C 348.650 90.210,355.110 94.585,358.378 101.500 C 359.180 103.197,360.090 106.052,359.918 106.331 C 359.851 106.440,357.676 106.500,353.744 106.500 L 347.673 106.500 347.314 105.796 C 344.230 99.751,335.450 98.903,331.487 104.268 C 329.148 107.434,328.719 112.472,330.490 115.981 C 333.817 122.572,343.256 122.986,347.049 116.708 L 347.578 115.833 353.789 115.833 C 359.590 115.833,360.000 115.853,360.000 116.125 C 360.000 117.326,358.120 121.488,356.610 123.626 C 354.525 126.582,350.744 129.624,347.667 130.823 C 347.346 130.948,346.858 131.146,346.583 131.264 C 338.685 134.637,328.058 131.945,322.193 125.084 C 309.633 110.393,321.399 87.313,340.417 89.335 M145.708 89.659 C 167.682 93.306,170.325 124.442,149.250 131.389 C 132.864 136.790,117.353 123.731,120.254 106.975 C 122.285 95.238,133.471 87.628,145.708 89.659 M242.500 90.710 C 242.500 90.776,244.177 95.689,245.500 99.500 C 246.153 101.379,247.138 104.267,247.690 105.917 C 248.241 107.567,248.790 109.142,248.909 109.417 C 249.029 109.692,249.407 110.779,249.751 111.833 C 250.094 112.888,250.430 113.811,250.498 113.885 C 250.565 113.959,251.465 111.447,252.498 108.302 C 256.019 97.579,257.508 93.084,257.938 91.875 L 258.367 90.667 264.850 90.667 C 268.416 90.667,271.333 90.697,271.333 90.733 C 271.333 90.807,270.237 93.720,270.010 94.250 C 269.931 94.433,269.777 94.846,269.667 95.167 C 269.556 95.487,269.401 95.900,269.320 96.083 C 269.144 96.486,267.357 101.245,267.161 101.833 C 267.085 102.063,266.786 102.850,266.497 103.583 C 266.208 104.317,265.870 105.217,265.746 105.583 C 265.621 105.950,265.287 106.850,265.002 107.583 C 264.717 108.317,264.186 109.742,263.822 110.750 C 263.458 111.758,263.055 112.808,262.927 113.083 C 262.798 113.358,262.639 113.808,262.573 114.083 C 262.508 114.358,262.398 114.658,262.328 114.750 C 262.259 114.842,262.088 115.254,261.947 115.667 C 261.627 116.605,260.872 118.640,260.679 119.083 C 260.531 119.423,259.824 121.313,259.057 123.417 C 258.823 124.058,258.492 124.921,258.323 125.333 C 258.153 125.746,257.747 126.833,257.420 127.750 C 257.093 128.667,256.714 129.663,256.579 129.964 C 256.444 130.265,256.333 130.588,256.333 130.681 C 256.333 130.775,256.197 131.166,256.029 131.551 C 255.721 132.261,255.269 133.445,254.333 136.000 C 254.047 136.779,253.706 137.653,253.574 137.942 C 253.441 138.231,253.333 138.518,253.333 138.580 C 253.333 138.642,253.156 139.156,252.939 139.722 C 252.723 140.287,252.307 141.387,252.016 142.167 C 251.724 142.946,251.365 143.865,251.218 144.208 L 250.949 144.833 244.475 144.833 C 240.914 144.833,238.000 144.777,238.001 144.708 C 238.002 144.640,238.115 144.368,238.252 144.104 C 238.390 143.840,238.772 142.940,239.101 142.104 C 239.431 141.268,239.838 140.283,240.005 139.917 C 240.510 138.812,241.833 135.579,241.833 135.450 C 241.833 135.384,241.978 135.012,242.154 134.623 C 242.766 133.273,243.500 131.527,243.500 131.420 C 243.500 131.361,243.696 130.899,243.935 130.393 C 244.410 129.389,244.399 129.002,243.859 127.792 C 243.685 127.402,243.304 126.446,243.012 125.667 C 242.719 124.888,242.152 123.425,241.752 122.417 C 241.351 121.408,240.449 119.121,239.748 117.333 C 239.047 115.546,238.222 113.446,237.916 112.667 C 236.722 109.634,235.833 107.351,235.252 105.833 C 234.920 104.962,234.394 103.612,234.083 102.833 C 233.773 102.054,233.245 100.704,232.910 99.833 C 232.575 98.962,231.662 96.638,230.882 94.667 C 230.101 92.696,229.425 90.990,229.380 90.875 C 229.315 90.710,230.685 90.667,235.899 90.667 C 239.529 90.667,242.500 90.686,242.500 90.710 M91.872 100.995 C 85.072 102.583,81.854 110.807,85.744 116.658 C 91.352 125.093,104.158 121.101,104.161 110.917 C 104.163 104.381,98.153 99.529,91.872 100.995 M140.167 100.948 C 139.492 101.061,138.116 101.531,137.667 101.802 C 135.234 103.269,133.991 104.646,133.001 106.972 C 129.220 115.856,139.047 124.787,146.885 119.590 C 155.741 113.719,150.514 99.216,140.167 100.948 " stroke="none" fill="#fbfbfb" fill-rule="evenodd"></path><path id="path2" d="M246.529 4.764 C 234.342 6.329,223.770 15.010,220.258 26.333 C 218.970 30.486,218.946 30.828,219.918 31.109 C 221.469 31.558,227.838 33.032,228.332 33.057 L 228.871 33.083 229.273 31.424 C 229.749 29.466,229.735 29.402,228.807 29.245 C 227.861 29.086,224.351 28.197,224.133 28.063 C 223.155 27.458,226.835 20.685,229.966 17.328 C 244.672 1.554,270.712 7.543,277.272 28.208 C 277.813 29.911,277.756 29.888,279.958 29.310 C 281.668 28.862,281.676 28.777,280.373 25.250 C 278.130 19.184,273.690 13.549,268.337 9.979 C 266.547 8.785,262.905 6.909,261.417 6.414 C 256.198 4.679,251.361 4.143,246.529 4.764 M248.250 18.686 C 240.183 20.127,234.920 24.883,233.150 32.328 C 232.679 34.308,232.476 34.135,236.355 35.055 C 238.222 35.498,240.650 36.076,241.750 36.338 C 242.850 36.601,245.512 37.232,247.667 37.742 C 249.821 38.252,251.846 38.742,252.167 38.830 C 252.487 38.918,253.725 39.217,254.917 39.494 C 264.111 41.629,263.390 41.417,263.258 41.945 C 262.616 44.503,258.438 48.437,255.244 49.491 C 253.144 50.184,252.731 50.250,250.500 50.249 C 244.403 50.247,239.038 46.482,237.326 41.005 C 236.935 39.755,236.833 39.719,234.988 40.186 C 232.913 40.711,232.902 41.727,234.934 45.101 C 235.246 45.618,235.500 46.072,235.500 46.111 C 235.500 46.603,238.276 49.589,239.838 50.776 C 244.770 54.524,252.350 55.245,258.102 52.513 C 263.132 50.123,266.473 45.985,267.840 40.450 C 268.347 38.399,269.033 38.804,262.417 37.244 C 261.408 37.006,259.496 36.551,258.167 36.233 C 255.535 35.602,254.836 35.436,251.583 34.669 C 249.499 34.177,244.529 33.000,241.750 32.340 C 241.017 32.166,239.876 31.899,239.215 31.746 C 237.337 31.311,237.309 31.091,238.841 28.765 C 243.708 21.377,254.585 20.321,260.470 26.667 C 261.854 28.160,263.106 30.151,263.571 31.600 C 264.039 33.060,264.027 33.054,265.667 32.687 C 268.045 32.155,268.043 32.163,266.885 29.399 C 265.285 25.576,261.514 21.653,258.083 20.242 C 257.717 20.092,257.192 19.865,256.917 19.739 C 254.912 18.820,250.499 18.284,248.250 18.686 M271.999 40.086 C 271.908 40.326,271.833 40.662,271.833 40.833 C 271.833 41.005,271.769 41.319,271.690 41.531 C 271.069 43.201,271.159 43.308,273.710 43.928 C 277.474 44.845,277.228 44.612,276.574 46.634 C 273.384 56.494,264.368 70.957,253.052 84.368 C 250.600 87.274,250.591 87.283,250.224 86.979 C 249.561 86.430,244.803 80.665,242.747 77.919 C 242.199 77.187,241.612 76.437,241.444 76.252 C 241.276 76.068,240.713 75.326,240.194 74.605 C 239.675 73.883,238.918 72.833,238.512 72.271 C 237.597 71.005,232.869 63.920,232.424 63.149 C 232.244 62.838,231.900 62.246,231.659 61.833 C 229.294 57.792,227.550 54.432,226.189 51.293 C 225.298 49.239,223.667 44.615,223.667 44.145 C 223.667 43.994,223.527 43.698,223.357 43.488 L 223.047 43.105 221.571 43.395 C 219.302 43.841,219.336 43.657,220.748 47.917 C 222.639 53.623,225.277 58.985,229.808 66.333 C 231.441 68.981,233.727 72.434,234.829 73.917 C 235.170 74.375,236.192 75.762,237.099 77.000 C 238.007 78.237,238.874 79.400,239.026 79.583 C 239.178 79.767,239.998 80.817,240.849 81.917 C 241.700 83.017,242.441 83.954,242.494 84.000 C 242.548 84.046,243.238 84.871,244.028 85.833 C 244.818 86.796,245.604 87.733,245.774 87.917 C 245.944 88.100,246.533 88.774,247.083 89.415 C 249.150 91.822,250.347 93.030,250.578 92.942 C 250.760 92.872,253.433 90.006,254.500 88.738 C 254.729 88.466,255.370 87.719,255.924 87.080 C 256.914 85.938,260.627 81.312,262.286 79.155 C 265.594 74.853,272.833 64.155,272.833 63.569 C 272.833 63.514,272.975 63.269,273.147 63.026 C 273.320 62.782,273.707 62.133,274.008 61.583 C 278.163 53.986,280.286 48.787,281.695 42.765 C 281.912 41.836,281.884 41.824,277.417 40.833 C 276.500 40.629,275.225 40.330,274.583 40.167 C 272.341 39.600,272.186 39.595,271.999 40.086 " stroke="none" fill="#d42121" fill-rule="evenodd"></path><path id="path3" d="M47.542 76.286 C 47.794 76.324,48.206 76.324,48.458 76.286 C 48.710 76.248,48.504 76.217,48.000 76.217 C 47.496 76.217,47.290 76.248,47.542 76.286 M49.792 76.284 C 49.998 76.324,50.335 76.324,50.542 76.284 C 50.748 76.245,50.579 76.212,50.167 76.212 C 49.754 76.212,49.585 76.245,49.792 76.284 M209.044 76.286 C 209.297 76.325,209.672 76.324,209.877 76.284 C 210.082 76.244,209.875 76.213,209.417 76.214 C 208.958 76.216,208.791 76.248,209.044 76.286 M211.125 76.284 C 211.331 76.324,211.669 76.324,211.875 76.284 C 212.081 76.245,211.912 76.212,211.500 76.212 C 211.088 76.212,210.919 76.245,211.125 76.284 M214.750 76.667 C 214.933 76.745,215.233 76.808,215.417 76.805 C 215.685 76.801,215.668 76.774,215.333 76.667 C 214.763 76.484,214.325 76.484,214.750 76.667 M183.581 84.000 L 183.583 90.750 186.542 90.756 L 189.500 90.762 186.585 90.710 L 183.670 90.659 183.624 83.954 L 183.578 77.250 183.581 84.000 M196.658 81.292 L 196.083 81.917 196.708 81.342 C 197.052 81.026,197.333 80.745,197.333 80.717 C 197.333 80.590,197.192 80.710,196.658 81.292 M224.500 81.750 C 224.998 82.254,225.443 82.667,225.489 82.667 C 225.534 82.667,225.165 82.254,224.667 81.750 C 224.169 81.246,223.724 80.833,223.678 80.833 C 223.632 80.833,224.002 81.246,224.500 81.750 M65.083 84.333 C 65.226 84.608,65.379 84.833,65.425 84.833 C 65.471 84.833,65.392 84.608,65.250 84.333 C 65.108 84.058,64.954 83.833,64.908 83.833 C 64.862 83.833,64.941 84.058,65.083 84.333 M226.516 84.407 C 226.709 84.733,226.898 85.000,226.937 85.000 C 227.056 85.000,226.515 84.029,226.334 83.917 C 226.242 83.860,226.324 84.080,226.516 84.407 M47.083 87.833 C 46.873 87.924,46.842 87.977,47.000 87.977 C 47.137 87.977,47.400 87.912,47.583 87.833 C 47.793 87.743,47.824 87.690,47.667 87.690 C 47.529 87.690,47.267 87.755,47.083 87.833 M208.375 87.839 C 207.798 88.070,207.931 88.173,208.542 87.967 C 208.840 87.866,209.115 87.757,209.153 87.725 C 209.288 87.611,208.744 87.690,208.375 87.839 M30.686 88.528 C 30.675 88.681,30.624 88.943,30.571 89.111 C 30.480 89.401,30.485 89.401,30.665 89.120 C 30.770 88.956,30.822 88.694,30.781 88.536 C 30.713 88.278,30.703 88.278,30.686 88.528 M206.491 89.125 L 205.917 89.750 206.542 89.176 C 207.123 88.641,207.243 88.500,207.116 88.500 C 207.088 88.500,206.807 88.781,206.491 89.125 M95.295 89.454 C 95.594 89.491,96.044 89.490,96.295 89.452 C 96.545 89.414,96.300 89.384,95.750 89.385 C 95.200 89.386,94.995 89.417,95.295 89.454 M97.127 89.451 C 97.334 89.491,97.634 89.490,97.794 89.448 C 97.953 89.406,97.783 89.374,97.417 89.375 C 97.050 89.377,96.920 89.411,97.127 89.451 M295.881 89.457 C 296.412 89.490,297.237 89.490,297.714 89.456 C 298.192 89.422,297.758 89.395,296.750 89.396 C 295.742 89.396,295.351 89.424,295.881 89.457 M337.797 89.456 C 338.282 89.490,339.032 89.490,339.464 89.456 C 339.896 89.421,339.500 89.394,338.583 89.394 C 337.667 89.395,337.313 89.423,337.797 89.456 M139.042 89.615 C 139.202 89.657,139.465 89.657,139.625 89.615 C 139.785 89.573,139.654 89.539,139.333 89.539 C 139.012 89.539,138.881 89.573,139.042 89.615 M143.958 89.618 C 144.165 89.657,144.502 89.657,144.708 89.618 C 144.915 89.578,144.746 89.545,144.333 89.545 C 143.921 89.545,143.752 89.578,143.958 89.618 M343.583 90.000 C 343.767 90.079,344.029 90.143,344.167 90.143 C 344.324 90.143,344.293 90.090,344.083 90.000 C 343.900 89.921,343.637 89.857,343.500 89.857 C 343.342 89.857,343.373 89.910,343.583 90.000 M205.495 90.509 C 205.394 90.698,205.336 90.926,205.367 91.016 C 205.397 91.107,205.508 90.953,205.613 90.674 C 205.832 90.094,205.766 90.002,205.495 90.509 M191.709 90.917 C 191.711 91.283,191.745 91.414,191.785 91.206 C 191.824 90.999,191.823 90.699,191.781 90.540 C 191.739 90.380,191.707 90.550,191.709 90.917 M330.583 90.756 C 330.167 90.957,330.153 90.980,330.500 90.895 C 330.972 90.779,331.503 90.509,331.250 90.513 C 331.158 90.514,330.858 90.623,330.583 90.756 M72.444 90.778 C 72.383 90.839,72.333 103.027,72.333 117.863 L 72.333 144.837 78.375 144.794 L 84.417 144.750 84.460 136.342 C 84.493 129.880,84.551 127.900,84.710 127.788 C 84.862 127.680,84.850 127.659,84.667 127.710 C 84.449 127.769,84.411 128.882,84.373 136.222 L 84.330 144.667 78.415 144.667 L 72.500 144.667 72.500 117.752 L 72.500 90.838 78.125 90.792 L 83.750 90.745 78.153 90.706 C 75.074 90.684,72.506 90.717,72.444 90.778 M165.575 90.878 C 165.531 90.994,165.516 93.075,165.542 95.503 L 165.589 99.917 165.628 95.379 L 165.667 90.841 168.625 90.791 L 171.583 90.742 168.620 90.704 C 166.355 90.676,165.637 90.716,165.575 90.878 M229.500 90.792 C 229.500 90.860,232.418 90.917,235.984 90.917 C 239.550 90.917,242.433 90.860,242.391 90.792 C 242.348 90.723,239.431 90.667,235.907 90.667 C 232.383 90.667,229.500 90.723,229.500 90.792 M258.442 90.792 C 258.400 90.860,261.213 90.896,264.695 90.871 L 271.025 90.826 270.918 91.204 C 270.835 91.500,270.850 91.528,270.987 91.333 C 271.450 90.671,271.412 90.667,264.843 90.667 C 261.365 90.667,258.485 90.723,258.442 90.792 M277.031 90.791 C 278.561 90.819,281.111 90.819,282.698 90.791 C 284.285 90.764,283.033 90.742,279.917 90.741 C 276.800 90.741,275.501 90.764,277.031 90.791 M43.875 91.917 C 43.877 92.283,43.911 92.414,43.951 92.206 C 43.991 91.999,43.990 91.699,43.948 91.540 C 43.906 91.380,43.874 91.550,43.875 91.917 M228.500 92.165 L 228.500 92.830 221.792 92.875 L 215.083 92.921 221.875 92.960 L 228.667 93.000 228.667 92.250 C 228.667 91.837,228.629 91.500,228.583 91.500 C 228.537 91.500,228.500 91.799,228.500 92.165 M242.762 92.167 C 242.824 92.396,242.943 92.696,243.028 92.833 C 243.135 93.007,243.149 92.956,243.071 92.667 C 243.010 92.438,242.890 92.138,242.805 92.000 C 242.698 91.826,242.685 91.877,242.762 92.167 M205.418 92.995 C 205.467 93.313,205.582 93.649,205.674 93.741 C 205.787 93.854,205.791 93.746,205.684 93.413 C 205.399 92.519,205.329 92.408,205.418 92.995 M57.053 92.958 C 58.961 92.985,62.036 92.985,63.886 92.958 C 65.736 92.931,64.175 92.909,60.417 92.909 C 56.658 92.909,55.145 92.931,57.053 92.958 M108.833 93.713 C 108.833 93.738,109.415 94.319,110.125 95.004 L 111.417 96.250 110.171 94.958 C 109.014 93.759,108.833 93.591,108.833 93.713 M45.167 95.083 C 45.478 95.404,45.770 95.667,45.815 95.667 C 45.861 95.667,45.644 95.404,45.333 95.083 C 45.022 94.763,44.730 94.500,44.685 94.500 C 44.639 94.500,44.856 94.763,45.167 95.083 M192.003 95.597 C 192.004 95.773,192.081 96.029,192.174 96.167 C 192.298 96.349,192.313 96.282,192.232 95.917 C 192.095 95.304,191.999 95.171,192.003 95.597 M354.833 96.552 C 354.833 96.581,355.077 96.825,355.375 97.094 L 355.917 97.583 355.427 97.042 C 354.971 96.537,354.833 96.423,354.833 96.552 M183.611 99.944 C 183.550 100.006,183.500 107.055,183.500 115.609 L 183.500 131.162 177.542 131.209 L 171.583 131.256 177.583 131.253 L 183.583 131.250 183.667 115.542 C 183.713 106.902,183.744 99.833,183.736 99.833 C 183.728 99.833,183.672 99.883,183.611 99.944 M90.875 101.005 C 90.317 101.230,90.421 101.343,91.000 101.142 C 91.275 101.046,91.500 100.937,91.500 100.900 C 91.500 100.801,91.297 100.836,90.875 101.005 M34.167 101.917 C 34.665 102.421,35.109 102.833,35.155 102.833 C 35.201 102.833,34.831 102.421,34.333 101.917 C 33.835 101.412,33.391 101.000,33.345 101.000 C 33.299 101.000,33.669 101.412,34.167 101.917 M343.514 101.717 C 343.552 101.745,343.808 101.899,344.083 102.060 L 344.583 102.353 344.190 102.010 C 343.973 101.821,343.717 101.667,343.620 101.667 C 343.524 101.667,343.476 101.689,343.514 101.717 M196.000 102.219 C 196.000 102.248,196.244 102.491,196.542 102.760 L 197.083 103.250 196.594 102.708 C 196.138 102.203,196.000 102.090,196.000 102.219 M332.658 102.792 L 332.083 103.417 332.708 102.842 C 333.290 102.308,333.410 102.167,333.283 102.167 C 333.255 102.167,332.974 102.448,332.658 102.792 M345.583 103.333 C 346.035 103.792,346.442 104.167,346.487 104.167 C 346.533 104.167,346.201 103.792,345.750 103.333 C 345.299 102.875,344.892 102.500,344.846 102.500 C 344.800 102.500,345.132 102.875,345.583 103.333 M135.077 103.542 L 134.250 104.417 135.125 103.590 C 135.606 103.135,136.000 102.741,136.000 102.715 C 136.000 102.590,135.846 102.729,135.077 103.542 M148.417 103.500 C 148.775 103.867,149.105 104.167,149.151 104.167 C 149.197 104.167,148.941 103.867,148.583 103.500 C 148.225 103.133,147.895 102.833,147.849 102.833 C 147.803 102.833,148.059 103.133,148.417 103.500 M311.712 103.833 C 311.712 104.246,311.745 104.415,311.784 104.208 C 311.824 104.002,311.824 103.665,311.784 103.458 C 311.745 103.252,311.712 103.421,311.712 103.833 M222.667 103.727 C 222.667 103.773,222.892 103.971,223.167 104.167 C 223.442 104.362,223.667 104.485,223.667 104.439 C 223.667 104.394,223.442 104.196,223.167 104.000 C 222.892 103.804,222.667 103.681,222.667 103.727 M101.993 104.458 C 102.302 104.848,102.586 105.167,102.623 105.167 C 102.740 105.167,102.026 104.229,101.723 103.985 C 101.562 103.856,101.683 104.069,101.993 104.458 M37.083 104.253 C 37.267 104.402,37.567 104.598,37.750 104.688 L 38.083 104.852 37.750 104.580 C 37.567 104.431,37.267 104.235,37.083 104.145 L 36.750 103.982 37.083 104.253 M63.917 106.000 C 64.368 106.458,64.775 106.833,64.821 106.833 C 64.867 106.833,64.535 106.458,64.083 106.000 C 63.632 105.542,63.225 105.167,63.179 105.167 C 63.133 105.167,63.465 105.542,63.917 106.000 M235.591 106.542 C 235.653 106.748,235.773 106.990,235.857 107.080 C 235.940 107.169,235.925 107.000,235.822 106.705 C 235.610 106.099,235.416 105.961,235.591 106.542 M299.626 118.631 C 299.650 125.388,299.704 131.010,299.746 131.125 C 299.806 131.287,301.138 131.325,305.786 131.294 L 311.750 131.254 305.792 131.208 L 299.833 131.162 299.822 119.040 C 299.815 112.372,299.759 106.788,299.697 106.631 C 299.634 106.474,299.603 111.874,299.626 118.631 M286.379 107.500 C 286.379 107.912,286.411 108.081,286.451 107.875 C 286.491 107.669,286.491 107.331,286.451 107.125 C 286.411 106.919,286.379 107.087,286.379 107.500 M43.167 107.417 C 43.396 107.548,43.658 107.655,43.750 107.655 C 43.842 107.655,43.729 107.548,43.500 107.417 C 43.271 107.286,43.008 107.178,42.917 107.178 C 42.825 107.178,42.938 107.286,43.167 107.417 M163.375 108.083 C 163.377 108.450,163.411 108.580,163.451 108.373 C 163.491 108.166,163.490 107.866,163.448 107.706 C 163.406 107.547,163.374 107.717,163.375 108.083 M103.935 108.250 C 104.072 108.863,104.168 108.996,104.164 108.569 C 104.163 108.394,104.085 108.138,103.992 108.000 C 103.869 107.817,103.853 107.885,103.935 108.250 M116.205 108.833 C 116.205 109.154,116.240 109.285,116.282 109.125 C 116.323 108.965,116.323 108.702,116.282 108.542 C 116.240 108.381,116.205 108.513,116.205 108.833 M163.539 109.667 C 163.539 109.987,163.573 110.119,163.615 109.958 C 163.657 109.798,163.657 109.535,163.615 109.375 C 163.573 109.215,163.539 109.346,163.539 109.667 M132.045 110.167 C 132.045 110.579,132.078 110.748,132.118 110.542 C 132.157 110.335,132.157 109.998,132.118 109.792 C 132.078 109.585,132.045 109.754,132.045 110.167 M209.833 109.582 C 209.833 109.696,210.854 110.202,210.930 110.125 C 210.966 110.089,210.734 109.935,210.415 109.783 C 210.095 109.630,209.833 109.540,209.833 109.582 M66.512 109.750 C 66.512 109.842,66.619 110.104,66.750 110.333 C 66.881 110.563,66.988 110.675,66.988 110.583 C 66.988 110.492,66.881 110.229,66.750 110.000 C 66.619 109.771,66.512 109.658,66.512 109.750 M151.557 110.917 C 151.558 111.650,151.587 111.929,151.622 111.537 C 151.657 111.145,151.657 110.545,151.621 110.204 C 151.585 109.863,151.557 110.183,151.557 110.917 M329.209 110.250 C 329.211 110.617,329.245 110.747,329.285 110.540 C 329.324 110.332,329.323 110.032,329.281 109.873 C 329.239 109.714,329.207 109.883,329.209 110.250 M83.889 111.167 C 83.889 111.854,83.919 112.135,83.955 111.792 C 83.991 111.448,83.991 110.885,83.955 110.542 C 83.919 110.198,83.889 110.479,83.889 111.167 M132.045 111.833 C 132.045 112.246,132.078 112.415,132.118 112.208 C 132.157 112.002,132.157 111.665,132.118 111.458 C 132.078 111.252,132.045 111.421,132.045 111.833 M163.545 112.000 C 163.545 112.412,163.578 112.581,163.618 112.375 C 163.657 112.169,163.657 111.831,163.618 111.625 C 163.578 111.419,163.545 111.587,163.545 112.000 M228.872 113.333 C 228.872 113.654,228.906 113.785,228.948 113.625 C 228.990 113.465,228.990 113.202,228.948 113.042 C 228.906 112.881,228.872 113.013,228.872 113.333 M163.379 113.667 C 163.379 114.079,163.411 114.248,163.451 114.042 C 163.491 113.835,163.491 113.498,163.451 113.292 C 163.411 113.085,163.379 113.254,163.379 113.667 M104.019 113.361 C 104.009 113.514,103.957 113.777,103.904 113.945 C 103.813 114.234,103.818 114.235,103.999 113.953 C 104.103 113.790,104.155 113.527,104.114 113.370 C 104.046 113.112,104.037 113.111,104.019 113.361 M29.404 113.555 C 29.357 113.680,29.344 114.337,29.376 115.016 L 29.434 116.250 29.467 114.875 L 29.500 113.500 36.239 113.500 L 42.979 113.500 43.053 114.042 L 43.127 114.583 43.105 114.000 L 43.083 113.417 36.287 113.373 C 30.694 113.337,29.476 113.370,29.404 113.555 M67.542 113.917 C 67.544 114.283,67.578 114.414,67.618 114.206 C 67.658 113.999,67.656 113.699,67.615 113.540 C 67.573 113.380,67.540 113.550,67.542 113.917 M194.219 113.458 C 196.128 113.485,199.203 113.485,201.053 113.458 C 202.903 113.431,201.342 113.409,197.583 113.409 C 193.825 113.409,192.311 113.431,194.219 113.458 M229.060 115.833 C 229.060 116.704,229.088 117.060,229.123 116.625 C 229.157 116.190,229.157 115.477,229.123 115.042 C 229.088 114.606,229.060 114.962,229.060 115.833 M215.381 115.750 C 215.382 116.208,215.415 116.376,215.453 116.123 C 215.491 115.869,215.490 115.494,215.451 115.289 C 215.411 115.084,215.380 115.292,215.381 115.750 M347.610 115.956 C 347.567 116.026,350.275 116.063,353.628 116.038 C 358.421 116.002,359.757 116.037,359.875 116.204 C 359.989 116.365,360.009 116.356,359.957 116.167 C 359.883 115.894,347.777 115.687,347.610 115.956 M67.548 117.583 C 67.549 118.042,67.581 118.209,67.620 117.956 C 67.658 117.703,67.657 117.328,67.617 117.123 C 67.578 116.918,67.546 117.125,67.548 117.583 M134.993 118.375 C 135.402 118.810,135.758 119.167,135.785 119.167 C 135.910 119.167,135.778 119.017,135.042 118.326 L 134.250 117.583 134.993 118.375 M228.875 118.250 C 228.877 118.617,228.911 118.747,228.951 118.540 C 228.991 118.332,228.990 118.032,228.948 117.873 C 228.906 117.714,228.874 117.883,228.875 118.250 M148.324 118.625 L 147.750 119.250 148.375 118.676 C 148.957 118.141,149.077 118.000,148.949 118.000 C 148.922 118.000,148.640 118.281,148.324 118.625 M345.575 118.708 L 344.917 119.417 345.625 118.758 C 346.284 118.145,346.410 118.000,346.284 118.000 C 346.257 118.000,345.938 118.319,345.575 118.708 M260.162 119.843 C 260.061 120.031,260.003 120.259,260.033 120.350 C 260.063 120.440,260.174 120.286,260.280 120.007 C 260.499 119.427,260.433 119.336,260.162 119.843 M121.949 120.248 C 122.102 120.568,122.256 120.800,122.292 120.763 C 122.368 120.687,121.862 119.667,121.748 119.667 C 121.706 119.667,121.797 119.928,121.949 120.248 M207.500 120.105 C 207.500 120.218,208.690 120.699,208.770 120.619 C 208.807 120.582,208.536 120.434,208.168 120.289 C 207.801 120.145,207.500 120.062,207.500 120.105 M91.750 121.167 C 91.933 121.245,92.233 121.308,92.417 121.305 C 92.685 121.301,92.668 121.274,92.333 121.167 C 91.763 120.984,91.325 120.984,91.750 121.167 M122.583 121.500 C 122.726 121.775,122.879 122.000,122.925 122.000 C 122.971 122.000,122.892 121.775,122.750 121.500 C 122.608 121.225,122.454 121.000,122.408 121.000 C 122.362 121.000,122.441 121.225,122.583 121.500 M141.121 121.287 C 141.417 121.324,141.942 121.324,142.288 121.288 C 142.634 121.252,142.392 121.222,141.750 121.221 C 141.108 121.221,140.825 121.250,141.121 121.287 M337.794 121.285 C 338.001 121.324,338.301 121.323,338.460 121.281 C 338.620 121.239,338.450 121.207,338.083 121.209 C 337.717 121.211,337.586 121.245,337.794 121.285 M339.375 121.286 C 339.627 121.324,340.040 121.324,340.292 121.286 C 340.544 121.248,340.337 121.217,339.833 121.217 C 339.329 121.217,339.123 121.248,339.375 121.286 M93.960 121.451 C 94.168 121.491,94.468 121.490,94.627 121.448 C 94.786 121.406,94.617 121.374,94.250 121.375 C 93.883 121.377,93.753 121.411,93.960 121.451 M124.152 123.972 C 124.242 124.140,124.446 124.384,124.606 124.514 C 124.786 124.660,124.746 124.544,124.501 124.208 C 124.063 123.610,123.899 123.499,124.152 123.972 M323.417 126.333 C 323.868 126.792,324.275 127.167,324.321 127.167 C 324.367 127.167,324.035 126.792,323.583 126.333 C 323.132 125.875,322.725 125.500,322.679 125.500 C 322.633 125.500,322.965 125.875,323.417 126.333 M354.073 126.375 L 353.583 126.917 354.125 126.427 C 354.630 125.971,354.743 125.833,354.615 125.833 C 354.586 125.833,354.342 126.077,354.073 126.375 M195.250 127.000 C 195.701 127.458,196.108 127.833,196.154 127.833 C 196.200 127.833,195.868 127.458,195.417 127.000 C 194.965 126.542,194.558 126.167,194.513 126.167 C 194.467 126.167,194.799 126.542,195.250 127.000 M109.240 127.875 L 108.750 128.417 109.292 127.927 C 109.590 127.658,109.833 127.414,109.833 127.385 C 109.833 127.257,109.696 127.370,109.240 127.875 M325.500 128.061 C 325.500 128.106,325.725 128.304,326.000 128.500 C 326.275 128.696,326.500 128.819,326.500 128.773 C 326.500 128.727,326.275 128.529,326.000 128.333 C 325.725 128.138,325.500 128.015,325.500 128.061 M150.500 130.750 C 150.271 130.881,150.158 130.988,150.250 130.988 C 150.342 130.988,150.604 130.881,150.833 130.750 C 151.063 130.619,151.175 130.512,151.083 130.512 C 150.992 130.512,150.729 130.619,150.500 130.750 M347.333 130.750 C 347.104 130.881,346.992 130.988,347.083 130.988 C 347.175 130.988,347.438 130.881,347.667 130.750 C 347.896 130.619,348.008 130.512,347.917 130.512 C 347.825 130.512,347.563 130.619,347.333 130.750 M277.292 131.291 C 278.965 131.319,281.702 131.319,283.375 131.291 C 285.048 131.264,283.679 131.242,280.333 131.242 C 276.987 131.242,275.619 131.264,277.292 131.291 M203.500 131.492 C 203.637 131.585,203.894 131.663,204.069 131.664 C 204.496 131.668,204.363 131.572,203.750 131.435 C 203.385 131.353,203.317 131.369,203.500 131.492 M345.167 131.500 C 344.823 131.610,344.809 131.636,345.083 131.648 C 345.267 131.655,345.529 131.589,345.667 131.500 C 345.959 131.311,345.756 131.311,345.167 131.500 M51.542 132.115 C 51.702 132.157,51.965 132.157,52.125 132.115 C 52.285 132.073,52.154 132.039,51.833 132.039 C 51.512 132.039,51.381 132.073,51.542 132.115 M48.214 132.290 C 48.745 132.323,49.570 132.323,50.048 132.289 C 50.526 132.256,50.092 132.229,49.083 132.229 C 48.075 132.229,47.684 132.257,48.214 132.290 M209.548 132.290 C 210.078 132.323,210.903 132.323,211.381 132.289 C 211.859 132.256,211.425 132.229,210.417 132.229 C 209.408 132.229,209.017 132.257,209.548 132.290 M340.917 132.333 C 340.350 132.435,340.325 132.455,340.750 132.467 C 341.025 132.474,341.550 132.419,341.917 132.343 C 342.789 132.162,341.917 132.154,340.917 132.333 M139.961 132.454 C 140.261 132.491,140.711 132.490,140.961 132.452 C 141.212 132.414,140.967 132.384,140.417 132.385 C 139.867 132.386,139.662 132.417,139.961 132.454 M142.542 132.453 C 142.794 132.491,143.206 132.491,143.458 132.453 C 143.710 132.415,143.504 132.383,143.000 132.383 C 142.496 132.383,142.290 132.415,142.542 132.453 M335.875 132.453 C 336.127 132.491,336.540 132.491,336.792 132.453 C 337.044 132.415,336.837 132.383,336.333 132.383 C 335.829 132.383,335.623 132.415,335.875 132.453 M94.960 132.618 C 95.168 132.658,95.468 132.656,95.627 132.615 C 95.786 132.573,95.617 132.540,95.250 132.542 C 94.883 132.544,94.753 132.578,94.960 132.618 M242.708 133.542 C 242.529 134.031,242.534 134.052,242.755 133.760 C 242.967 133.480,243.092 133.000,242.953 133.000 C 242.927 133.000,242.817 133.244,242.708 133.542 M238.861 142.825 C 238.764 143.105,238.719 143.333,238.763 143.333 C 238.875 143.333,239.190 142.468,239.107 142.385 C 239.069 142.347,238.959 142.545,238.861 142.825 M238.310 144.710 C 238.380 144.780,241.245 144.818,244.677 144.794 L 250.917 144.750 244.550 144.667 C 241.048 144.621,238.240 144.641,238.310 144.710 " stroke="none" fill="#646464" fill-rule="evenodd"></path><path id="path4" d="M247.333 4.436 C 233.114 6.200,222.471 15.605,219.188 29.307 C 218.755 31.115,218.717 31.064,220.887 31.572 C 221.912 31.812,223.012 32.079,223.333 32.164 C 223.654 32.250,224.292 32.401,224.750 32.501 C 225.208 32.601,226.296 32.858,227.167 33.073 C 229.007 33.526,229.026 33.518,229.309 32.135 C 229.428 31.557,229.594 30.911,229.679 30.700 C 230.044 29.795,229.887 29.361,229.125 29.163 C 228.735 29.061,228.192 28.915,227.917 28.838 C 227.642 28.761,226.685 28.526,225.792 28.316 C 224.040 27.905,223.971 27.836,224.354 26.883 C 224.457 26.626,224.596 26.267,224.663 26.083 C 229.127 13.881,242.593 6.635,256.051 9.195 C 258.073 9.580,258.657 9.510,256.850 9.099 C 244.322 6.249,231.471 12.179,225.639 23.500 C 224.250 26.196,223.719 27.806,224.133 28.063 C 224.351 28.197,227.861 29.086,228.807 29.245 C 229.735 29.402,229.749 29.466,229.273 31.424 L 228.871 33.083 228.332 33.057 C 227.838 33.032,221.469 31.558,219.918 31.109 C 218.946 30.828,218.970 30.486,220.258 26.333 C 225.469 9.533,243.926 0.600,261.417 6.414 C 267.447 8.419,274.296 14.024,277.714 19.752 C 278.997 21.904,280.529 25.374,281.098 27.417 C 281.510 28.898,281.506 28.904,279.958 29.310 C 277.756 29.888,277.813 29.911,277.272 28.208 C 274.843 20.557,269.802 14.676,262.667 11.169 C 261.202 10.450,258.347 9.431,258.202 9.576 C 258.156 9.622,258.223 9.690,258.351 9.728 C 261.339 10.620,266.192 13.067,267.588 14.386 C 267.703 14.495,268.425 15.146,269.194 15.833 C 272.970 19.213,275.572 23.382,277.178 28.631 C 277.635 30.123,277.594 30.098,279.054 29.747 C 282.024 29.033,281.925 29.225,280.887 26.167 C 278.792 20.000,275.420 15.302,269.852 10.788 C 266.963 8.446,262.199 6.223,257.750 5.141 C 255.338 4.554,249.542 4.162,247.333 4.436 M247.917 18.537 C 240.214 19.997,234.789 24.859,233.064 31.848 C 232.449 34.339,232.444 34.326,234.250 34.757 C 238.249 35.712,240.295 36.196,242.667 36.750 C 244.088 37.081,245.512 37.422,245.833 37.508 C 246.914 37.796,251.245 38.802,251.833 38.902 C 253.287 39.148,251.492 38.637,248.083 37.835 C 246.067 37.360,243.367 36.722,242.083 36.417 C 240.800 36.112,238.222 35.500,236.355 35.056 C 232.477 34.135,232.679 34.308,233.150 32.328 C 234.907 24.933,240.177 20.127,248.042 18.742 C 250.631 18.287,254.758 18.750,256.917 19.739 C 257.192 19.865,257.717 20.092,258.083 20.242 C 262.172 21.924,266.389 26.855,267.587 31.355 L 267.793 32.127 267.188 32.313 C 264.324 33.194,264.066 33.143,263.571 31.600 C 262.701 28.890,260.039 25.736,257.333 24.211 C 256.270 23.611,253.490 22.661,252.853 22.679 C 252.613 22.686,253.088 22.875,253.909 23.100 C 256.564 23.828,259.289 25.460,260.724 27.181 C 262.115 28.849,263.349 31.119,263.730 32.708 C 263.858 33.245,264.142 33.282,265.507 32.936 C 266.007 32.810,266.690 32.658,267.025 32.599 C 268.200 32.391,268.165 31.646,266.849 28.830 C 263.482 21.622,255.250 17.147,247.917 18.537 M249.542 22.623 C 250.069 22.656,250.931 22.656,251.458 22.623 C 251.985 22.590,251.554 22.563,250.500 22.563 C 249.446 22.563,249.015 22.590,249.542 22.623 M246.390 23.079 C 243.142 24.160,240.626 26.055,238.841 28.765 C 237.309 31.091,237.337 31.311,239.215 31.746 C 239.876 31.899,241.017 32.166,241.750 32.340 C 244.529 33.000,249.499 34.177,251.583 34.669 C 254.836 35.436,255.535 35.602,258.167 36.233 C 259.496 36.551,261.408 37.006,262.417 37.244 C 269.033 38.804,268.347 38.399,267.840 40.450 C 266.473 45.985,263.132 50.123,258.102 52.513 C 252.350 55.245,244.770 54.524,239.838 50.776 C 238.236 49.558,235.500 46.601,235.500 46.087 C 235.500 46.035,235.307 45.701,235.071 45.344 C 234.408 44.343,233.333 41.725,233.333 41.112 L 233.333 40.562 234.998 40.175 C 236.856 39.743,237.059 39.792,237.233 40.714 C 238.186 45.784,244.396 50.247,250.500 50.249 C 252.731 50.250,253.144 50.184,255.244 49.491 C 258.438 48.437,262.616 44.503,263.258 41.945 C 263.382 41.451,263.533 41.509,259.963 40.672 C 258.379 40.301,256.125 39.767,254.954 39.486 C 253.784 39.205,252.741 39.003,252.637 39.038 C 252.533 39.072,252.891 39.202,253.432 39.325 C 253.974 39.449,254.829 39.655,255.333 39.783 C 255.838 39.911,256.887 40.157,257.667 40.329 C 259.931 40.831,263.004 41.615,263.107 41.718 C 263.208 41.820,262.411 43.303,261.654 44.424 C 260.854 45.607,258.958 47.344,257.575 48.162 C 256.383 48.866,255.793 49.113,253.500 49.865 C 252.621 50.154,248.449 50.102,247.333 49.789 C 242.325 48.385,238.684 45.023,237.423 40.640 C 237.105 39.533,237.015 39.480,235.917 39.747 C 235.458 39.858,234.644 40.049,234.108 40.172 C 232.915 40.444,232.864 40.562,233.324 41.966 C 239.081 59.529,264.168 58.107,268.166 39.992 C 268.530 38.342,268.945 38.568,263.000 37.184 C 262.129 36.981,260.667 36.635,259.750 36.415 C 256.321 35.592,253.049 34.812,252.000 34.568 C 251.404 34.429,250.317 34.172,249.583 33.998 C 245.570 33.043,243.168 32.473,242.500 32.319 C 242.088 32.224,241.487 32.079,241.167 31.997 C 240.846 31.915,240.021 31.713,239.333 31.547 C 237.777 31.172,237.727 31.002,238.690 29.332 C 240.439 26.299,243.629 23.984,247.417 22.999 C 248.179 22.800,248.410 22.693,248.083 22.688 C 247.808 22.685,247.046 22.860,246.390 23.079 M272.081 39.460 C 271.765 39.690,270.996 43.229,271.218 43.431 C 271.327 43.530,272.279 43.813,273.333 44.059 C 277.271 44.979,276.988 44.779,276.490 46.296 C 273.946 54.038,268.243 64.176,260.717 74.333 C 260.140 75.112,259.602 75.830,259.523 75.928 C 259.443 76.025,258.603 77.113,257.657 78.344 C 254.531 82.411,250.787 86.833,250.469 86.833 C 250.179 86.833,247.829 84.074,243.798 79.000 C 242.772 77.708,238.867 72.459,237.986 71.188 C 236.179 68.579,235.837 68.073,235.777 67.917 C 235.741 67.825,235.669 67.789,235.616 67.837 C 235.511 67.933,235.713 68.245,237.872 71.334 C 239.823 74.124,240.923 75.640,241.375 76.161 C 241.581 76.398,242.199 77.190,242.747 77.921 C 244.824 80.691,249.564 86.433,250.224 86.979 C 250.591 87.283,250.600 87.274,253.052 84.368 C 260.228 75.863,267.581 65.361,271.455 58.083 C 274.395 52.561,277.253 45.734,276.953 44.952 C 276.861 44.712,276.631 44.639,273.710 43.928 C 272.065 43.528,271.333 43.261,271.333 43.060 C 271.333 42.916,271.853 40.644,271.996 40.167 C 272.145 39.664,272.555 39.664,274.583 40.164 C 275.317 40.345,276.629 40.654,277.500 40.849 C 281.920 41.842,281.911 41.839,281.695 42.765 C 280.286 48.787,278.163 53.986,274.008 61.583 C 273.707 62.133,273.320 62.782,273.147 63.026 C 272.975 63.269,272.833 63.514,272.833 63.569 C 272.833 64.155,265.594 74.853,262.286 79.155 C 260.627 81.312,256.914 85.938,255.924 87.080 C 255.370 87.719,254.729 88.466,254.500 88.738 C 253.433 90.006,250.760 92.872,250.578 92.942 C 250.347 93.030,249.150 91.822,247.083 89.415 C 246.533 88.774,245.944 88.100,245.774 87.917 C 245.604 87.733,244.818 86.796,244.028 85.833 C 243.238 84.871,242.548 84.046,242.494 84.000 C 242.441 83.954,241.700 83.017,240.849 81.917 C 239.998 80.817,239.178 79.767,239.026 79.583 C 238.874 79.400,238.007 78.237,237.099 77.000 C 236.192 75.762,235.170 74.375,234.829 73.917 C 233.727 72.434,231.441 68.981,229.808 66.333 C 227.216 62.129,225.957 59.886,224.380 56.657 C 222.280 52.357,220.112 46.720,219.762 44.648 C 219.631 43.872,219.780 43.759,221.354 43.435 C 222.052 43.290,222.744 43.127,222.890 43.070 C 223.216 42.945,223.429 43.405,224.170 45.833 C 225.229 49.304,227.880 55.304,229.914 58.833 C 231.594 61.748,231.912 62.293,232.250 62.833 C 234.326 66.154,234.903 67.045,235.187 67.371 L 235.519 67.750 235.317 67.333 C 235.205 67.104,234.688 66.279,234.167 65.500 C 231.041 60.828,227.590 54.323,225.634 49.418 C 224.799 47.321,223.667 43.870,223.667 43.418 C 223.667 42.752,222.827 42.792,219.887 43.600 C 219.059 43.827,219.816 46.615,222.373 52.750 C 222.831 53.850,223.304 54.938,223.423 55.167 C 223.542 55.396,224.130 56.568,224.729 57.771 C 225.327 58.974,226.046 60.346,226.325 60.820 C 226.605 61.294,226.833 61.709,226.833 61.744 C 226.833 61.778,227.161 62.356,227.561 63.028 C 233.407 72.850,239.853 81.550,248.750 91.630 C 249.632 92.629,250.207 93.144,250.448 93.153 C 250.882 93.169,252.677 91.205,258.035 84.853 C 258.630 84.147,262.565 79.112,263.259 78.167 C 264.611 76.328,265.777 74.737,266.191 74.167 C 267.009 73.042,270.508 67.834,270.977 67.046 C 271.237 66.608,271.948 65.438,272.558 64.445 C 273.168 63.453,273.667 62.619,273.667 62.592 C 273.667 62.565,274.085 61.804,274.596 60.901 C 277.602 55.594,280.713 48.161,281.496 44.417 C 281.573 44.050,281.744 43.358,281.876 42.878 C 282.131 41.952,281.946 41.500,281.312 41.500 C 281.176 41.500,280.170 41.282,279.075 41.016 C 277.979 40.750,276.093 40.299,274.883 40.014 C 273.673 39.729,272.586 39.460,272.467 39.416 C 272.348 39.373,272.174 39.392,272.081 39.460 M48.461 76.121 C 48.761 76.158,49.211 76.157,49.461 76.119 C 49.712 76.081,49.467 76.051,48.917 76.052 C 48.367 76.053,48.162 76.084,48.461 76.121 M209.958 76.121 C 210.256 76.158,210.744 76.158,211.042 76.121 C 211.340 76.084,211.096 76.053,210.500 76.053 C 209.904 76.053,209.660 76.084,209.958 76.121 M51.042 76.282 C 51.202 76.323,51.465 76.323,51.625 76.282 C 51.785 76.240,51.654 76.205,51.333 76.205 C 51.012 76.205,50.881 76.240,51.042 76.282 M212.460 76.285 C 212.668 76.324,212.968 76.323,213.127 76.281 C 213.286 76.239,213.117 76.207,212.750 76.209 C 212.383 76.211,212.253 76.245,212.460 76.285 M43.023 76.858 C 42.715 76.946,42.496 77.051,42.535 77.091 C 42.575 77.130,42.939 77.059,43.345 76.931 C 44.174 76.671,43.894 76.607,43.023 76.858 M183.743 83.917 C 183.743 87.675,183.765 89.236,183.791 87.386 C 183.818 85.536,183.818 82.461,183.792 80.553 C 183.765 78.645,183.743 80.158,183.743 83.917 M222.333 79.722 C 222.333 79.768,222.633 80.043,223.000 80.333 C 223.367 80.624,223.667 80.824,223.667 80.778 C 223.667 80.732,223.367 80.457,223.000 80.167 C 222.633 79.876,222.333 79.676,222.333 79.722 M35.242 81.208 L 34.583 81.917 35.292 81.258 C 35.950 80.645,36.077 80.500,35.950 80.500 C 35.923 80.500,35.605 80.819,35.242 81.208 M63.000 81.583 C 63.591 82.179,64.111 82.667,64.157 82.667 C 64.203 82.667,63.757 82.179,63.167 81.583 C 62.576 80.987,62.055 80.500,62.010 80.500 C 61.964 80.500,62.409 80.987,63.000 81.583 M48.295 87.787 C 48.594 87.825,49.044 87.824,49.295 87.786 C 49.545 87.748,49.300 87.717,48.750 87.718 C 48.200 87.719,47.995 87.750,48.295 87.787 M209.628 87.787 C 209.928 87.825,210.378 87.824,210.628 87.786 C 210.878 87.748,210.633 87.717,210.083 87.718 C 209.533 87.719,209.328 87.750,209.628 87.787 M207.310 88.510 L 206.917 88.853 207.417 88.560 C 208.075 88.175,208.085 88.167,207.880 88.167 C 207.783 88.167,207.527 88.321,207.310 88.510 M95.958 89.287 C 96.256 89.324,96.744 89.324,97.042 89.287 C 97.340 89.250,97.096 89.220,96.500 89.220 C 95.904 89.220,95.660 89.250,95.958 89.287 M213.850 89.740 C 214.042 90.066,214.232 90.333,214.271 90.333 C 214.389 90.333,213.848 89.362,213.668 89.251 C 213.575 89.193,213.657 89.414,213.850 89.740 M296.042 89.288 C 296.385 89.324,296.948 89.324,297.292 89.288 C 297.635 89.252,297.354 89.223,296.667 89.223 C 295.979 89.223,295.698 89.252,296.042 89.288 M337.788 89.287 C 338.084 89.324,338.609 89.324,338.955 89.288 C 339.300 89.252,339.058 89.222,338.417 89.221 C 337.775 89.221,337.492 89.250,337.788 89.287 M94.042 89.448 C 94.202 89.490,94.465 89.490,94.625 89.448 C 94.785 89.406,94.654 89.372,94.333 89.372 C 94.013 89.372,93.881 89.406,94.042 89.448 M98.375 89.453 C 98.627 89.491,99.040 89.491,99.292 89.453 C 99.544 89.415,99.337 89.383,98.833 89.383 C 98.329 89.383,98.123 89.415,98.375 89.453 M140.701 89.457 C 141.316 89.489,142.366 89.489,143.034 89.457 C 143.703 89.426,143.200 89.399,141.917 89.399 C 140.633 89.399,140.086 89.425,140.701 89.457 M294.208 89.448 C 294.369 89.490,294.631 89.490,294.792 89.448 C 294.952 89.406,294.821 89.372,294.500 89.372 C 294.179 89.372,294.048 89.406,294.208 89.448 M335.708 89.453 C 335.960 89.491,336.373 89.491,336.625 89.453 C 336.877 89.415,336.671 89.383,336.167 89.383 C 335.662 89.383,335.456 89.415,335.708 89.453 M340.458 89.451 C 340.665 89.491,341.002 89.491,341.208 89.451 C 341.415 89.411,341.246 89.379,340.833 89.379 C 340.421 89.379,340.252 89.411,340.458 89.451 M52.583 90.000 C 52.726 90.275,52.879 90.500,52.925 90.500 C 52.971 90.500,52.892 90.275,52.750 90.000 C 52.608 89.725,52.454 89.500,52.408 89.500 C 52.362 89.500,52.441 89.725,52.583 90.000 M90.574 90.259 C 90.255 90.514,90.255 90.516,90.583 90.365 C 90.767 90.281,91.029 90.170,91.167 90.119 C 91.383 90.039,91.381 90.025,91.157 90.013 C 91.014 90.006,90.751 90.117,90.574 90.259 M228.542 90.917 C 228.544 91.283,228.578 91.414,228.618 91.206 C 228.658 90.999,228.656 90.699,228.615 90.540 C 228.573 90.380,228.540 90.550,228.542 90.917 M72.244 90.875 C 72.200 90.990,72.184 103.158,72.207 117.917 L 72.250 144.750 72.333 117.708 C 72.379 102.835,72.396 90.667,72.370 90.667 C 72.344 90.667,72.287 90.760,72.244 90.875 M83.703 92.782 C 83.662 95.267,83.723 95.398,84.515 94.535 L 85.083 93.917 84.463 94.486 L 83.843 95.056 83.791 92.819 L 83.739 90.583 83.703 92.782 M274.247 111.000 C 274.247 122.229,274.267 126.823,274.292 121.208 C 274.316 115.594,274.316 106.406,274.292 100.792 C 274.267 95.177,274.247 99.771,274.247 111.000 M285.536 92.708 C 285.503 94.636,285.527 94.833,285.792 94.831 C 285.993 94.829,286.021 94.788,285.881 94.699 C 285.745 94.613,285.660 93.909,285.625 92.577 L 285.572 90.583 285.536 92.708 M30.226 92.250 C 30.225 93.075,30.254 93.434,30.288 93.047 C 30.323 92.660,30.324 91.985,30.289 91.547 C 30.255 91.109,30.226 91.425,30.226 92.250 M44.053 92.000 C 44.053 92.596,44.084 92.840,44.121 92.542 C 44.158 92.244,44.158 91.756,44.121 91.458 C 44.084 91.160,44.053 91.404,44.053 92.000 M67.212 91.833 C 67.212 92.246,67.245 92.415,67.284 92.208 C 67.324 92.002,67.324 91.665,67.284 91.458 C 67.245 91.252,67.212 91.421,67.212 91.833 M205.379 91.833 C 205.379 92.246,205.411 92.415,205.451 92.208 C 205.491 92.002,205.491 91.665,205.451 91.458 C 205.411 91.252,205.379 91.421,205.379 91.833 M348.167 91.408 C 348.167 91.454,348.392 91.608,348.667 91.750 C 348.942 91.892,349.167 91.971,349.167 91.925 C 349.167 91.879,348.942 91.726,348.667 91.583 C 348.392 91.441,348.167 91.362,348.167 91.408 M191.553 92.500 C 191.553 93.096,191.584 93.340,191.621 93.042 C 191.658 92.744,191.658 92.256,191.621 91.958 C 191.584 91.660,191.553 91.904,191.553 92.500 M53.336 92.097 C 53.337 92.273,53.415 92.529,53.508 92.667 C 53.631 92.849,53.647 92.782,53.565 92.417 C 53.428 91.804,53.332 91.671,53.336 92.097 M287.491 92.625 L 286.917 93.250 287.542 92.676 C 288.123 92.141,288.243 92.000,288.116 92.000 C 288.088 92.000,287.807 92.281,287.491 92.625 M86.058 92.936 L 85.250 93.705 86.000 93.079 C 87.006 92.239,87.083 92.167,86.966 92.167 C 86.911 92.167,86.502 92.513,86.058 92.936 M270.028 93.825 C 269.930 94.105,269.886 94.333,269.929 94.333 C 270.042 94.333,270.356 93.468,270.274 93.385 C 270.236 93.347,270.125 93.545,270.028 93.825 M44.334 93.764 C 44.335 93.848,44.528 94.142,44.765 94.417 L 45.194 94.917 44.818 94.333 C 44.335 93.585,44.333 93.583,44.334 93.764 M110.000 94.750 C 110.591 95.346,111.111 95.833,111.157 95.833 C 111.203 95.833,110.757 95.346,110.167 94.750 C 109.576 94.154,109.055 93.667,109.010 93.667 C 108.964 93.667,109.409 94.154,110.000 94.750 M206.075 94.327 C 206.376 94.812,206.918 95.367,207.417 95.699 C 207.863 95.996,207.855 95.979,207.350 95.541 C 207.038 95.271,206.588 94.830,206.350 94.560 C 206.112 94.291,205.988 94.186,206.075 94.327 M352.667 94.219 C 352.667 94.248,352.910 94.491,353.208 94.760 L 353.750 95.250 353.260 94.708 C 352.804 94.203,352.667 94.090,352.667 94.219 M45.583 95.307 C 45.764 95.522,46.064 95.775,46.248 95.869 C 46.602 96.050,46.551 95.995,45.751 95.331 C 45.270 94.931,45.264 94.930,45.583 95.307 M125.491 96.292 L 124.917 96.917 125.542 96.342 C 126.123 95.808,126.243 95.667,126.116 95.667 C 126.088 95.667,125.807 95.948,125.491 96.292 M158.250 96.500 C 158.608 96.867,158.938 97.167,158.984 97.167 C 159.030 97.167,158.775 96.867,158.417 96.500 C 158.059 96.133,157.728 95.833,157.682 95.833 C 157.637 95.833,157.892 96.133,158.250 96.500 M111.740 96.721 C 111.996 97.058,112.240 97.333,112.281 97.333 C 112.397 97.333,111.675 96.358,111.462 96.227 C 111.358 96.162,111.483 96.385,111.740 96.721 M355.167 96.750 C 355.478 97.071,355.770 97.333,355.815 97.333 C 355.861 97.333,355.644 97.071,355.333 96.750 C 355.022 96.429,354.730 96.167,354.685 96.167 C 354.639 96.167,354.856 96.429,355.167 96.750 M209.833 97.075 C 209.833 97.121,210.058 97.274,210.333 97.417 C 210.608 97.559,210.833 97.638,210.833 97.592 C 210.833 97.546,210.608 97.392,210.333 97.250 C 210.058 97.108,209.833 97.029,209.833 97.075 M50.333 98.083 C 50.563 98.214,50.825 98.322,50.917 98.322 C 51.008 98.322,50.896 98.214,50.667 98.083 C 50.438 97.952,50.175 97.845,50.083 97.845 C 49.992 97.845,50.104 97.952,50.333 98.083 M160.167 99.000 C 160.362 99.275,160.560 99.500,160.606 99.500 C 160.652 99.500,160.529 99.275,160.333 99.000 C 160.138 98.725,159.940 98.500,159.894 98.500 C 159.848 98.500,159.971 98.725,160.167 99.000 M213.167 98.750 C 213.396 98.881,213.658 98.988,213.750 98.988 C 213.842 98.988,213.729 98.881,213.500 98.750 C 213.271 98.619,213.008 98.512,212.917 98.512 C 212.825 98.512,212.938 98.619,213.167 98.750 M122.731 99.922 C 122.579 100.154,122.485 100.374,122.522 100.411 C 122.559 100.448,122.716 100.258,122.870 99.989 C 123.214 99.390,123.112 99.340,122.731 99.922 M166.417 99.947 C 168.845 100.067,171.501 100.073,171.500 99.958 C 171.500 99.890,170.131 99.848,168.458 99.865 C 166.785 99.883,165.867 99.920,166.417 99.947 M183.745 100.042 C 183.612 100.397,183.576 131.306,183.708 131.224 C 183.777 131.182,183.833 124.141,183.833 115.577 L 183.833 100.008 186.708 99.958 L 189.583 99.908 186.703 99.871 C 184.524 99.842,183.804 99.884,183.745 100.042 M122.075 101.182 C 121.929 101.466,121.838 101.727,121.875 101.763 C 121.911 101.800,122.065 101.568,122.217 101.248 C 122.560 100.529,122.441 100.474,122.075 101.182 M141.377 100.786 C 141.631 100.825,142.006 100.824,142.211 100.784 C 142.416 100.744,142.208 100.713,141.750 100.714 C 141.292 100.716,141.124 100.748,141.377 100.786 M293.044 100.786 C 293.297 100.825,293.672 100.824,293.877 100.784 C 294.082 100.744,293.875 100.713,293.417 100.714 C 292.958 100.716,292.791 100.748,293.044 100.786 M91.333 101.002 C 91.157 101.118,91.256 101.134,91.667 101.059 C 92.385 100.927,92.521 100.832,91.986 100.836 C 91.765 100.837,91.471 100.912,91.333 101.002 M195.417 101.833 C 195.961 102.383,196.444 102.833,196.490 102.833 C 196.535 102.833,196.128 102.383,195.583 101.833 C 195.039 101.283,194.556 100.833,194.510 100.833 C 194.465 100.833,194.872 101.283,195.417 101.833 M294.347 100.893 C 294.385 100.926,294.717 100.999,295.083 101.055 C 295.537 101.125,295.670 101.106,295.500 100.998 C 295.272 100.853,294.185 100.754,294.347 100.893 M288.240 102.542 L 287.750 103.083 288.292 102.594 C 288.797 102.138,288.910 102.000,288.781 102.000 C 288.752 102.000,288.509 102.244,288.240 102.542 M99.500 102.227 C 99.500 102.273,99.725 102.471,100.000 102.667 C 100.275 102.862,100.500 102.985,100.500 102.939 C 100.500 102.894,100.275 102.696,100.000 102.500 C 99.725 102.304,99.500 102.181,99.500 102.227 M318.491 102.606 C 318.399 102.848,318.355 103.077,318.393 103.115 C 318.431 103.153,318.541 102.955,318.639 102.675 C 318.855 102.053,318.725 101.993,318.491 102.606 M86.991 103.625 L 86.417 104.250 87.042 103.676 C 87.385 103.360,87.667 103.078,87.667 103.051 C 87.667 102.923,87.526 103.043,86.991 103.625 M298.929 104.333 C 298.990 104.563,299.110 104.862,299.195 105.000 C 299.302 105.174,299.315 105.123,299.238 104.833 C 299.176 104.604,299.057 104.304,298.972 104.167 C 298.865 103.993,298.851 104.044,298.929 104.333 M225.250 105.833 C 225.794 106.383,226.277 106.833,226.323 106.833 C 226.369 106.833,225.961 106.383,225.417 105.833 C 224.872 105.283,224.390 104.833,224.344 104.833 C 224.298 104.833,224.706 105.283,225.250 105.833 M265.360 106.257 C 265.081 106.870,265.134 107.001,265.436 106.444 C 265.577 106.183,265.662 105.939,265.623 105.901 C 265.585 105.863,265.467 106.023,265.360 106.257 M347.498 106.127 L 347.681 106.504 353.796 106.460 C 359.773 106.418,359.913 106.409,359.947 106.083 C 359.973 105.824,359.962 105.815,359.895 106.042 C 359.815 106.312,359.379 106.333,353.798 106.333 C 348.274 106.333,347.768 106.310,347.551 106.042 C 347.338 105.779,347.333 105.787,347.498 106.127 M103.012 106.083 C 103.012 106.175,103.119 106.438,103.250 106.667 C 103.381 106.896,103.488 107.008,103.488 106.917 C 103.488 106.825,103.381 106.563,103.250 106.333 C 103.119 106.104,103.012 105.992,103.012 106.083 M253.019 106.685 C 252.916 106.980,252.861 107.250,252.897 107.286 C 252.932 107.321,253.045 107.109,253.148 106.815 C 253.251 106.520,253.306 106.250,253.270 106.214 C 253.234 106.179,253.121 106.391,253.019 106.685 M286.539 107.000 C 286.539 107.321,286.573 107.452,286.615 107.292 C 286.657 107.131,286.657 106.869,286.615 106.708 C 286.573 106.548,286.539 106.679,286.539 107.000 M299.539 107.333 C 299.539 107.654,299.573 107.785,299.615 107.625 C 299.657 107.465,299.657 107.202,299.615 107.042 C 299.573 106.881,299.539 107.013,299.539 107.333 M235.861 107.509 C 235.959 107.788,236.069 107.986,236.107 107.948 C 236.190 107.866,235.875 107.000,235.763 107.000 C 235.719 107.000,235.764 107.229,235.861 107.509 M205.977 108.090 C 206.286 108.224,206.586 108.331,206.644 108.327 C 206.861 108.315,205.907 107.845,205.667 107.846 C 205.529 107.846,205.669 107.956,205.977 108.090 M120.042 108.583 C 120.044 108.950,120.078 109.080,120.118 108.873 C 120.158 108.666,120.156 108.366,120.115 108.206 C 120.073 108.047,120.040 108.217,120.042 108.583 M163.542 108.583 C 163.544 108.950,163.578 109.080,163.618 108.873 C 163.658 108.666,163.656 108.366,163.615 108.206 C 163.573 108.047,163.540 108.217,163.542 108.583 M286.412 119.667 C 286.412 126.037,286.433 128.644,286.458 125.458 C 286.484 122.273,286.484 117.060,286.458 113.875 C 286.433 110.690,286.412 113.296,286.412 119.667 M317.055 109.583 C 317.055 110.225,317.086 110.467,317.122 110.121 C 317.158 109.775,317.157 109.250,317.120 108.955 C 317.083 108.659,317.054 108.942,317.055 109.583 M329.381 109.583 C 329.382 110.042,329.415 110.209,329.453 109.956 C 329.491 109.703,329.490 109.328,329.451 109.123 C 329.411 108.918,329.380 109.125,329.381 109.583 M248.861 109.675 C 248.959 109.955,249.069 110.153,249.107 110.115 C 249.190 110.032,248.875 109.167,248.763 109.167 C 248.719 109.167,248.764 109.395,248.861 109.675 M116.387 110.333 C 116.387 110.929,116.417 111.173,116.454 110.875 C 116.491 110.577,116.491 110.090,116.454 109.792 C 116.417 109.494,116.387 109.737,116.387 110.333 M104.224 111.083 C 104.224 111.817,104.254 112.096,104.289 111.704 C 104.324 111.312,104.324 110.712,104.288 110.371 C 104.252 110.029,104.223 110.350,104.224 111.083 M251.519 111.185 C 251.416 111.480,251.361 111.750,251.397 111.786 C 251.432 111.821,251.545 111.609,251.648 111.315 C 251.751 111.020,251.806 110.750,251.770 110.714 C 251.734 110.679,251.621 110.891,251.519 111.185 M317.055 112.250 C 317.055 112.892,317.086 113.134,317.122 112.788 C 317.158 112.442,317.157 111.917,317.120 111.621 C 317.083 111.325,317.054 111.608,317.055 112.250 M329.385 112.250 C 329.386 112.800,329.417 113.005,329.454 112.705 C 329.491 112.406,329.490 111.956,329.452 111.705 C 329.414 111.455,329.384 111.700,329.385 112.250 M116.387 112.500 C 116.387 113.096,116.417 113.340,116.454 113.042 C 116.491 112.744,116.491 112.256,116.454 111.958 C 116.417 111.660,116.387 111.904,116.387 112.500 M213.333 111.719 C 213.333 111.748,213.577 111.991,213.875 112.260 L 214.417 112.750 213.927 112.208 C 213.471 111.703,213.333 111.590,213.333 111.719 M228.695 111.833 C 228.703 112.266,228.966 112.978,228.972 112.583 C 228.974 112.400,228.912 112.100,228.833 111.917 C 228.746 111.712,228.692 111.680,228.695 111.833 M263.028 112.491 C 262.930 112.771,262.886 113.000,262.929 113.000 C 263.042 113.000,263.356 112.134,263.274 112.052 C 263.236 112.014,263.125 112.212,263.028 112.491 M163.542 113.250 C 163.544 113.617,163.578 113.747,163.618 113.540 C 163.658 113.332,163.656 113.032,163.615 112.873 C 163.573 112.714,163.540 112.883,163.542 113.250 M120.039 113.500 C 120.039 113.821,120.073 113.952,120.115 113.792 C 120.157 113.631,120.157 113.369,120.115 113.208 C 120.073 113.048,120.039 113.179,120.039 113.500 M250.740 113.563 C 250.680 113.802,250.564 113.956,250.482 113.906 C 250.400 113.855,250.333 113.893,250.333 113.990 C 250.333 114.087,250.410 114.167,250.504 114.167 C 250.691 114.167,251.059 113.337,250.929 113.207 C 250.886 113.163,250.800 113.323,250.740 113.563 M29.235 113.562 C 29.187 113.687,29.172 114.193,29.202 114.687 L 29.256 115.583 29.336 114.458 C 29.417 113.325,29.397 113.141,29.235 113.562 M190.729 115.083 C 190.729 116.092,190.757 116.483,190.790 115.952 C 190.823 115.422,190.823 114.597,190.789 114.119 C 190.756 113.641,190.729 114.075,190.729 115.083 M204.496 114.133 L 204.576 114.917 204.633 114.270 C 204.664 113.914,204.628 113.561,204.552 113.486 C 204.477 113.410,204.452 113.702,204.496 114.133 M43.212 114.500 C 43.212 114.912,43.245 115.081,43.284 114.875 C 43.324 114.669,43.324 114.331,43.284 114.125 C 43.245 113.919,43.212 114.087,43.212 114.500 M67.726 115.750 C 67.725 116.575,67.754 116.934,67.788 116.547 C 67.823 116.160,67.824 115.485,67.789 115.047 C 67.755 114.609,67.726 114.925,67.726 115.750 M53.875 115.750 C 53.877 116.117,53.911 116.247,53.951 116.040 C 53.991 115.832,53.990 115.532,53.948 115.373 C 53.906 115.214,53.874 115.383,53.875 115.750 M85.245 116.156 C 85.384 116.425,85.573 116.692,85.666 116.749 C 85.758 116.807,85.676 116.586,85.484 116.260 C 85.062 115.545,84.890 115.470,85.245 116.156 M29.375 116.750 C 29.377 117.117,29.411 117.247,29.451 117.040 C 29.491 116.832,29.490 116.532,29.448 116.373 C 29.406 116.214,29.374 116.383,29.375 116.750 M115.771 116.854 C 115.712 117.147,115.695 117.417,115.733 117.455 C 115.771 117.493,115.853 117.288,115.917 117.000 C 115.980 116.712,115.997 116.441,115.955 116.399 C 115.912 116.357,115.829 116.561,115.771 116.854 M214.875 117.542 C 214.696 118.031,214.700 118.052,214.922 117.760 C 215.134 117.480,215.259 117.000,215.120 117.000 C 215.094 117.000,214.984 117.244,214.875 117.542 M53.360 117.757 C 53.081 118.370,53.134 118.501,53.436 117.944 C 53.577 117.683,53.662 117.439,53.623 117.401 C 53.585 117.363,53.467 117.523,53.360 117.757 M135.167 118.417 C 135.665 118.921,136.109 119.333,136.155 119.333 C 136.201 119.333,135.831 118.921,135.333 118.417 C 134.835 117.912,134.391 117.500,134.345 117.500 C 134.299 117.500,134.669 117.912,135.167 118.417 M87.036 118.417 C 87.468 118.866,87.847 119.200,87.878 119.159 C 87.909 119.117,87.555 118.750,87.092 118.342 L 86.250 117.600 87.036 118.417 M45.167 119.250 C 45.478 119.571,45.770 119.833,45.815 119.833 C 45.861 119.833,45.644 119.571,45.333 119.250 C 45.022 118.929,44.730 118.667,44.685 118.667 C 44.639 118.667,44.856 118.929,45.167 119.250 M191.336 120.264 C 191.337 120.440,191.415 120.696,191.508 120.833 C 191.631 121.016,191.647 120.948,191.565 120.583 C 191.428 119.971,191.332 119.837,191.336 120.264 M319.250 120.667 C 319.392 120.942,319.546 121.167,319.592 121.167 C 319.638 121.167,319.559 120.942,319.417 120.667 C 319.274 120.392,319.121 120.167,319.075 120.167 C 319.029 120.167,319.108 120.392,319.250 120.667 M335.000 120.472 C 335.137 120.557,335.438 120.676,335.667 120.738 C 335.956 120.815,336.007 120.802,335.833 120.695 C 335.696 120.610,335.396 120.490,335.167 120.429 C 334.877 120.351,334.826 120.365,335.000 120.472 M142.294 121.118 C 142.501 121.158,142.801 121.156,142.960 121.115 C 143.120 121.073,142.950 121.040,142.583 121.042 C 142.217 121.044,142.086 121.078,142.294 121.118 M93.375 121.289 C 93.810 121.324,94.523 121.324,94.958 121.289 C 95.394 121.255,95.037 121.227,94.167 121.227 C 93.296 121.227,92.940 121.255,93.375 121.289 M31.340 123.750 C 31.340 123.842,31.494 124.104,31.682 124.333 C 31.908 124.610,31.965 124.638,31.850 124.417 C 31.569 123.873,31.338 123.572,31.340 123.750 M124.333 124.385 C 124.333 124.414,124.577 124.658,124.875 124.927 L 125.417 125.417 124.927 124.875 C 124.471 124.370,124.333 124.257,124.333 124.385 M258.360 124.924 C 258.081 125.537,258.134 125.667,258.436 125.110 C 258.577 124.850,258.662 124.606,258.623 124.568 C 258.585 124.530,258.467 124.690,258.360 124.924 M355.242 125.208 L 354.583 125.917 355.292 125.258 C 355.950 124.645,356.077 124.500,355.950 124.500 C 355.923 124.500,355.605 124.819,355.242 125.208 M126.167 126.417 C 126.478 126.737,126.770 127.000,126.815 127.000 C 126.861 127.000,126.644 126.737,126.333 126.417 C 126.022 126.096,125.730 125.833,125.685 125.833 C 125.639 125.833,125.856 126.096,126.167 126.417 M157.324 126.458 L 156.750 127.083 157.375 126.509 C 157.957 125.974,158.077 125.833,157.949 125.833 C 157.922 125.833,157.640 126.115,157.324 126.458 M33.667 126.917 C 34.165 127.421,34.609 127.833,34.655 127.833 C 34.701 127.833,34.331 127.421,33.833 126.917 C 33.335 126.412,32.891 126.000,32.845 126.000 C 32.799 126.000,33.169 126.412,33.667 126.917 M110.245 127.042 L 109.250 128.083 110.292 127.089 C 110.865 126.541,111.333 126.073,111.333 126.047 C 111.333 125.924,111.169 126.074,110.245 127.042 M63.411 127.208 L 62.417 128.250 63.458 127.255 C 64.031 126.708,64.500 126.239,64.500 126.214 C 64.500 126.090,64.336 126.241,63.411 127.208 M195.160 127.042 C 195.850 127.778,196.000 127.910,196.000 127.785 C 196.000 127.758,195.644 127.402,195.208 126.993 L 194.417 126.250 195.160 127.042 M353.073 127.375 L 352.583 127.917 353.125 127.427 C 353.630 126.971,353.743 126.833,353.615 126.833 C 353.586 126.833,353.342 127.077,353.073 127.375 M84.461 136.317 C 84.437 140.984,84.473 144.767,84.542 144.724 C 84.610 144.682,84.667 140.886,84.667 136.290 L 84.667 127.932 85.375 128.591 L 86.083 129.250 85.425 128.542 C 85.062 128.152,84.707 127.833,84.636 127.833 C 84.564 127.833,84.486 131.651,84.461 136.317 M86.486 129.561 C 86.708 129.834,87.333 130.247,87.333 130.121 C 87.333 130.089,87.090 129.884,86.792 129.666 C 86.456 129.421,86.340 129.381,86.486 129.561 M221.625 129.595 C 221.002 129.933,221.040 130.074,221.667 129.750 C 221.942 129.608,222.167 129.456,222.167 129.412 C 222.167 129.305,222.149 129.311,221.625 129.595 M87.833 130.485 C 88.063 130.673,88.325 130.826,88.417 130.827 C 88.595 130.828,88.294 130.598,87.750 130.317 C 87.529 130.202,87.557 130.259,87.833 130.485 M39.000 130.583 C 39.229 130.714,39.492 130.822,39.583 130.822 C 39.675 130.822,39.563 130.714,39.333 130.583 C 39.104 130.452,38.842 130.345,38.750 130.345 C 38.658 130.345,38.771 130.452,39.000 130.583 M200.167 130.429 C 200.167 130.542,201.032 130.856,201.115 130.774 C 201.153 130.736,200.955 130.625,200.675 130.528 C 200.395 130.430,200.167 130.386,200.167 130.429 M219.667 130.583 C 219.438 130.714,219.325 130.822,219.417 130.822 C 219.508 130.822,219.771 130.714,220.000 130.583 C 220.229 130.452,220.342 130.345,220.250 130.345 C 220.158 130.345,219.896 130.452,219.667 130.583 M243.658 130.940 C 243.566 131.182,243.522 131.410,243.559 131.448 C 243.597 131.486,243.708 131.288,243.805 131.009 C 244.022 130.387,243.891 130.326,243.658 130.940 M256.028 131.158 C 255.930 131.438,255.886 131.667,255.929 131.667 C 256.042 131.667,256.356 130.801,256.274 130.718 C 256.236 130.681,256.125 130.878,256.028 131.158 M41.083 131.333 C 41.267 131.412,41.529 131.477,41.667 131.477 C 41.824 131.477,41.793 131.424,41.583 131.333 C 41.400 131.255,41.137 131.190,41.000 131.190 C 40.842 131.190,40.873 131.243,41.083 131.333 M202.500 131.326 C 202.637 131.419,202.894 131.496,203.069 131.497 C 203.496 131.501,203.363 131.405,202.750 131.268 C 202.385 131.187,202.317 131.202,202.500 131.326 M44.627 132.118 C 44.834 132.158,45.134 132.156,45.294 132.115 C 45.453 132.073,45.283 132.040,44.917 132.042 C 44.550 132.044,44.420 132.078,44.627 132.118 M91.750 132.167 C 91.933 132.245,92.233 132.308,92.417 132.305 C 92.685 132.301,92.668 132.274,92.333 132.167 C 91.763 131.984,91.325 131.984,91.750 132.167 M205.958 132.118 C 206.165 132.157,206.502 132.157,206.708 132.118 C 206.915 132.078,206.746 132.045,206.333 132.045 C 205.921 132.045,205.752 132.078,205.958 132.118 M333.833 132.167 C 334.063 132.240,334.400 132.300,334.583 132.300 C 334.847 132.300,334.830 132.272,334.500 132.167 C 334.271 132.093,333.933 132.033,333.750 132.033 C 333.486 132.033,333.503 132.061,333.833 132.167 M46.211 132.286 C 46.464 132.325,46.839 132.324,47.044 132.284 C 47.249 132.244,47.042 132.213,46.583 132.214 C 46.125 132.216,45.957 132.248,46.211 132.286 M51.127 132.285 C 51.334 132.324,51.634 132.323,51.794 132.281 C 51.953 132.239,51.783 132.207,51.417 132.209 C 51.050 132.211,50.920 132.245,51.127 132.285 M207.544 132.286 C 207.797 132.325,208.172 132.324,208.377 132.284 C 208.582 132.244,208.375 132.213,207.917 132.214 C 207.458 132.216,207.291 132.248,207.544 132.286 M212.460 132.285 C 212.668 132.324,212.968 132.323,213.127 132.281 C 213.286 132.239,213.117 132.207,212.750 132.209 C 212.383 132.211,212.253 132.245,212.460 132.285 M144.127 132.451 C 144.334 132.491,144.634 132.490,144.794 132.448 C 144.953 132.406,144.783 132.374,144.417 132.375 C 144.050 132.377,143.920 132.411,144.127 132.451 M98.375 132.615 C 98.535 132.657,98.798 132.657,98.958 132.615 C 99.119 132.573,98.987 132.539,98.667 132.539 C 98.346 132.539,98.215 132.573,98.375 132.615 M337.542 132.615 C 337.702 132.657,337.965 132.657,338.125 132.615 C 338.285 132.573,338.154 132.539,337.833 132.539 C 337.512 132.539,337.381 132.573,337.542 132.615 M339.125 132.618 C 339.331 132.657,339.669 132.657,339.875 132.618 C 340.081 132.578,339.912 132.545,339.500 132.545 C 339.087 132.545,338.919 132.578,339.125 132.618 M253.695 137.325 C 253.597 137.605,253.553 137.833,253.596 137.833 C 253.709 137.833,254.023 136.968,253.941 136.885 C 253.903 136.847,253.792 137.045,253.695 137.325 M238.163 144.261 C 237.957 144.802,237.959 144.833,238.194 144.833 C 238.301 144.833,238.344 144.788,238.288 144.733 C 238.233 144.678,238.256 144.453,238.340 144.233 C 238.423 144.013,238.454 143.833,238.408 143.833 C 238.363 143.833,238.252 144.026,238.163 144.261 " stroke="none" fill="#8d8d8d" fill-rule="evenodd"></path></g></svg>