<svg id="svg" version="1.1" xmlns="http://www.w3.org/2000/svg" xmlns:xlink="http://www.w3.org/1999/xlink" width="400" height="149.01960784313727" viewBox="0, 0, 400,149.01960784313727"><g id="svgg"><path id="path0" d="M51.917 74.942 C 51.642 74.974,50.704 75.082,49.833 75.183 C 42.801 75.995,35.792 81.577,34.676 87.256 C 34.586 87.711,34.435 88.345,34.340 88.666 C 33.885 90.194,34.315 94.427,35.101 96.167 C 37.217 100.853,40.702 103.651,48.078 106.583 C 49.174 107.019,50.187 107.429,50.328 107.495 C 50.468 107.560,50.921 107.767,51.333 107.955 C 56.708 110.397,58.244 111.929,58.232 114.833 C 58.209 120.151,51.083 122.155,48.236 117.645 C 47.645 116.708,47.000 114.889,47.000 114.158 C 47.000 113.808,46.927 113.329,46.837 113.094 L 46.675 112.667 40.091 112.667 L 33.506 112.667 33.396 113.107 C 33.245 113.710,33.463 117.548,33.681 118.120 C 33.778 118.375,33.928 118.958,34.015 119.417 C 34.608 122.563,37.276 126.281,40.373 128.276 C 47.394 132.799,59.756 132.557,65.968 127.774 C 68.394 125.906,70.736 122.566,71.105 120.449 C 71.156 120.156,71.322 119.542,71.474 119.083 C 71.893 117.820,71.870 112.337,71.440 110.833 C 70.304 106.867,67.683 103.872,63.180 101.397 C 61.160 100.286,59.604 99.517,57.333 98.503 C 50.878 95.624,48.925 94.350,48.132 92.504 C 46.173 87.939,52.603 83.962,56.172 87.531 C 56.809 88.168,57.666 89.888,57.667 90.530 C 57.667 91.511,57.590 91.500,64.575 91.500 C 70.064 91.500,70.988 91.465,71.168 91.248 C 71.439 90.922,71.140 87.537,70.760 86.630 C 70.617 86.290,70.500 85.876,70.500 85.712 C 70.500 84.820,68.162 81.116,66.893 79.997 C 64.943 78.279,61.437 76.274,59.750 75.912 C 59.475 75.853,58.972 75.701,58.632 75.573 C 58.291 75.446,56.925 75.227,55.595 75.087 C 53.215 74.837,52.913 74.825,51.917 74.942 M214.333 75.104 C 213.188 75.231,211.987 75.443,211.667 75.575 C 211.346 75.707,210.821 75.864,210.500 75.924 C 210.179 75.984,209.751 76.138,209.548 76.266 C 209.345 76.395,209.096 76.500,208.995 76.500 C 208.895 76.500,208.348 76.730,207.781 77.012 C 201.929 79.917,198.551 84.652,198.217 90.417 C 198.090 92.599,198.622 95.120,199.637 97.147 C 201.290 100.450,204.695 103.346,209.333 105.395 C 209.929 105.658,210.532 105.930,210.672 105.999 C 210.813 106.068,211.826 106.483,212.922 106.920 C 221.271 110.252,223.716 112.993,221.854 116.930 C 219.224 122.488,211.000 120.152,211.000 113.846 C 211.000 112.572,211.541 112.667,204.238 112.667 C 197.862 112.667,197.673 112.676,197.501 112.998 C 197.270 113.430,197.446 117.154,197.745 118.167 C 197.867 118.579,198.018 119.179,198.081 119.500 C 198.932 123.851,203.121 128.321,208.000 130.083 C 216.824 133.270,228.156 131.087,232.570 125.350 C 235.449 121.609,236.790 115.039,235.500 111.000 C 235.317 110.426,235.167 109.853,235.167 109.727 C 235.167 109.601,234.848 108.881,234.458 108.127 C 232.754 104.827,228.107 101.390,221.399 98.467 C 212.701 94.678,210.634 92.587,212.165 89.126 C 214.101 84.749,221.626 85.738,221.663 90.375 C 221.672 91.505,221.640 91.500,228.625 91.497 C 232.085 91.496,235.022 91.428,235.151 91.347 C 235.339 91.227,235.363 90.861,235.271 89.447 C 234.916 83.945,231.887 79.664,226.503 77.052 C 225.814 76.717,225.063 76.351,224.833 76.237 C 224.604 76.124,224.117 75.976,223.750 75.910 C 223.383 75.843,222.896 75.694,222.667 75.579 C 222.261 75.375,217.789 74.814,216.874 74.853 C 216.623 74.863,215.479 74.976,214.333 75.104 M178.047 75.967 C 177.895 76.064,177.833 77.724,177.797 82.623 C 177.761 87.699,177.702 89.198,177.534 89.367 C 177.379 89.522,176.543 89.598,174.575 89.636 C 172.051 89.685,171.819 89.715,171.658 90.016 C 171.450 90.405,171.509 98.232,171.722 98.445 C 171.798 98.521,173.108 98.621,174.634 98.667 C 177.389 98.749,177.409 98.753,177.618 99.167 C 177.783 99.493,177.829 102.932,177.831 115.042 L 177.833 130.500 183.663 130.500 L 189.493 130.500 189.538 114.859 C 189.576 101.896,189.622 99.171,189.812 98.942 C 190.006 98.709,190.415 98.667,192.489 98.667 C 195.818 98.667,195.515 99.141,195.461 94.000 L 195.417 89.750 192.716 89.667 C 190.819 89.608,189.951 89.519,189.800 89.367 C 189.631 89.199,189.572 87.696,189.534 82.622 C 189.498 77.756,189.434 76.061,189.284 75.966 C 189.021 75.799,178.311 75.800,178.047 75.967 M98.083 88.512 C 97.808 88.592,97.133 88.762,96.583 88.890 C 94.294 89.425,90.966 91.447,89.429 93.237 C 88.348 94.496,88.167 94.295,88.167 91.833 C 88.167 90.932,88.121 90.075,88.066 89.930 C 87.933 89.586,77.375 89.525,77.033 89.867 C 76.635 90.265,76.756 143.947,77.156 144.161 C 77.502 144.346,88.099 144.413,88.570 144.232 C 88.805 144.142,88.833 143.246,88.833 135.836 C 88.833 126.272,88.758 126.709,90.206 127.888 C 92.484 129.744,94.736 130.939,96.667 131.317 C 97.079 131.397,97.811 131.553,98.293 131.662 C 100.496 132.163,105.558 131.689,108.250 130.730 C 111.876 129.439,115.957 125.986,117.985 122.495 C 118.277 121.994,118.584 121.471,118.668 121.333 C 118.752 121.196,119.017 120.633,119.257 120.083 C 119.497 119.533,119.763 118.933,119.849 118.750 C 119.997 118.431,120.349 117.242,120.662 116.000 C 121.410 113.031,121.411 107.476,120.663 104.500 C 120.139 102.416,119.992 101.982,119.136 100.000 C 118.809 99.241,118.737 99.100,118.131 98.019 C 116.087 94.370,112.214 90.937,108.583 89.555 C 105.726 88.467,100.153 87.913,98.083 88.512 M142.833 88.749 C 140.961 89.154,139.557 89.552,138.750 89.908 C 131.558 93.082,127.119 98.470,125.632 105.833 C 125.396 107.004,125.385 112.961,125.617 114.167 C 125.913 115.705,126.333 117.226,126.590 117.692 C 126.724 117.936,126.833 118.209,126.833 118.299 C 126.833 118.458,127.671 120.248,128.059 120.917 C 131.189 126.315,137.138 130.500,142.884 131.347 C 143.544 131.444,144.533 131.592,145.083 131.675 C 147.270 132.006,151.893 131.569,154.000 130.831 C 156.943 129.801,157.988 129.297,160.265 127.812 C 163.059 125.990,167.833 119.903,167.833 118.165 C 167.833 118.062,167.974 117.627,168.146 117.198 C 169.650 113.443,169.638 106.915,168.120 102.667 C 166.012 96.769,162.031 92.606,155.917 89.908 C 152.575 88.434,146.702 87.914,142.833 88.749 M301.583 88.508 C 301.308 88.586,300.671 88.755,300.167 88.885 C 298.129 89.409,296.087 90.857,294.539 92.875 C 293.533 94.186,293.361 93.974,293.291 91.333 L 293.250 89.750 287.750 89.750 L 282.250 89.750 282.250 110.083 L 282.250 130.417 288.118 130.460 L 293.986 130.504 294.046 117.960 C 294.111 104.277,294.098 104.468,295.110 102.629 C 297.437 98.402,304.774 98.270,306.874 102.417 C 307.972 104.587,307.905 103.636,307.964 117.710 L 308.017 130.504 313.967 130.460 L 319.917 130.417 319.917 116.917 C 319.917 102.583,319.831 100.570,319.124 98.333 C 317.069 91.827,311.974 88.310,304.667 88.352 C 303.246 88.361,301.858 88.431,301.583 88.508 M342.750 88.683 C 334.962 90.592,329.216 95.764,326.752 103.083 C 321.651 118.239,335.438 134.648,350.704 131.590 C 351.371 131.457,352.292 131.277,352.750 131.191 C 353.208 131.105,353.846 130.942,354.167 130.829 C 356.126 130.138,357.197 129.693,358.058 129.212 C 358.594 128.912,359.065 128.667,359.105 128.667 C 359.830 128.667,364.533 124.238,365.742 122.418 C 367.365 119.972,369.083 115.873,368.727 115.296 C 368.633 115.144,357.320 115.118,356.926 115.269 C 356.779 115.326,356.389 115.778,356.060 116.274 C 353.708 119.818,349.828 121.338,345.417 120.442 C 337.520 118.840,334.954 107.528,341.180 101.764 C 345.648 97.628,353.607 99.027,356.386 104.438 C 356.534 104.725,356.776 105.006,356.924 105.063 C 357.335 105.221,368.218 105.182,368.471 105.021 C 368.740 104.851,368.514 103.380,368.097 102.583 C 367.953 102.308,367.835 101.992,367.834 101.880 C 367.833 101.686,367.311 100.527,366.986 100.000 C 366.902 99.862,366.760 99.582,366.671 99.376 C 365.521 96.717,361.254 92.608,357.750 90.784 C 353.504 88.574,346.942 87.655,342.750 88.683 M236.833 90.000 C 236.833 90.186,236.906 90.468,236.994 90.627 C 237.083 90.786,237.350 91.442,237.588 92.083 C 237.826 92.725,238.174 93.625,238.363 94.083 C 239.038 95.725,239.322 96.443,240.008 98.250 C 240.392 99.258,240.846 100.392,241.019 100.768 C 241.192 101.145,241.333 101.514,241.333 101.588 C 241.333 101.772,243.312 106.805,243.602 107.359 C 243.729 107.602,243.833 107.894,243.833 108.007 C 243.833 108.121,243.975 108.522,244.147 108.898 C 244.320 109.275,244.774 110.408,245.156 111.417 C 245.539 112.425,245.997 113.571,246.176 113.963 C 246.354 114.355,246.500 114.768,246.500 114.882 C 246.500 114.995,246.650 115.368,246.833 115.710 C 247.017 116.052,247.169 116.426,247.172 116.541 C 247.175 116.656,247.323 117.050,247.500 117.417 C 247.677 117.783,247.825 118.177,247.828 118.292 C 247.831 118.407,247.983 118.781,248.167 119.123 C 248.350 119.465,248.500 119.838,248.500 119.951 C 248.500 120.065,248.646 120.479,248.824 120.871 C 249.003 121.263,249.464 122.408,249.850 123.417 C 250.236 124.425,250.690 125.555,250.859 125.928 C 251.028 126.300,251.167 126.717,251.167 126.854 C 251.167 126.991,251.277 127.249,251.411 127.426 C 251.730 127.848,251.735 129.243,251.419 129.808 C 251.284 130.051,250.833 131.112,250.418 132.167 C 250.003 133.221,249.589 134.214,249.498 134.373 C 249.407 134.532,249.230 134.945,249.105 135.290 C 248.817 136.080,247.731 138.753,247.429 139.417 C 247.304 139.692,247.034 140.329,246.831 140.833 C 246.627 141.337,246.311 142.075,246.128 142.472 C 245.946 142.869,245.786 143.432,245.773 143.722 L 245.750 144.250 251.786 144.294 L 257.823 144.337 258.104 143.909 C 258.258 143.673,258.518 143.091,258.681 142.615 C 258.843 142.139,259.139 141.337,259.337 140.833 C 259.938 139.307,260.508 137.779,260.673 137.250 C 260.758 136.975,260.902 136.600,260.993 136.417 C 261.084 136.233,261.266 135.783,261.398 135.417 C 262.067 133.559,262.200 133.210,262.424 132.725 C 262.558 132.436,262.667 132.137,262.667 132.061 C 262.667 131.985,262.813 131.547,262.992 131.087 C 263.661 129.364,264.725 126.552,265.041 125.667 C 265.221 125.162,265.463 124.525,265.578 124.250 C 265.693 123.975,265.937 123.337,266.121 122.833 C 266.973 120.498,267.392 119.378,267.587 118.917 C 268.009 117.916,268.500 116.573,268.501 116.413 C 268.502 116.324,268.612 116.040,268.746 115.783 C 268.879 115.526,269.061 115.076,269.149 114.783 C 269.237 114.490,269.545 113.650,269.833 112.917 C 270.121 112.183,270.422 111.396,270.503 111.167 C 270.584 110.938,270.847 110.225,271.089 109.583 C 271.330 108.942,271.627 108.117,271.747 107.750 C 271.868 107.383,272.087 106.858,272.233 106.583 C 272.379 106.308,272.498 106.010,272.499 105.920 C 272.500 105.830,272.646 105.380,272.824 104.920 C 273.418 103.383,274.284 101.096,274.749 99.833 C 275.002 99.146,275.304 98.358,275.420 98.083 C 275.536 97.808,275.786 97.151,275.976 96.622 C 276.555 95.009,277.010 93.787,277.326 93.000 C 278.098 91.076,278.333 90.382,278.333 90.038 L 278.333 89.667 272.262 89.667 L 266.191 89.667 265.845 90.106 C 265.655 90.347,265.500 90.657,265.500 90.794 C 265.500 91.008,263.847 96.143,263.314 97.583 C 263.212 97.858,263.028 98.421,262.905 98.833 C 262.606 99.840,262.179 101.081,261.806 102.031 C 261.638 102.460,261.500 102.937,261.500 103.089 C 261.500 103.242,261.397 103.603,261.272 103.891 C 261.146 104.180,260.687 105.542,260.252 106.917 C 259.817 108.292,259.362 109.679,259.240 110.000 C 259.119 110.321,258.972 110.771,258.913 111.000 C 258.431 112.891,257.722 113.671,257.360 112.708 C 256.490 110.392,256.284 109.819,256.084 109.167 C 255.957 108.754,255.507 107.442,255.084 106.250 C 254.661 105.058,254.240 103.786,254.149 103.423 C 254.057 103.060,253.923 102.685,253.851 102.590 C 253.779 102.495,253.471 101.629,253.167 100.667 C 252.862 99.704,252.554 98.839,252.482 98.743 C 252.410 98.648,252.276 98.273,252.184 97.910 C 251.999 97.182,251.408 95.439,251.169 94.917 C 251.085 94.733,250.941 94.321,250.850 94.000 C 250.759 93.679,250.394 92.592,250.039 91.583 L 249.393 89.750 243.113 89.706 C 236.904 89.663,236.833 89.666,236.833 90.000 M101.290 99.684 C 110.324 102.135,112.273 113.923,104.500 119.096 C 97.623 123.673,88.333 118.497,88.333 110.089 C 88.333 103.154,94.835 97.933,101.290 99.684 M149.201 99.674 C 156.989 101.409,160.049 111.336,154.622 117.258 C 148.289 124.170,137.250 119.611,137.250 110.083 C 137.250 103.402,143.093 98.314,149.201 99.674 " stroke="none" fill="#060606" fill-rule="evenodd"></path><path id="path1" d="M0.000 74.500 L 0.000 149.000 200.000 149.000 L 400.000 149.000 400.000 74.500 L 400.000 0.000 200.000 0.000 L 0.000 0.000 0.000 74.500 M264.083 2.190 C 264.908 2.376,266.071 2.670,266.667 2.843 C 267.262 3.016,267.957 3.206,268.210 3.264 C 268.463 3.322,268.711 3.437,268.761 3.518 C 268.812 3.600,268.975 3.667,269.124 3.667 C 269.273 3.667,269.737 3.825,270.156 4.018 C 270.574 4.212,271.329 4.558,271.833 4.787 C 272.337 5.016,272.862 5.268,273.000 5.346 C 273.137 5.425,273.662 5.706,274.167 5.971 C 277.246 7.591,282.831 12.556,283.713 14.458 C 283.809 14.665,283.942 14.833,284.010 14.833 C 284.650 14.833,287.791 20.910,288.993 24.476 C 289.782 26.817,289.401 27.333,286.694 27.592 C 285.279 27.727,285.044 27.597,284.827 26.558 C 283.894 22.103,279.856 15.874,275.808 12.646 C 273.284 10.634,268.772 8.000,267.848 8.000 C 267.700 8.000,267.299 7.850,266.956 7.667 C 266.614 7.483,266.156 7.333,265.938 7.333 C 265.720 7.333,265.214 7.214,264.813 7.069 C 261.804 5.976,254.308 5.948,250.905 7.016 C 250.348 7.190,249.764 7.333,249.607 7.333 C 249.449 7.333,249.026 7.483,248.667 7.667 C 248.307 7.850,247.862 8.000,247.677 8.000 C 247.493 8.000,247.096 8.150,246.796 8.333 C 246.496 8.516,246.160 8.666,246.050 8.666 C 244.071 8.672,234.167 17.281,234.167 18.994 C 234.167 19.067,234.055 19.218,233.919 19.332 C 233.598 19.598,231.943 22.962,231.502 24.245 C 231.075 25.484,231.258 25.742,232.753 26.007 C 233.301 26.104,234.088 26.286,234.500 26.411 C 234.912 26.537,235.535 26.687,235.883 26.745 C 236.930 26.921,237.040 27.837,236.289 30.141 C 235.886 31.378,235.720 31.478,234.688 31.108 C 234.264 30.956,233.692 30.833,233.417 30.835 C 233.142 30.837,232.429 30.694,231.833 30.517 C 231.237 30.341,230.000 30.028,229.083 29.823 C 228.167 29.618,227.151 29.387,226.826 29.311 C 226.075 29.135,225.440 28.561,225.586 28.191 C 225.646 28.040,225.800 27.424,225.927 26.822 C 226.054 26.219,226.273 25.453,226.413 25.119 C 226.552 24.784,226.667 24.358,226.667 24.171 C 226.667 23.985,226.817 23.552,227.000 23.210 C 227.183 22.868,227.334 22.437,227.334 22.252 C 227.335 22.068,227.485 21.692,227.667 21.417 C 227.849 21.142,227.998 20.829,227.999 20.721 C 228.000 20.442,229.865 17.193,230.785 15.866 C 234.459 10.565,239.004 6.840,245.103 4.129 C 246.244 3.622,247.862 3.097,249.583 2.675 C 250.042 2.563,250.829 2.354,251.333 2.211 C 253.527 1.589,261.362 1.576,264.083 2.190 M260.395 16.084 C 262.101 16.324,263.636 16.735,264.775 17.259 C 265.064 17.391,265.411 17.500,265.546 17.500 C 265.682 17.500,265.883 17.610,265.995 17.744 C 266.106 17.877,266.357 18.038,266.553 18.100 C 266.750 18.163,267.099 18.341,267.330 18.497 C 267.561 18.653,268.076 18.996,268.475 19.258 C 270.051 20.295,272.753 23.173,273.395 24.500 C 273.461 24.637,273.698 25.050,273.921 25.417 C 274.317 26.068,274.436 26.306,274.956 27.500 C 276.061 30.035,275.651 30.601,272.475 30.923 C 271.411 31.031,271.362 31.020,271.250 30.643 C 270.211 27.172,267.045 23.285,264.220 22.012 C 263.778 21.814,263.139 21.504,262.800 21.325 C 262.461 21.146,261.994 21.000,261.762 21.000 C 261.530 21.000,261.020 20.869,260.628 20.708 C 260.081 20.484,259.435 20.417,257.833 20.417 C 256.231 20.417,255.586 20.484,255.038 20.708 C 254.647 20.869,254.121 21.000,253.869 21.000 C 253.618 21.000,253.150 21.140,252.831 21.310 C 252.511 21.481,252.077 21.674,251.866 21.741 C 250.530 22.161,247.372 24.836,246.368 26.398 C 244.869 28.729,244.905 28.990,246.775 29.382 C 247.495 29.533,248.571 29.773,249.167 29.916 C 249.762 30.058,250.887 30.310,251.667 30.476 C 252.446 30.641,253.233 30.854,253.417 30.949 C 253.600 31.043,254.188 31.170,254.723 31.230 C 255.258 31.290,255.895 31.441,256.139 31.564 C 256.384 31.687,256.996 31.840,257.500 31.904 C 258.004 31.967,258.754 32.125,259.167 32.254 C 259.579 32.383,260.442 32.610,261.083 32.758 C 262.687 33.128,263.998 33.439,265.667 33.843 C 266.446 34.032,267.458 34.262,267.917 34.353 C 268.375 34.444,269.200 34.665,269.750 34.843 C 270.300 35.021,270.979 35.167,271.259 35.167 C 271.539 35.167,272.214 35.311,272.759 35.487 C 273.304 35.664,274.096 35.854,274.519 35.911 C 276.287 36.147,276.368 37.255,274.893 41.083 C 273.264 45.314,269.841 49.050,266.025 50.762 C 265.507 50.994,264.858 51.293,264.583 51.426 C 262.070 52.644,255.971 53.055,253.380 52.182 C 252.810 51.990,252.224 51.833,252.078 51.833 C 251.582 51.833,248.828 50.490,247.333 49.518 C 245.036 48.025,241.000 43.121,241.000 41.824 C 241.000 41.706,240.888 41.485,240.750 41.334 C 240.613 41.182,240.429 40.726,240.341 40.321 C 240.253 39.915,240.133 39.383,240.073 39.138 C 239.903 38.429,240.958 37.852,242.668 37.720 C 244.159 37.605,244.412 37.714,244.593 38.553 C 245.048 40.669,247.651 44.227,249.812 45.689 C 250.689 46.284,253.224 47.500,253.584 47.500 C 253.726 47.500,254.268 47.650,254.790 47.833 C 255.548 48.100,256.166 48.167,257.863 48.167 C 259.595 48.167,260.144 48.105,260.833 47.833 C 261.298 47.650,261.833 47.500,262.022 47.500 C 262.211 47.500,262.564 47.394,262.808 47.265 C 263.051 47.135,263.651 46.831,264.141 46.588 C 266.111 45.612,267.445 44.498,268.738 42.750 C 270.705 40.089,270.755 39.677,269.149 39.349 C 267.804 39.075,266.094 38.651,265.000 38.322 C 264.404 38.142,263.669 37.996,263.367 37.998 C 263.064 37.999,262.598 37.887,262.330 37.748 C 262.063 37.610,261.410 37.432,260.880 37.352 C 260.350 37.272,259.392 37.077,258.750 36.919 C 257.081 36.506,255.907 36.213,254.667 35.900 C 254.071 35.750,253.200 35.562,252.732 35.482 C 252.264 35.402,251.610 35.223,251.279 35.085 C 250.948 34.946,250.431 34.830,250.130 34.826 C 249.829 34.822,249.283 34.703,248.917 34.562 C 248.550 34.421,247.725 34.209,247.083 34.090 C 245.763 33.845,243.989 33.431,242.735 33.074 C 242.269 32.942,241.781 32.833,241.652 32.832 C 239.826 32.825,239.250 31.677,240.000 29.543 C 240.183 29.022,240.333 28.487,240.333 28.355 C 240.333 27.869,241.663 25.172,242.604 23.750 C 243.644 22.177,247.178 18.833,247.800 18.833 C 247.882 18.833,248.084 18.683,248.250 18.500 C 248.416 18.317,248.671 18.165,248.817 18.163 C 248.964 18.161,249.271 18.013,249.500 17.833 C 249.729 17.654,250.031 17.506,250.171 17.504 C 250.311 17.502,250.578 17.394,250.763 17.264 C 252.239 16.230,257.151 15.629,260.395 16.084 M280.633 37.397 C 280.881 37.524,281.496 37.681,282.000 37.746 C 282.504 37.811,283.124 37.965,283.377 38.087 C 283.630 38.210,284.268 38.357,284.794 38.415 C 285.320 38.472,286.050 38.623,286.417 38.750 C 286.783 38.877,287.528 39.060,288.070 39.157 C 289.623 39.433,289.884 39.676,289.753 40.721 C 289.567 42.216,288.065 47.176,287.319 48.761 C 287.143 49.134,287.000 49.535,287.000 49.652 C 287.000 49.769,286.891 50.064,286.758 50.308 C 286.625 50.551,286.256 51.350,285.940 52.083 C 284.541 55.322,281.614 60.821,279.508 64.167 C 278.081 66.433,274.000 72.530,273.037 73.833 C 272.393 74.704,271.465 75.963,270.975 76.630 C 270.485 77.298,269.596 78.452,269.000 79.195 C 268.404 79.939,267.617 80.942,267.250 81.426 C 264.718 84.763,258.202 92.167,257.797 92.167 C 257.603 92.167,255.610 90.138,254.314 88.623 C 253.747 87.960,252.900 86.974,252.433 86.432 C 251.966 85.891,251.283 85.099,250.917 84.672 C 249.555 83.090,244.679 76.828,243.572 75.241 C 243.128 74.604,242.702 74.008,242.626 73.917 C 242.008 73.174,237.379 66.384,237.114 65.832 C 237.048 65.695,236.790 65.268,236.539 64.883 C 235.728 63.636,234.612 61.773,234.113 60.833 C 233.846 60.329,233.561 59.834,233.481 59.734 C 233.178 59.354,231.229 55.578,230.522 54.000 C 230.420 53.771,230.266 53.471,230.180 53.333 C 229.986 53.023,229.496 51.923,228.919 50.500 C 228.677 49.904,228.371 49.180,228.240 48.891 C 228.108 48.603,228.000 48.281,228.000 48.177 C 228.000 48.072,227.850 47.693,227.667 47.333 C 227.483 46.974,227.333 46.508,227.332 46.298 C 227.332 46.088,227.211 45.692,227.064 45.417 C 226.749 44.828,226.318 43.152,226.278 42.362 C 226.245 41.699,227.353 41.125,229.024 40.939 C 230.263 40.801,230.613 41.074,230.919 42.420 C 231.148 43.428,231.510 44.601,231.920 45.667 C 232.870 48.136,233.067 48.637,233.293 49.159 C 233.732 50.174,236.999 56.716,237.418 57.417 C 237.637 57.783,237.894 58.233,237.989 58.417 C 238.083 58.600,238.350 59.050,238.582 59.417 C 238.813 59.783,239.110 60.314,239.241 60.597 C 239.373 60.879,239.598 61.207,239.740 61.325 C 239.883 61.444,240.000 61.620,240.000 61.717 C 240.000 61.813,240.327 62.385,240.727 62.988 C 243.553 67.243,244.436 68.556,245.166 69.583 C 245.621 70.225,246.089 70.889,246.205 71.058 C 246.798 71.920,249.883 76.001,250.364 76.558 C 250.668 76.910,250.985 77.323,251.070 77.474 C 251.228 77.759,253.157 80.185,253.343 80.333 C 253.400 80.379,253.721 80.777,254.054 81.217 C 254.388 81.658,254.756 82.117,254.872 82.238 C 254.988 82.358,255.641 83.104,256.323 83.895 C 257.005 84.686,257.651 85.333,257.759 85.333 C 257.997 85.333,259.054 84.207,260.497 82.417 C 261.088 81.683,261.615 81.046,261.669 81.000 C 262.315 80.446,269.963 70.350,271.454 68.083 C 271.695 67.717,272.573 66.390,273.405 65.134 C 274.236 63.879,275.217 62.353,275.583 61.742 C 275.950 61.132,276.419 60.374,276.625 60.059 C 276.831 59.743,277.000 59.438,277.000 59.381 C 277.000 59.323,277.102 59.158,277.227 59.013 C 277.351 58.868,277.853 58.000,278.343 57.083 C 278.832 56.167,279.553 54.817,279.946 54.083 C 280.339 53.350,280.741 52.563,280.839 52.333 C 281.070 51.793,281.625 50.552,281.919 49.917 C 282.046 49.642,282.346 48.929,282.585 48.333 C 282.825 47.737,283.129 47.014,283.260 46.725 C 283.392 46.436,283.500 46.097,283.500 45.972 C 283.500 45.847,283.650 45.465,283.833 45.123 C 284.230 44.382,284.288 43.036,283.929 42.898 C 283.798 42.848,283.254 42.707,282.720 42.585 C 282.187 42.463,281.450 42.286,281.083 42.190 C 280.717 42.095,280.135 41.972,279.790 41.917 C 278.700 41.744,278.567 41.319,279.003 39.405 C 279.468 37.364,279.791 36.966,280.633 37.397 M57.250 74.751 C 64.235 76.420,69.822 80.676,70.755 85.039 C 70.819 85.338,70.950 85.680,71.045 85.798 C 71.212 86.005,71.466 87.268,71.851 89.810 C 72.216 92.219,72.374 92.167,64.614 92.164 C 57.873 92.162,57.714 92.141,57.433 91.246 C 56.215 87.361,54.684 86.232,51.570 86.925 C 47.055 87.930,47.233 92.924,51.870 95.346 C 53.572 96.235,56.943 97.833,57.116 97.833 C 57.369 97.833,61.279 99.760,62.917 100.692 C 64.840 101.786,65.051 101.925,66.479 103.024 C 68.873 104.867,70.609 106.966,71.252 108.795 C 71.405 109.229,71.607 109.728,71.701 109.905 C 72.494 111.387,72.465 117.782,71.654 120.209 C 71.477 120.736,71.333 121.245,71.333 121.339 C 71.333 121.615,70.191 123.845,69.570 124.780 C 68.420 126.514,66.030 128.568,63.833 129.711 C 62.454 130.429,59.272 131.499,58.500 131.504 C 58.179 131.506,57.617 131.582,57.250 131.673 C 54.584 132.333,48.591 132.057,45.791 131.145 C 45.264 130.974,44.720 130.833,44.582 130.833 C 44.445 130.833,44.052 130.683,43.710 130.500 C 43.368 130.317,43.012 130.166,42.919 130.166 C 42.164 130.163,38.953 127.986,37.412 126.432 C 35.250 124.253,33.515 120.775,33.162 117.917 C 32.531 112.796,32.537 112.636,33.357 112.350 C 34.181 112.063,46.510 112.098,46.907 112.389 C 47.074 112.511,47.266 112.942,47.334 113.347 C 48.055 117.678,49.718 119.556,52.833 119.556 C 57.867 119.556,59.602 113.787,55.481 110.750 C 54.588 110.092,50.554 108.000,50.178 108.000 C 50.080 108.000,49.719 107.850,49.377 107.667 C 49.035 107.483,48.653 107.333,48.528 107.333 C 48.403 107.333,48.102 107.225,47.859 107.093 C 47.616 106.961,46.592 106.498,45.583 106.064 C 44.575 105.631,43.637 105.191,43.500 105.087 C 43.362 104.983,43.063 104.809,42.833 104.700 C 40.053 103.381,35.167 98.822,35.167 97.548 C 35.167 97.496,35.025 97.145,34.853 96.768 C 33.229 93.229,33.463 87.212,35.342 84.167 C 35.426 84.029,35.620 83.692,35.772 83.417 C 37.221 80.796,41.273 77.332,44.146 76.258 C 44.478 76.134,45.275 75.837,45.917 75.597 C 46.956 75.210,47.991 74.961,50.500 74.494 C 51.686 74.274,55.927 74.436,57.250 74.751 M221.068 74.740 C 221.518 74.883,222.118 75.000,222.401 75.001 C 222.685 75.002,223.118 75.107,223.364 75.235 C 223.610 75.364,224.060 75.522,224.364 75.587 C 224.668 75.652,225.104 75.803,225.333 75.923 C 225.563 76.044,226.237 76.378,226.833 76.666 C 231.342 78.850,234.472 82.582,235.358 86.833 C 235.688 88.414,235.816 88.932,235.985 89.378 L 236.161 89.839 236.497 89.503 C 236.838 89.162,247.610 88.964,249.143 89.270 C 249.663 89.374,250.500 90.697,250.500 91.415 C 250.500 91.562,250.610 91.897,250.745 92.157 C 250.880 92.418,251.063 92.921,251.152 93.274 C 251.240 93.628,251.510 94.442,251.752 95.083 C 251.994 95.725,252.294 96.587,252.419 97.000 C 252.772 98.169,253.199 99.384,253.383 99.746 C 253.475 99.928,253.647 100.415,253.766 100.830 C 254.073 101.901,254.497 103.166,254.744 103.750 C 255.045 104.461,255.496 105.808,255.680 106.547 C 255.767 106.894,255.910 107.307,255.999 107.464 C 256.195 107.810,256.791 109.522,257.002 110.344 C 257.086 110.671,257.269 111.159,257.410 111.428 C 257.550 111.697,257.665 112.010,257.666 112.125 C 257.669 112.847,258.032 112.142,258.588 110.333 C 258.714 109.921,258.947 109.208,259.105 108.750 C 259.262 108.292,259.519 107.542,259.676 107.083 C 259.832 106.625,260.051 105.987,260.161 105.667 C 260.271 105.346,260.464 104.746,260.589 104.333 C 261.007 102.952,261.356 101.921,261.585 101.392 C 261.710 101.103,261.866 100.578,261.931 100.225 C 261.997 99.872,262.146 99.433,262.263 99.250 C 262.380 99.067,262.528 98.617,262.593 98.250 C 262.658 97.883,262.793 97.433,262.894 97.250 C 262.995 97.067,263.167 96.579,263.276 96.167 C 263.495 95.340,263.908 94.068,264.250 93.167 C 264.562 92.344,264.993 91.017,265.164 90.352 C 265.458 89.204,265.163 89.250,272.167 89.250 C 279.017 89.250,279.412 89.302,278.893 90.133 C 278.792 90.295,278.653 90.688,278.585 91.005 C 278.516 91.323,278.379 91.733,278.279 91.917 C 278.074 92.294,277.611 93.536,277.241 94.701 C 277.103 95.133,276.918 95.531,276.829 95.586 C 276.740 95.641,276.666 95.851,276.666 96.052 C 276.665 96.252,276.545 96.642,276.399 96.917 C 276.253 97.192,276.034 97.717,275.912 98.083 C 275.532 99.228,275.164 100.237,275.000 100.583 C 274.854 100.892,274.702 101.302,274.164 102.833 C 274.051 103.154,273.855 103.642,273.728 103.917 C 273.601 104.192,273.426 104.642,273.340 104.917 C 273.254 105.192,272.999 105.904,272.774 106.500 C 272.550 107.096,272.270 107.846,272.153 108.167 C 272.036 108.487,271.804 109.055,271.637 109.428 C 271.470 109.800,271.333 110.174,271.333 110.258 C 271.333 110.415,270.797 111.870,270.414 112.750 C 270.294 113.025,270.119 113.475,270.026 113.750 C 269.932 114.025,269.659 114.775,269.418 115.417 C 269.178 116.058,268.903 116.846,268.807 117.167 C 268.711 117.487,268.564 117.833,268.482 117.935 C 268.399 118.036,268.225 118.449,268.095 118.851 C 267.729 119.979,267.345 121.033,267.098 121.583 C 266.975 121.858,266.790 122.327,266.687 122.625 C 266.212 124.000,266.101 124.294,265.810 124.935 C 265.640 125.312,265.500 125.713,265.500 125.826 C 265.500 125.940,265.391 126.269,265.257 126.558 C 265.031 127.049,264.830 127.577,264.331 129.000 C 264.218 129.321,264.025 129.808,263.902 130.083 C 263.655 130.634,263.271 131.688,262.905 132.815 C 262.775 133.218,262.602 133.630,262.520 133.732 C 262.439 133.833,262.317 134.179,262.250 134.500 C 262.183 134.821,262.069 135.158,261.996 135.250 C 261.862 135.419,261.298 136.940,260.976 138.000 C 260.878 138.321,260.731 138.667,260.648 138.768 C 260.566 138.870,260.392 139.282,260.263 139.685 C 260.134 140.087,259.830 140.942,259.588 141.583 C 259.346 142.225,259.070 143.012,258.975 143.333 C 258.879 143.654,258.645 144.085,258.455 144.292 L 258.109 144.667 251.877 144.667 C 244.531 144.667,244.550 144.671,245.333 143.210 C 245.517 142.868,245.667 142.471,245.667 142.327 C 245.667 142.184,245.735 141.995,245.819 141.908 C 245.903 141.821,246.247 141.037,246.583 140.167 C 246.920 139.296,247.264 138.512,247.348 138.425 C 247.431 138.338,247.500 138.159,247.500 138.027 C 247.500 137.895,247.641 137.478,247.813 137.102 C 247.986 136.725,248.295 136.004,248.500 135.500 C 248.705 134.996,249.014 134.275,249.187 133.898 C 249.359 133.522,249.500 133.155,249.500 133.083 C 249.500 133.012,249.641 132.645,249.813 132.268 C 249.986 131.892,250.278 131.208,250.462 130.750 C 250.647 130.292,250.925 129.608,251.081 129.230 C 251.342 128.598,251.343 128.503,251.099 128.030 C 250.953 127.748,250.833 127.418,250.833 127.297 C 250.833 127.177,250.683 126.799,250.500 126.456 C 250.317 126.114,250.167 125.721,250.167 125.583 C 250.167 125.445,250.017 125.052,249.833 124.710 C 249.650 124.368,249.500 123.993,249.500 123.877 C 249.500 123.761,249.350 123.386,249.167 123.044 C 248.983 122.701,248.833 122.329,248.833 122.215 C 248.833 122.102,248.688 121.688,248.511 121.296 C 248.333 120.904,248.021 120.133,247.817 119.583 C 247.613 119.033,247.308 118.278,247.139 117.906 C 246.971 117.533,246.833 117.116,246.833 116.979 C 246.833 116.842,246.723 116.585,246.589 116.407 C 246.454 116.229,246.342 115.976,246.339 115.844 C 246.336 115.713,246.196 115.300,246.027 114.928 C 245.859 114.555,245.554 113.800,245.350 113.250 C 245.146 112.700,244.833 111.929,244.656 111.537 C 244.479 111.145,244.333 110.732,244.333 110.618 C 244.333 110.505,244.183 110.132,244.000 109.790 C 243.817 109.448,243.667 109.073,243.667 108.956 C 243.667 108.840,243.517 108.465,243.333 108.123 C 243.150 107.781,243.000 107.419,243.000 107.317 C 243.000 107.216,242.893 106.897,242.762 106.609 C 242.631 106.320,242.326 105.558,242.085 104.917 C 241.844 104.275,241.506 103.412,241.334 103.000 C 241.162 102.587,240.708 101.425,240.325 100.417 C 239.942 99.408,239.487 98.275,239.314 97.898 C 239.141 97.522,239.000 97.121,239.000 97.007 C 239.000 96.894,238.896 96.602,238.768 96.359 C 238.640 96.116,238.179 94.979,237.743 93.833 C 237.307 92.688,236.811 91.445,236.642 91.072 C 236.472 90.700,236.333 90.306,236.333 90.197 C 236.333 90.089,236.258 90.000,236.167 90.000 C 236.075 90.000,235.999 90.319,235.997 90.708 C 235.992 92.186,236.087 92.167,228.719 92.164 C 221.662 92.161,221.694 92.166,221.410 91.080 C 220.352 87.037,217.142 85.469,214.127 87.522 C 210.890 89.726,211.938 93.308,216.500 95.639 C 217.096 95.944,217.696 96.254,217.833 96.328 C 218.188 96.519,219.514 97.121,222.292 98.350 C 229.514 101.547,235.500 106.524,235.500 109.331 C 235.500 109.433,235.611 109.732,235.747 109.995 C 236.509 111.467,236.505 118.706,235.743 120.181 C 235.609 120.439,235.500 120.780,235.500 120.939 C 235.500 121.098,235.354 121.533,235.175 121.906 C 234.997 122.278,234.768 122.771,234.668 123.000 C 234.155 124.173,233.148 125.553,231.934 126.751 C 230.628 128.039,228.950 129.210,227.417 129.904 C 226.867 130.152,226.218 130.463,225.974 130.595 C 225.731 130.726,225.413 130.833,225.267 130.833 C 225.121 130.833,224.570 130.974,224.042 131.145 C 220.669 132.243,214.398 132.320,210.417 131.312 C 209.221 131.009,208.090 130.674,207.750 130.520 C 204.907 129.237,202.939 127.974,201.497 126.509 C 200.824 125.825,199.359 123.918,199.172 123.483 C 199.078 123.263,198.930 122.971,198.844 122.833 C 198.537 122.344,197.833 120.683,197.833 120.447 C 197.833 120.315,197.722 119.941,197.586 119.616 C 197.246 118.801,196.930 116.248,196.923 114.255 C 196.915 112.001,196.328 112.172,204.083 112.171 C 211.059 112.171,211.129 112.177,211.262 112.812 C 211.897 115.845,212.269 116.856,213.154 117.946 C 215.528 120.871,220.531 119.834,221.593 116.197 C 222.414 113.383,221.212 111.424,217.500 109.527 C 216.904 109.223,216.304 108.916,216.167 108.845 C 215.909 108.712,215.011 108.303,213.621 107.687 C 213.183 107.492,212.741 107.333,212.639 107.333 C 212.537 107.333,212.107 107.175,211.685 106.982 C 211.262 106.789,210.692 106.535,210.417 106.418 C 209.460 106.011,206.581 104.591,206.167 104.321 C 201.633 101.369,199.358 98.829,198.488 95.750 C 198.411 95.475,198.228 94.837,198.083 94.333 C 197.697 92.995,197.796 88.290,198.238 87.000 C 199.494 83.330,201.369 80.724,204.333 78.526 C 205.656 77.545,209.187 75.680,209.750 75.664 C 209.933 75.659,210.383 75.510,210.750 75.333 C 211.117 75.156,211.642 75.009,211.918 75.006 C 212.193 75.003,212.681 74.920,213.001 74.821 C 214.750 74.284,219.480 74.237,221.068 74.740 M189.862 75.776 C 190.147 76.034,190.167 76.458,190.169 82.234 C 190.172 90.041,189.801 89.126,192.990 89.194 C 196.498 89.269,196.167 88.759,196.167 94.078 C 196.167 99.449,196.477 98.956,193.055 99.029 C 191.665 99.059,190.465 99.146,190.388 99.222 C 190.312 99.299,190.230 106.342,190.206 114.875 C 190.174 125.914,190.108 130.453,189.977 130.611 C 189.722 130.918,177.673 130.940,177.367 130.633 C 177.214 130.481,177.166 126.780,177.164 115.008 C 177.163 105.600,177.100 99.486,177.004 99.333 C 176.877 99.132,176.331 99.073,174.217 99.029 C 172.712 98.998,171.498 98.901,171.377 98.801 C 171.074 98.549,171.072 89.581,171.375 89.385 C 171.490 89.311,172.783 89.224,174.250 89.193 C 176.031 89.155,176.957 89.072,177.039 88.943 C 177.106 88.837,177.163 85.906,177.164 82.430 C 177.166 76.785,177.196 76.077,177.442 75.805 C 177.846 75.359,189.371 75.332,189.862 75.776 M104.333 88.004 C 110.485 88.643,116.489 93.165,119.373 99.333 C 120.119 100.927,120.336 101.472,120.437 102.004 C 120.498 102.323,120.640 102.771,120.752 103.000 C 120.865 103.229,121.009 103.792,121.073 104.250 C 121.137 104.708,121.297 105.453,121.428 105.905 C 121.722 106.917,121.770 113.708,121.488 114.447 C 121.390 114.706,121.209 115.442,121.087 116.083 C 120.751 117.843,120.453 118.684,119.344 121.000 C 118.830 122.073,117.709 124.006,117.507 124.167 C 117.449 124.212,117.068 124.664,116.660 125.170 C 114.855 127.404,110.374 130.828,109.248 130.833 C 109.155 130.833,108.799 130.983,108.456 131.167 C 108.114 131.350,107.700 131.500,107.536 131.500 C 107.373 131.500,106.791 131.662,106.244 131.860 C 104.737 132.405,98.251 132.406,96.756 131.862 C 96.209 131.663,95.661 131.500,95.538 131.500 C 94.792 131.500,91.824 129.839,90.279 128.558 C 89.294 127.740,89.333 127.424,89.333 136.141 C 89.333 143.717,89.318 144.129,89.022 144.397 C 88.578 144.799,76.752 144.739,76.496 144.333 C 76.178 143.829,76.289 89.745,76.609 89.479 C 76.827 89.297,78.023 89.240,82.378 89.200 C 89.025 89.139,88.500 88.947,88.500 91.442 C 88.500 93.472,88.426 93.430,89.774 92.169 C 93.524 88.661,98.090 87.355,104.333 88.004 M151.500 88.181 C 153.139 88.454,155.447 89.154,156.917 89.823 C 157.283 89.990,157.696 90.173,157.833 90.229 C 157.971 90.285,158.230 90.425,158.409 90.541 C 158.588 90.656,159.338 91.136,160.076 91.607 C 162.183 92.954,164.257 94.919,165.591 96.833 C 166.798 98.564,166.918 98.761,167.528 100.004 C 169.119 103.248,169.751 106.068,169.749 109.917 C 169.747 113.923,169.119 116.778,167.533 120.000 C 164.742 125.669,158.803 130.479,153.333 131.501 C 152.921 131.578,152.136 131.759,151.590 131.904 C 150.460 132.203,144.592 132.270,143.417 131.998 C 143.050 131.913,142.337 131.759,141.833 131.656 C 141.329 131.553,140.540 131.326,140.080 131.151 C 139.620 130.976,139.154 130.833,139.044 130.833 C 138.934 130.833,138.523 130.679,138.130 130.490 C 130.716 126.918,126.516 121.565,125.061 113.833 C 124.717 112.006,124.669 107.830,124.980 106.750 C 125.085 106.383,125.243 105.590,125.331 104.986 C 125.419 104.383,125.605 103.670,125.744 103.403 C 125.884 103.135,125.998 102.787,125.999 102.629 C 126.001 102.040,127.241 99.558,128.478 97.667 C 130.257 94.947,133.978 91.530,136.167 90.608 C 136.304 90.550,136.529 90.432,136.667 90.346 C 137.030 90.119,138.301 89.561,139.167 89.248 C 139.898 88.983,140.118 88.916,141.980 88.390 C 143.769 87.884,149.024 87.769,151.500 88.181 M307.508 88.009 C 308.448 88.105,309.427 88.293,309.684 88.425 C 309.940 88.558,310.271 88.667,310.419 88.667 C 310.566 88.667,311.076 88.845,311.552 89.062 C 312.028 89.280,312.529 89.508,312.667 89.569 C 314.575 90.416,317.941 93.793,318.412 95.333 C 318.482 95.563,318.632 95.862,318.744 96.000 C 318.964 96.267,319.430 97.542,319.660 98.500 C 320.380 101.511,320.354 100.787,320.301 116.167 L 320.250 130.750 314.083 130.794 C 308.434 130.834,307.899 130.814,307.708 130.554 C 307.546 130.333,307.500 127.643,307.500 118.450 C 307.500 104.174,307.402 103.261,305.681 101.540 C 303.594 99.453,298.652 99.447,296.522 101.529 C 294.645 103.364,294.500 104.626,294.500 119.142 C 294.500 127.702,294.452 130.482,294.300 130.633 C 294.152 130.782,292.514 130.833,287.963 130.833 L 281.825 130.833 281.661 130.401 C 281.390 129.688,281.526 89.741,281.800 89.467 C 282.145 89.122,293.284 89.153,293.503 89.500 C 293.590 89.638,293.663 90.444,293.664 91.292 C 293.666 92.207,293.734 92.833,293.833 92.833 C 293.925 92.833,294.000 92.771,294.000 92.696 C 294.000 92.037,297.866 89.033,299.094 88.738 C 299.363 88.673,299.793 88.514,300.050 88.385 C 301.004 87.904,304.680 87.719,307.508 88.009 M350.218 88.009 C 351.300 88.104,352.387 88.262,352.634 88.359 C 352.881 88.457,353.458 88.635,353.917 88.755 C 360.364 90.440,366.188 95.807,368.468 102.167 C 369.805 105.896,370.321 105.572,362.953 105.626 C 356.767 105.671,356.464 105.639,356.083 104.913 C 354.262 101.447,351.909 100.115,347.583 100.105 C 344.498 100.098,344.285 100.150,342.417 101.360 C 339.352 103.346,337.375 108.693,338.401 112.222 C 338.547 112.724,338.667 113.259,338.667 113.411 C 338.667 113.814,339.471 115.455,340.140 116.417 C 341.217 117.965,342.430 118.867,344.662 119.779 C 345.741 120.220,349.762 120.220,350.839 119.779 C 353.211 118.809,354.446 117.837,355.759 115.909 L 356.434 114.917 362.509 114.870 C 365.850 114.845,368.752 114.865,368.958 114.915 C 369.406 115.024,369.469 115.826,369.083 116.500 C 368.952 116.729,368.842 117.058,368.839 117.232 C 368.812 118.660,365.888 123.411,363.671 125.628 C 361.550 127.749,356.801 130.829,355.644 130.834 C 355.519 130.835,355.192 130.954,354.917 131.098 C 354.642 131.243,354.042 131.429,353.583 131.513 C 353.125 131.596,352.340 131.777,351.839 131.915 C 350.348 132.326,344.031 132.272,342.640 131.835 C 342.059 131.653,341.447 131.503,341.281 131.502 C 340.898 131.499,338.163 130.405,337.500 129.989 C 337.362 129.903,337.079 129.759,336.871 129.669 C 335.290 128.986,331.682 125.937,330.065 123.917 C 328.766 122.293,326.678 118.647,326.661 117.972 C 326.658 117.850,326.510 117.450,326.333 117.083 C 326.156 116.717,326.007 116.267,326.002 116.083 C 325.996 115.900,325.844 115.193,325.663 114.511 C 325.231 112.887,325.181 107.125,325.585 105.661 C 325.724 105.160,325.881 104.487,325.935 104.167 C 326.137 102.949,327.632 99.396,328.249 98.667 C 328.365 98.529,328.574 98.192,328.713 97.917 C 330.224 94.932,335.631 90.397,338.955 89.326 C 339.301 89.214,339.658 89.067,339.750 88.998 C 339.842 88.928,340.179 88.820,340.500 88.757 C 340.821 88.693,341.385 88.531,341.753 88.396 C 343.114 87.898,346.949 87.723,350.218 88.009 M96.417 100.158 C 93.892 100.680,91.228 102.813,90.026 105.275 C 89.719 105.903,89.395 106.556,89.305 106.726 C 88.543 108.170,88.836 112.522,89.833 114.562 C 91.700 118.384,94.433 120.058,98.833 120.074 L 101.583 120.083 102.862 119.457 C 113.877 114.061,108.406 97.678,96.417 100.158 M145.333 100.140 C 139.500 101.066,135.968 108.982,138.834 114.708 C 139.651 116.341,141.919 118.833,142.587 118.833 C 142.662 118.833,142.842 118.934,142.987 119.058 C 144.285 120.167,148.180 120.429,150.583 119.569 C 152.387 118.924,154.868 116.775,155.495 115.316 C 155.589 115.096,155.732 114.804,155.813 114.667 C 158.153 110.705,156.219 103.482,152.265 101.408 C 152.073 101.308,151.767 101.140,151.583 101.035 C 150.099 100.187,147.439 99.806,145.333 100.140 " stroke="none" fill="#fbfbfb" fill-rule="evenodd"></path><path id="path2" d="M254.833 2.096 C 252.905 2.259,250.056 2.873,247.833 3.605 C 247.421 3.741,246.827 3.918,246.514 3.998 C 245.912 4.152,245.662 4.261,243.667 5.228 C 237.461 8.237,232.768 12.778,229.181 19.246 C 228.623 20.252,228.167 21.141,228.167 21.221 C 228.167 21.301,228.058 21.603,227.924 21.891 C 227.515 22.777,227.144 23.872,226.922 24.845 C 226.806 25.356,226.625 25.934,226.520 26.129 C 225.663 27.731,226.139 28.757,227.933 29.171 C 228.382 29.275,229.950 29.654,231.417 30.014 C 234.823 30.848,235.667 30.910,235.838 30.333 C 235.906 30.104,236.082 29.514,236.231 29.023 C 236.689 27.501,236.522 27.217,234.987 26.914 C 234.398 26.797,233.467 26.588,232.917 26.449 C 232.367 26.310,231.708 26.150,231.452 26.093 C 228.867 25.521,235.574 14.930,240.811 11.315 C 242.572 10.099,244.033 9.200,245.000 8.736 C 245.504 8.494,246.059 8.222,246.233 8.131 C 252.017 5.119,262.906 5.140,269.261 8.176 C 269.634 8.354,269.983 8.500,270.038 8.500 C 270.092 8.500,270.687 8.810,271.360 9.189 C 275.240 11.377,277.852 13.651,280.810 17.422 C 281.735 18.601,283.539 21.783,283.736 22.583 C 283.804 22.858,283.955 23.196,284.073 23.333 C 284.190 23.471,284.528 24.333,284.823 25.249 C 285.579 27.592,285.815 27.721,287.917 26.944 L 288.917 26.573 288.885 25.870 C 288.852 25.140,288.171 22.912,287.745 22.141 C 287.610 21.898,287.500 21.623,287.500 21.531 C 287.500 21.089,284.760 16.301,283.816 15.094 C 276.531 5.774,266.197 1.139,254.833 2.096 M254.667 16.488 C 250.822 17.374,249.139 18.148,246.402 20.290 C 243.984 22.181,242.336 24.423,240.916 27.750 C 240.570 28.560,240.000 30.785,240.000 31.326 C 240.000 31.943,240.534 32.256,242.137 32.578 C 243.592 32.871,245.372 33.291,246.431 33.592 C 246.898 33.725,247.441 33.833,247.639 33.833 C 247.837 33.833,248.430 33.977,248.958 34.153 C 249.485 34.329,250.292 34.523,250.750 34.586 C 251.208 34.648,251.714 34.770,251.874 34.855 C 252.035 34.941,252.597 35.088,253.124 35.183 C 253.652 35.277,254.458 35.460,254.917 35.589 C 255.375 35.718,257.100 36.132,258.750 36.508 C 260.400 36.884,262.050 37.298,262.417 37.427 C 262.783 37.556,263.458 37.708,263.917 37.763 C 264.375 37.819,265.182 38.007,265.709 38.182 C 266.236 38.357,266.895 38.500,267.173 38.500 C 267.450 38.500,267.926 38.604,268.231 38.731 C 268.535 38.858,269.114 39.017,269.517 39.083 C 270.724 39.283,271.060 40.071,270.333 41.000 C 270.154 41.229,270.006 41.469,270.004 41.533 C 269.954 43.098,264.710 47.269,262.083 47.832 C 261.717 47.910,261.117 48.090,260.750 48.230 C 259.689 48.636,255.934 48.597,254.710 48.167 C 254.188 47.983,253.623 47.833,253.454 47.833 C 250.905 47.833,245.719 42.991,244.568 39.538 C 244.049 37.978,243.910 37.881,242.482 38.070 C 239.909 38.411,239.909 39.402,242.480 43.833 C 244.042 46.525,248.981 50.827,250.519 50.834 C 250.646 50.835,250.975 50.985,251.250 51.167 C 251.525 51.349,251.918 51.498,252.124 51.499 C 252.330 51.500,252.968 51.667,253.541 51.872 C 254.479 52.207,254.893 52.244,257.667 52.240 C 261.513 52.235,262.457 52.022,265.996 50.356 C 269.638 48.642,273.214 44.738,274.589 40.974 C 275.011 39.817,275.686 37.125,275.606 36.916 C 275.479 36.585,273.507 35.989,270.632 35.411 C 270.017 35.287,269.374 35.111,269.203 35.019 C 269.031 34.928,268.484 34.805,267.987 34.748 C 267.490 34.690,266.821 34.537,266.500 34.407 C 266.179 34.277,265.504 34.103,265.000 34.020 C 264.098 33.872,262.638 33.541,260.833 33.076 C 260.329 32.946,259.242 32.686,258.417 32.498 C 257.592 32.310,256.354 32.015,255.667 31.843 C 254.196 31.474,253.234 31.248,251.417 30.845 C 250.683 30.682,249.783 30.467,249.417 30.366 C 248.837 30.207,246.877 29.742,245.461 29.429 C 244.180 29.146,245.182 26.879,247.728 24.299 C 248.843 23.170,251.087 21.500,251.490 21.500 C 251.582 21.500,251.979 21.354,252.371 21.175 C 255.503 19.746,260.680 19.772,263.417 21.231 C 263.692 21.378,264.007 21.498,264.118 21.499 C 264.747 21.502,267.676 23.910,268.848 25.387 C 269.919 26.738,270.546 27.888,271.486 30.229 C 271.758 30.906,274.782 30.476,275.072 29.719 C 275.195 29.399,275.018 28.364,274.819 28.241 C 274.740 28.192,274.591 27.837,274.488 27.451 C 274.385 27.066,274.238 26.673,274.161 26.580 C 274.085 26.486,273.791 25.971,273.510 25.435 C 272.918 24.311,271.161 22.022,270.225 21.157 C 269.013 20.037,265.703 17.833,265.232 17.833 C 265.162 17.833,264.800 17.688,264.428 17.510 C 262.500 16.591,256.806 15.995,254.667 16.488 M279.580 38.777 C 278.906 41.077,279.086 41.533,280.742 41.728 C 281.270 41.790,281.844 41.916,282.017 42.009 C 282.190 42.102,282.764 42.257,283.291 42.354 C 284.794 42.631,285.021 43.379,284.168 45.250 C 284.001 45.617,283.813 46.104,283.750 46.333 C 283.587 46.931,282.899 48.670,282.595 49.253 C 282.452 49.526,282.335 49.814,282.334 49.892 C 282.333 50.058,279.753 55.279,278.945 56.750 C 277.646 59.115,274.112 64.936,273.688 65.410 C 273.520 65.597,273.342 65.862,273.292 66.000 C 273.219 66.201,271.593 68.549,271.042 69.250 C 270.970 69.342,270.630 69.829,270.286 70.333 C 267.780 74.007,261.076 82.542,258.994 84.708 C 258.008 85.734,257.838 85.848,257.536 85.686 C 256.803 85.293,252.093 79.559,248.236 74.361 C 246.830 72.467,245.525 70.716,245.337 70.471 C 243.946 68.657,239.095 61.151,237.786 58.787 C 237.623 58.492,237.310 57.950,237.091 57.583 C 236.373 56.380,233.213 49.948,232.628 48.500 C 231.555 45.844,231.333 45.244,231.332 44.997 C 231.332 44.861,231.214 44.525,231.070 44.250 C 230.926 43.975,230.732 43.337,230.639 42.833 C 230.414 41.610,230.142 41.333,229.163 41.333 C 228.316 41.333,226.666 41.927,226.668 42.231 C 226.671 42.812,227.037 44.507,227.317 45.237 C 227.495 45.702,227.881 46.758,228.173 47.583 C 228.720 49.125,229.298 50.579,229.832 51.750 C 230.536 53.294,232.400 57.014,233.090 58.250 C 233.499 58.983,233.951 59.808,234.095 60.083 C 234.239 60.358,234.537 60.883,234.758 61.250 C 234.979 61.617,235.214 62.029,235.280 62.167 C 236.778 65.282,245.826 77.985,250.662 83.762 C 252.698 86.194,256.350 90.376,256.946 90.958 C 257.770 91.763,257.986 91.680,259.522 89.958 C 260.279 89.110,261.102 88.192,261.351 87.917 C 262.643 86.489,264.443 84.314,268.045 79.830 C 268.954 78.698,270.677 76.412,271.962 74.633 C 272.445 73.964,273.180 72.967,273.595 72.417 C 274.224 71.583,276.317 68.498,276.917 67.521 C 277.008 67.372,277.376 66.800,277.734 66.250 C 278.991 64.317,279.147 64.066,280.402 61.971 C 281.097 60.809,281.667 59.825,281.667 59.784 C 281.667 59.743,282.079 58.981,282.584 58.090 C 283.088 57.199,283.547 56.289,283.602 56.067 C 283.658 55.845,283.761 55.628,283.831 55.585 C 283.901 55.542,284.147 55.111,284.379 54.628 C 285.423 52.453,286.167 50.801,286.167 50.656 C 286.167 50.570,286.317 50.219,286.500 49.877 C 286.683 49.535,286.834 49.141,286.834 49.002 C 286.835 48.864,286.985 48.525,287.167 48.250 C 287.349 47.975,287.499 47.600,287.500 47.417 C 287.501 47.233,287.610 46.877,287.742 46.624 C 287.873 46.371,288.108 45.696,288.263 45.124 C 288.418 44.552,288.690 43.558,288.867 42.917 C 289.684 39.963,289.699 40.037,288.210 39.615 C 286.580 39.152,284.525 38.667,284.193 38.667 C 284.019 38.667,283.436 38.526,282.897 38.354 C 282.358 38.182,281.455 37.988,280.891 37.923 L 279.865 37.804 279.580 38.777 " stroke="none" fill="#d42223" fill-rule="evenodd"></path><path id="path3" d="M254.083 1.823 C 253.075 1.893,251.838 2.068,251.333 2.211 C 250.829 2.354,250.042 2.563,249.583 2.675 C 243.009 4.286,236.249 8.641,232.262 13.833 C 230.603 15.995,228.002 20.197,227.999 20.721 C 227.998 20.829,227.849 21.142,227.667 21.417 C 227.485 21.692,227.335 22.068,227.334 22.252 C 227.334 22.437,227.183 22.868,227.000 23.210 C 226.817 23.552,226.667 23.985,226.667 24.171 C 226.667 24.358,226.552 24.784,226.413 25.119 C 226.273 25.453,226.054 26.219,225.927 26.822 C 225.800 27.424,225.646 28.040,225.586 28.191 C 225.440 28.561,226.075 29.135,226.826 29.311 C 227.151 29.387,228.167 29.618,229.083 29.823 C 230.000 30.028,231.237 30.341,231.833 30.517 C 232.429 30.694,233.142 30.837,233.417 30.835 C 233.692 30.833,234.264 30.956,234.688 31.108 C 235.720 31.478,235.886 31.378,236.289 30.141 C 237.040 27.837,236.930 26.921,235.883 26.745 C 235.535 26.687,234.912 26.537,234.500 26.411 C 234.088 26.286,233.301 26.104,232.753 26.007 C 231.258 25.742,231.075 25.484,231.502 24.245 C 231.943 22.962,233.598 19.598,233.919 19.332 C 234.055 19.218,234.167 19.067,234.167 18.994 C 234.167 17.281,244.071 8.672,246.050 8.666 C 246.160 8.666,246.496 8.516,246.796 8.333 C 247.096 8.150,247.493 8.000,247.677 8.000 C 247.862 8.000,248.307 7.850,248.667 7.667 C 249.026 7.483,249.449 7.333,249.607 7.333 C 249.764 7.333,250.348 7.190,250.905 7.016 C 254.308 5.948,261.804 5.976,264.813 7.069 C 265.214 7.214,265.720 7.333,265.938 7.333 C 266.156 7.333,266.614 7.483,266.956 7.667 C 267.299 7.850,267.700 8.000,267.848 8.000 C 268.249 8.000,271.995 9.902,273.245 10.741 C 277.600 13.661,281.021 17.569,283.102 22.000 C 284.104 24.132,284.586 25.406,284.827 26.558 C 285.044 27.597,285.279 27.727,286.694 27.592 C 289.401 27.333,289.782 26.817,288.993 24.476 C 287.791 20.910,284.650 14.833,284.010 14.833 C 283.942 14.833,283.809 14.665,283.713 14.458 C 282.831 12.556,277.246 7.591,274.167 5.971 C 273.662 5.706,273.137 5.425,273.000 5.346 C 272.862 5.268,272.337 5.016,271.833 4.787 C 271.329 4.558,270.574 4.212,270.156 4.018 C 269.737 3.825,269.273 3.667,269.124 3.667 C 268.975 3.667,268.812 3.600,268.761 3.518 C 268.711 3.437,268.463 3.322,268.210 3.264 C 267.957 3.206,267.262 3.016,266.667 2.843 C 263.228 1.843,258.864 1.490,254.083 1.823 M263.667 2.496 C 272.253 4.311,278.384 8.143,283.816 15.094 C 284.760 16.301,287.500 21.089,287.500 21.531 C 287.500 21.623,287.610 21.898,287.745 22.141 C 288.171 22.912,288.852 25.140,288.885 25.870 L 288.917 26.573 287.917 26.944 C 285.815 27.721,285.579 27.592,284.823 25.249 C 284.528 24.333,284.190 23.471,284.073 23.333 C 283.955 23.196,283.804 22.858,283.736 22.583 C 283.539 21.783,281.735 18.601,280.810 17.422 C 277.852 13.651,275.240 11.377,271.360 9.189 C 270.687 8.810,270.092 8.500,270.038 8.500 C 269.983 8.500,269.634 8.354,269.261 8.176 C 262.906 5.140,252.017 5.119,246.233 8.131 C 246.059 8.222,245.504 8.494,245.000 8.736 C 239.972 11.149,235.127 15.995,232.329 21.408 C 230.603 24.749,230.395 25.859,231.452 26.093 C 231.708 26.150,232.367 26.310,232.917 26.449 C 233.467 26.588,234.398 26.797,234.987 26.914 C 236.522 27.217,236.689 27.501,236.231 29.023 C 236.082 29.514,235.906 30.104,235.838 30.333 C 235.667 30.910,234.823 30.848,231.417 30.014 C 229.950 29.654,228.382 29.275,227.933 29.171 C 226.139 28.757,225.663 27.731,226.520 26.129 C 226.625 25.934,226.806 25.356,226.922 24.845 C 227.144 23.872,227.515 22.777,227.924 21.891 C 228.058 21.603,228.167 21.301,228.167 21.221 C 228.167 21.141,228.623 20.252,229.181 19.246 C 232.768 12.778,237.461 8.237,243.667 5.228 C 245.662 4.261,245.912 4.152,246.514 3.998 C 246.827 3.918,247.421 3.741,247.833 3.605 C 252.684 2.007,259.195 1.551,263.667 2.496 M254.667 16.166 C 252.701 16.533,251.205 16.954,250.763 17.264 C 250.578 17.394,250.311 17.502,250.171 17.504 C 250.031 17.506,249.729 17.654,249.500 17.833 C 249.271 18.013,248.964 18.161,248.817 18.163 C 248.671 18.165,248.416 18.317,248.250 18.500 C 248.084 18.683,247.882 18.833,247.800 18.833 C 247.178 18.833,243.644 22.177,242.604 23.750 C 241.663 25.172,240.333 27.869,240.333 28.355 C 240.333 28.487,240.183 29.022,240.000 29.543 C 239.250 31.677,239.826 32.825,241.652 32.832 C 241.781 32.833,242.269 32.942,242.735 33.074 C 243.989 33.431,245.763 33.845,247.083 34.090 C 247.725 34.209,248.550 34.421,248.917 34.562 C 249.283 34.703,249.829 34.822,250.130 34.826 C 250.431 34.830,250.948 34.946,251.279 35.085 C 251.610 35.223,252.264 35.402,252.732 35.482 C 253.200 35.562,254.071 35.750,254.667 35.900 C 255.907 36.213,257.081 36.506,258.750 36.919 C 259.392 37.077,260.350 37.272,260.880 37.352 C 261.410 37.432,262.063 37.610,262.330 37.748 C 262.598 37.887,263.064 37.999,263.367 37.998 C 263.669 37.996,264.404 38.142,265.000 38.322 C 266.094 38.651,267.804 39.075,269.149 39.349 C 270.755 39.677,270.705 40.089,268.738 42.750 C 267.445 44.498,266.111 45.612,264.141 46.588 C 263.651 46.831,263.051 47.135,262.808 47.265 C 262.564 47.394,262.211 47.500,262.022 47.500 C 261.833 47.500,261.298 47.650,260.833 47.833 C 260.144 48.105,259.595 48.167,257.863 48.167 C 256.166 48.167,255.548 48.100,254.790 47.833 C 254.268 47.650,253.726 47.500,253.584 47.500 C 253.224 47.500,250.689 46.284,249.812 45.689 C 247.651 44.227,245.048 40.669,244.593 38.553 C 244.412 37.714,244.159 37.605,242.668 37.720 C 240.958 37.852,239.903 38.429,240.073 39.138 C 240.133 39.383,240.253 39.915,240.341 40.321 C 240.429 40.726,240.613 41.182,240.750 41.334 C 240.888 41.485,241.000 41.706,241.000 41.824 C 241.000 43.121,245.036 48.025,247.333 49.518 C 248.828 50.490,251.582 51.833,252.078 51.833 C 252.224 51.833,252.810 51.990,253.380 52.182 C 255.971 53.055,262.070 52.644,264.583 51.426 C 264.858 51.293,265.507 50.994,266.025 50.762 C 269.841 49.050,273.264 45.314,274.893 41.083 C 276.368 37.255,276.287 36.147,274.519 35.911 C 274.096 35.854,273.304 35.664,272.759 35.487 C 272.214 35.311,271.539 35.167,271.259 35.167 C 270.979 35.167,270.300 35.021,269.750 34.843 C 269.200 34.665,268.375 34.444,267.917 34.353 C 267.458 34.262,266.446 34.032,265.667 33.843 C 263.998 33.439,262.687 33.128,261.083 32.758 C 260.442 32.610,259.579 32.383,259.167 32.254 C 258.754 32.125,258.004 31.967,257.500 31.904 C 256.996 31.840,256.384 31.687,256.139 31.564 C 255.895 31.441,255.258 31.290,254.723 31.230 C 254.188 31.170,253.600 31.043,253.417 30.949 C 253.233 30.854,252.446 30.641,251.667 30.476 C 250.887 30.310,249.762 30.058,249.167 29.916 C 248.571 29.773,247.495 29.533,246.775 29.382 C 244.905 28.990,244.869 28.729,246.368 26.398 C 247.372 24.836,250.530 22.161,251.866 21.741 C 252.077 21.674,252.511 21.481,252.831 21.310 C 253.150 21.140,253.618 21.000,253.869 21.000 C 254.121 21.000,254.647 20.869,255.038 20.708 C 255.586 20.484,256.231 20.417,257.833 20.417 C 259.435 20.417,260.081 20.484,260.628 20.708 C 261.020 20.869,261.530 21.000,261.762 21.000 C 261.994 21.000,262.461 21.146,262.800 21.325 C 263.139 21.504,263.778 21.814,264.220 22.012 C 267.045 23.285,270.211 27.172,271.250 30.643 C 271.362 31.020,271.411 31.031,272.475 30.923 C 275.651 30.601,276.061 30.035,274.956 27.500 C 274.436 26.306,274.317 26.068,273.921 25.417 C 273.698 25.050,273.461 24.637,273.395 24.500 C 272.753 23.173,270.051 20.295,268.475 19.258 C 268.076 18.996,267.561 18.653,267.330 18.497 C 267.099 18.341,266.750 18.163,266.553 18.100 C 266.357 18.038,266.106 17.877,265.995 17.744 C 265.883 17.610,265.682 17.500,265.546 17.500 C 265.411 17.500,265.064 17.391,264.775 17.259 C 262.021 15.993,257.946 15.552,254.667 16.166 M262.417 16.826 C 263.150 17.025,264.055 17.333,264.428 17.510 C 264.800 17.688,265.162 17.833,265.232 17.833 C 265.703 17.833,269.013 20.037,270.225 21.157 C 271.161 22.022,272.918 24.311,273.510 25.435 C 273.791 25.971,274.085 26.486,274.161 26.580 C 274.238 26.673,274.385 27.066,274.488 27.451 C 274.591 27.837,274.740 28.192,274.819 28.241 C 275.018 28.364,275.195 29.399,275.072 29.719 C 274.782 30.476,271.758 30.906,271.486 30.229 C 270.546 27.888,269.919 26.738,268.848 25.387 C 267.676 23.910,264.747 21.502,264.118 21.499 C 264.007 21.498,263.692 21.378,263.417 21.231 C 260.680 19.772,255.503 19.746,252.371 21.175 C 251.979 21.354,251.582 21.500,251.490 21.500 C 251.087 21.500,248.843 23.170,247.728 24.299 C 245.182 26.879,244.180 29.146,245.461 29.429 C 246.877 29.742,248.837 30.207,249.417 30.366 C 249.783 30.467,250.683 30.682,251.417 30.845 C 253.234 31.248,254.196 31.474,255.667 31.843 C 256.354 32.015,257.592 32.310,258.417 32.498 C 259.242 32.686,260.329 32.946,260.833 33.076 C 262.638 33.541,264.098 33.872,265.000 34.020 C 265.504 34.103,266.179 34.277,266.500 34.407 C 266.821 34.537,267.490 34.690,267.987 34.748 C 268.484 34.805,269.031 34.928,269.203 35.019 C 269.374 35.111,270.017 35.287,270.632 35.411 C 273.507 35.989,275.479 36.585,275.606 36.916 C 275.686 37.125,275.011 39.817,274.589 40.974 C 273.214 44.738,269.638 48.642,265.996 50.356 C 262.457 52.022,261.513 52.235,257.667 52.240 C 254.893 52.244,254.479 52.207,253.541 51.872 C 252.968 51.667,252.330 51.500,252.124 51.499 C 251.918 51.498,251.525 51.349,251.250 51.167 C 250.975 50.985,250.646 50.835,250.519 50.834 C 248.981 50.827,244.042 46.525,242.480 43.833 C 239.909 39.402,239.909 38.411,242.482 38.070 C 243.910 37.881,244.049 37.978,244.568 39.538 C 245.629 42.722,248.486 45.663,252.198 47.392 C 252.719 47.635,253.285 47.833,253.454 47.833 C 253.623 47.833,254.188 47.983,254.710 48.167 C 255.934 48.597,259.689 48.636,260.750 48.230 C 261.117 48.090,261.717 47.910,262.083 47.832 C 264.710 47.269,269.954 43.098,270.004 41.533 C 270.006 41.469,270.154 41.229,270.333 41.000 C 271.060 40.071,270.724 39.283,269.517 39.083 C 269.114 39.017,268.535 38.858,268.231 38.731 C 267.926 38.604,267.450 38.500,267.173 38.500 C 266.895 38.500,266.236 38.357,265.709 38.182 C 265.182 38.007,264.375 37.819,263.917 37.763 C 263.458 37.708,262.783 37.556,262.417 37.427 C 262.050 37.298,260.400 36.884,258.750 36.508 C 257.100 36.132,255.375 35.718,254.917 35.589 C 254.458 35.460,253.652 35.277,253.124 35.183 C 252.597 35.088,252.035 34.941,251.874 34.855 C 251.714 34.770,251.208 34.648,250.750 34.586 C 250.292 34.523,249.485 34.329,248.958 34.153 C 248.430 33.977,247.837 33.833,247.639 33.833 C 247.441 33.833,246.898 33.725,246.431 33.592 C 245.372 33.291,243.592 32.871,242.137 32.578 C 240.534 32.256,240.000 31.943,240.000 31.326 C 240.000 30.785,240.570 28.560,240.916 27.750 C 242.336 24.423,243.984 22.181,246.402 20.290 C 249.139 18.148,250.822 17.374,254.667 16.488 C 255.864 16.212,260.974 16.435,262.417 16.826 M279.684 37.482 C 279.497 37.670,279.220 38.450,279.003 39.405 C 278.567 41.319,278.700 41.744,279.790 41.917 C 280.135 41.972,280.717 42.095,281.083 42.190 C 281.450 42.286,282.187 42.463,282.720 42.585 C 283.254 42.707,283.798 42.848,283.929 42.898 C 284.288 43.036,284.230 44.382,283.833 45.123 C 283.650 45.465,283.500 45.847,283.500 45.972 C 283.500 46.097,283.392 46.436,283.260 46.725 C 283.129 47.014,282.825 47.737,282.585 48.333 C 282.346 48.929,282.046 49.642,281.919 49.917 C 281.625 50.552,281.070 51.793,280.839 52.333 C 280.741 52.563,280.339 53.350,279.946 54.083 C 279.553 54.817,278.832 56.167,278.343 57.083 C 277.853 58.000,277.351 58.868,277.227 59.013 C 277.102 59.158,277.000 59.323,277.000 59.381 C 277.000 59.438,276.831 59.743,276.625 60.059 C 276.419 60.374,275.950 61.132,275.583 61.742 C 275.217 62.353,274.236 63.879,273.405 65.134 C 272.573 66.390,271.695 67.717,271.454 68.083 C 269.963 70.350,262.315 80.446,261.669 81.000 C 261.615 81.046,261.088 81.683,260.497 82.417 C 259.054 84.207,257.997 85.333,257.759 85.333 C 257.651 85.333,257.005 84.686,256.323 83.895 C 255.641 83.104,254.988 82.358,254.872 82.238 C 254.756 82.117,254.388 81.658,254.054 81.217 C 253.721 80.777,253.400 80.379,253.343 80.333 C 253.157 80.185,251.228 77.759,251.070 77.474 C 250.985 77.323,250.668 76.910,250.364 76.558 C 249.883 76.001,246.798 71.920,246.205 71.058 C 246.089 70.889,245.621 70.225,245.166 69.583 C 244.436 68.556,243.553 67.243,240.727 62.988 C 240.327 62.385,240.000 61.813,240.000 61.717 C 240.000 61.620,239.883 61.444,239.740 61.325 C 239.598 61.207,239.373 60.879,239.241 60.597 C 239.110 60.314,238.813 59.783,238.582 59.417 C 238.350 59.050,238.083 58.600,237.989 58.417 C 237.894 58.233,237.637 57.783,237.418 57.417 C 236.999 56.716,233.732 50.174,233.293 49.159 C 233.067 48.637,232.870 48.136,231.920 45.667 C 231.510 44.601,231.148 43.428,230.919 42.420 C 230.613 41.074,230.263 40.801,229.024 40.939 C 227.353 41.125,226.245 41.699,226.278 42.362 C 226.318 43.152,226.749 44.828,227.064 45.417 C 227.211 45.692,227.332 46.088,227.332 46.298 C 227.333 46.508,227.483 46.974,227.667 47.333 C 227.850 47.693,228.000 48.072,228.000 48.177 C 228.000 48.281,228.108 48.603,228.240 48.891 C 228.371 49.180,228.677 49.904,228.919 50.500 C 229.496 51.923,229.986 53.023,230.180 53.333 C 230.266 53.471,230.420 53.771,230.522 54.000 C 231.229 55.578,233.178 59.354,233.481 59.734 C 233.561 59.834,233.846 60.329,234.113 60.833 C 234.612 61.773,235.728 63.636,236.539 64.883 C 236.790 65.268,237.048 65.695,237.114 65.832 C 237.379 66.384,242.008 73.174,242.626 73.917 C 242.702 74.008,243.128 74.604,243.572 75.241 C 244.679 76.828,249.555 83.090,250.917 84.672 C 251.283 85.099,251.966 85.891,252.433 86.432 C 252.900 86.974,253.747 87.960,254.314 88.623 C 255.610 90.138,257.603 92.167,257.797 92.167 C 258.202 92.167,264.718 84.763,267.250 81.426 C 267.617 80.942,268.404 79.939,269.000 79.195 C 269.596 78.452,270.485 77.298,270.975 76.630 C 271.465 75.963,272.393 74.704,273.037 73.833 C 274.000 72.530,278.081 66.433,279.508 64.167 C 281.614 60.821,284.541 55.322,285.940 52.083 C 286.256 51.350,286.625 50.551,286.758 50.308 C 286.891 50.064,287.000 49.769,287.000 49.652 C 287.000 49.535,287.143 49.134,287.319 48.761 C 288.065 47.176,289.567 42.216,289.753 40.721 C 289.884 39.676,289.623 39.433,288.070 39.157 C 287.528 39.060,286.783 38.877,286.417 38.750 C 286.050 38.623,285.320 38.472,284.794 38.415 C 284.268 38.357,283.630 38.210,283.377 38.087 C 283.124 37.965,282.504 37.811,282.000 37.746 C 281.496 37.681,280.881 37.524,280.633 37.397 C 280.063 37.105,280.061 37.105,279.684 37.482 M282.897 38.354 C 283.436 38.526,284.019 38.667,284.193 38.667 C 284.525 38.667,286.580 39.152,288.210 39.615 C 289.699 40.037,289.684 39.963,288.867 42.917 C 288.690 43.558,288.418 44.552,288.263 45.124 C 288.108 45.696,287.873 46.371,287.742 46.624 C 287.610 46.877,287.501 47.233,287.500 47.417 C 287.499 47.600,287.349 47.975,287.167 48.250 C 286.985 48.525,286.835 48.864,286.834 49.002 C 286.834 49.141,286.683 49.535,286.500 49.877 C 286.317 50.219,286.167 50.570,286.167 50.656 C 286.167 50.801,285.423 52.453,284.379 54.628 C 284.147 55.111,283.901 55.542,283.831 55.585 C 283.761 55.628,283.658 55.845,283.602 56.067 C 283.547 56.289,283.088 57.199,282.584 58.090 C 282.079 58.981,281.667 59.743,281.667 59.784 C 281.667 59.825,281.097 60.809,280.402 61.971 C 279.147 64.066,278.991 64.317,277.734 66.250 C 277.376 66.800,277.008 67.372,276.917 67.521 C 276.317 68.498,274.224 71.583,273.595 72.417 C 273.180 72.967,272.445 73.964,271.962 74.633 C 270.677 76.412,268.954 78.698,268.045 79.830 C 264.443 84.314,262.643 86.489,261.351 87.917 C 261.102 88.192,260.279 89.110,259.522 89.958 C 257.986 91.680,257.770 91.763,256.946 90.958 C 256.350 90.376,252.698 86.194,250.662 83.762 C 245.826 77.985,236.778 65.282,235.280 62.167 C 235.214 62.029,234.979 61.617,234.758 61.250 C 234.537 60.883,234.239 60.358,234.095 60.083 C 233.951 59.808,233.499 58.983,233.090 58.250 C 232.400 57.014,230.536 53.294,229.832 51.750 C 229.298 50.579,228.720 49.125,228.173 47.583 C 227.881 46.758,227.495 45.702,227.317 45.237 C 227.037 44.507,226.671 42.812,226.668 42.231 C 226.666 41.927,228.316 41.333,229.163 41.333 C 230.142 41.333,230.414 41.610,230.639 42.833 C 230.732 43.337,230.926 43.975,231.070 44.250 C 231.214 44.525,231.332 44.861,231.332 44.997 C 231.333 45.244,231.555 45.844,232.628 48.500 C 233.213 49.948,236.373 56.380,237.091 57.583 C 237.310 57.950,237.623 58.492,237.786 58.787 C 239.095 61.151,243.946 68.657,245.337 70.471 C 245.525 70.716,246.830 72.467,248.236 74.361 C 252.093 79.559,256.803 85.293,257.536 85.686 C 257.838 85.848,258.008 85.734,258.994 84.708 C 261.076 82.542,267.780 74.007,270.286 70.333 C 270.630 69.829,270.970 69.342,271.042 69.250 C 271.593 68.549,273.219 66.201,273.292 66.000 C 273.342 65.862,273.520 65.597,273.688 65.410 C 274.112 64.936,277.646 59.115,278.945 56.750 C 279.753 55.279,282.333 50.058,282.334 49.892 C 282.335 49.814,282.452 49.526,282.595 49.253 C 282.899 48.670,283.587 46.931,283.750 46.333 C 283.813 46.104,284.001 45.617,284.168 45.250 C 285.021 43.379,284.794 42.631,283.291 42.354 C 282.764 42.257,282.190 42.102,282.017 42.009 C 281.844 41.916,281.270 41.790,280.742 41.728 C 279.086 41.533,278.906 41.077,279.580 38.777 L 279.865 37.804 280.891 37.923 C 281.455 37.988,282.358 38.182,282.897 38.354 M50.500 74.494 C 47.991 74.961,46.956 75.210,45.917 75.597 C 45.275 75.837,44.478 76.134,44.146 76.258 C 41.273 77.332,37.221 80.796,35.772 83.417 C 35.620 83.692,35.426 84.029,35.342 84.167 C 33.463 87.212,33.229 93.229,34.853 96.768 C 35.025 97.145,35.167 97.496,35.167 97.548 C 35.167 98.388,38.576 102.024,40.599 103.341 C 42.134 104.340,42.345 104.469,42.833 104.700 C 43.063 104.809,43.362 104.983,43.500 105.087 C 43.637 105.191,44.575 105.631,45.583 106.064 C 46.592 106.498,47.616 106.961,47.859 107.093 C 48.102 107.225,48.403 107.333,48.528 107.333 C 48.653 107.333,49.035 107.483,49.377 107.667 C 49.719 107.850,50.080 108.000,50.178 108.000 C 50.554 108.000,54.588 110.092,55.481 110.750 C 59.602 113.787,57.867 119.556,52.833 119.556 C 49.718 119.556,48.055 117.678,47.334 113.347 C 47.266 112.942,47.074 112.511,46.907 112.389 C 46.510 112.098,34.181 112.063,33.357 112.350 C 32.537 112.636,32.531 112.796,33.162 117.917 C 33.515 120.775,35.250 124.253,37.412 126.432 C 38.953 127.986,42.164 130.163,42.919 130.166 C 43.012 130.166,43.368 130.317,43.710 130.500 C 44.052 130.683,44.445 130.833,44.582 130.833 C 44.720 130.833,45.264 130.974,45.791 131.145 C 48.591 132.057,54.584 132.333,57.250 131.673 C 57.617 131.582,58.179 131.506,58.500 131.504 C 59.272 131.499,62.454 130.429,63.833 129.711 C 66.030 128.568,68.420 126.514,69.570 124.780 C 70.191 123.845,71.333 121.615,71.333 121.339 C 71.333 121.245,71.477 120.736,71.654 120.209 C 72.465 117.782,72.494 111.387,71.701 109.905 C 71.607 109.728,71.405 109.229,71.252 108.795 C 70.609 106.966,68.873 104.867,66.479 103.024 C 65.051 101.925,64.840 101.786,62.917 100.692 C 61.279 99.760,57.369 97.833,57.116 97.833 C 56.943 97.833,53.572 96.235,51.870 95.346 C 47.233 92.924,47.055 87.930,51.570 86.925 C 54.684 86.232,56.215 87.361,57.433 91.246 C 57.714 92.141,57.873 92.162,64.614 92.164 C 72.374 92.167,72.216 92.219,71.851 89.810 C 71.466 87.268,71.212 86.005,71.045 85.798 C 70.950 85.680,70.819 85.338,70.755 85.039 C 70.180 82.348,66.741 78.654,63.083 76.799 C 61.135 75.810,59.967 75.400,57.250 74.751 C 55.927 74.436,51.686 74.274,50.500 74.494 M214.417 74.497 C 213.958 74.577,213.321 74.723,213.001 74.821 C 212.681 74.920,212.193 75.003,211.918 75.006 C 211.642 75.009,211.117 75.156,210.750 75.333 C 210.383 75.510,209.933 75.659,209.750 75.664 C 209.187 75.680,205.656 77.545,204.333 78.526 C 201.369 80.724,199.494 83.330,198.238 87.000 C 197.796 88.290,197.697 92.995,198.083 94.333 C 198.228 94.837,198.411 95.475,198.488 95.750 C 199.358 98.829,201.633 101.369,206.167 104.321 C 206.581 104.591,209.460 106.011,210.417 106.418 C 210.692 106.535,211.262 106.789,211.685 106.982 C 212.107 107.175,212.537 107.333,212.639 107.333 C 212.741 107.333,213.183 107.492,213.621 107.687 C 215.011 108.303,215.909 108.712,216.167 108.845 C 216.304 108.916,216.904 109.223,217.500 109.527 C 221.212 111.424,222.414 113.383,221.593 116.197 C 220.531 119.834,215.528 120.871,213.154 117.946 C 212.269 116.856,211.897 115.845,211.262 112.812 C 211.129 112.177,211.059 112.171,204.083 112.171 C 196.328 112.172,196.915 112.001,196.923 114.255 C 196.930 116.248,197.246 118.801,197.586 119.616 C 197.722 119.941,197.833 120.315,197.833 120.447 C 197.833 120.683,198.537 122.344,198.844 122.833 C 198.930 122.971,199.078 123.263,199.172 123.483 C 199.359 123.918,200.824 125.825,201.497 126.509 C 202.939 127.974,204.907 129.237,207.750 130.520 C 208.090 130.674,209.221 131.009,210.417 131.312 C 214.398 132.320,220.669 132.243,224.042 131.145 C 224.570 130.974,225.121 130.833,225.267 130.833 C 225.413 130.833,225.731 130.726,225.974 130.595 C 226.218 130.463,226.867 130.152,227.417 129.904 C 230.465 128.525,233.524 125.612,234.668 123.000 C 234.768 122.771,234.997 122.278,235.175 121.906 C 235.354 121.533,235.500 121.098,235.500 120.939 C 235.500 120.780,235.609 120.439,235.743 120.181 C 236.505 118.706,236.509 111.467,235.747 109.995 C 235.611 109.732,235.500 109.433,235.500 109.331 C 235.500 106.524,229.514 101.547,222.292 98.350 C 219.514 97.121,218.188 96.519,217.833 96.328 C 217.696 96.254,217.096 95.944,216.500 95.639 C 211.938 93.308,210.890 89.726,214.127 87.522 C 217.142 85.469,220.352 87.037,221.410 91.080 C 221.694 92.166,221.662 92.161,228.719 92.164 C 236.087 92.167,235.992 92.186,235.997 90.708 C 235.999 90.319,236.075 90.000,236.167 90.000 C 236.258 90.000,236.333 90.089,236.333 90.197 C 236.333 90.306,236.472 90.700,236.642 91.072 C 236.811 91.445,237.307 92.688,237.743 93.833 C 238.179 94.979,238.640 96.116,238.768 96.359 C 238.896 96.602,239.000 96.894,239.000 97.007 C 239.000 97.121,239.141 97.522,239.314 97.898 C 239.487 98.275,239.942 99.408,240.325 100.417 C 240.708 101.425,241.162 102.587,241.334 103.000 C 241.506 103.412,241.844 104.275,242.085 104.917 C 242.326 105.558,242.631 106.320,242.762 106.609 C 242.893 106.897,243.000 107.216,243.000 107.317 C 243.000 107.419,243.150 107.781,243.333 108.123 C 243.517 108.465,243.667 108.840,243.667 108.956 C 243.667 109.073,243.817 109.448,244.000 109.790 C 244.183 110.132,244.333 110.505,244.333 110.618 C 244.333 110.732,244.479 111.145,244.656 111.537 C 244.833 111.929,245.146 112.700,245.350 113.250 C 245.554 113.800,245.859 114.555,246.027 114.928 C 246.196 115.300,246.336 115.713,246.339 115.844 C 246.342 115.976,246.454 116.229,246.589 116.407 C 246.723 116.585,246.833 116.842,246.833 116.979 C 246.833 117.116,246.971 117.533,247.139 117.906 C 247.308 118.278,247.613 119.033,247.817 119.583 C 248.021 120.133,248.333 120.904,248.511 121.296 C 248.688 121.688,248.833 122.102,248.833 122.215 C 248.833 122.329,248.983 122.701,249.167 123.044 C 249.350 123.386,249.500 123.761,249.500 123.877 C 249.500 123.993,249.650 124.368,249.833 124.710 C 250.017 125.052,250.167 125.445,250.167 125.583 C 250.167 125.721,250.317 126.114,250.500 126.456 C 250.683 126.799,250.833 127.177,250.833 127.297 C 250.833 127.418,250.953 127.748,251.099 128.030 C 251.343 128.503,251.342 128.598,251.081 129.230 C 250.925 129.608,250.647 130.292,250.462 130.750 C 250.278 131.208,249.986 131.892,249.813 132.268 C 249.641 132.645,249.500 133.012,249.500 133.083 C 249.500 133.155,249.359 133.522,249.187 133.898 C 249.014 134.275,248.705 134.996,248.500 135.500 C 248.295 136.004,247.986 136.725,247.813 137.102 C 247.641 137.478,247.500 137.895,247.500 138.027 C 247.500 138.159,247.431 138.338,247.348 138.425 C 247.264 138.512,246.920 139.296,246.583 140.167 C 246.247 141.037,245.903 141.821,245.819 141.908 C 245.735 141.995,245.667 142.184,245.667 142.327 C 245.667 142.471,245.517 142.868,245.333 143.210 C 244.550 144.671,244.531 144.667,251.877 144.667 L 258.109 144.667 258.455 144.292 C 258.645 144.085,258.879 143.654,258.975 143.333 C 259.070 143.012,259.346 142.225,259.588 141.583 C 259.830 140.942,260.134 140.087,260.263 139.685 C 260.392 139.282,260.566 138.870,260.648 138.768 C 260.731 138.667,260.878 138.321,260.976 138.000 C 261.298 136.940,261.862 135.419,261.996 135.250 C 262.069 135.158,262.183 134.821,262.250 134.500 C 262.317 134.179,262.439 133.833,262.520 133.732 C 262.602 133.630,262.775 133.218,262.905 132.815 C 263.271 131.688,263.655 130.634,263.902 130.083 C 264.025 129.808,264.218 129.321,264.331 129.000 C 264.830 127.577,265.031 127.049,265.257 126.558 C 265.391 126.269,265.500 125.940,265.500 125.826 C 265.500 125.713,265.640 125.312,265.810 124.935 C 266.101 124.294,266.212 124.000,266.687 122.625 C 266.790 122.327,266.975 121.858,267.098 121.583 C 267.345 121.033,267.729 119.979,268.095 118.851 C 268.225 118.449,268.399 118.036,268.482 117.935 C 268.564 117.833,268.711 117.487,268.807 117.167 C 268.903 116.846,269.178 116.058,269.418 115.417 C 269.659 114.775,269.932 114.025,270.026 113.750 C 270.119 113.475,270.294 113.025,270.414 112.750 C 270.797 111.870,271.333 110.415,271.333 110.258 C 271.333 110.174,271.470 109.800,271.637 109.428 C 271.804 109.055,272.036 108.487,272.153 108.167 C 272.270 107.846,272.550 107.096,272.774 106.500 C 272.999 105.904,273.254 105.192,273.340 104.917 C 273.426 104.642,273.601 104.192,273.728 103.917 C 273.855 103.642,274.051 103.154,274.164 102.833 C 274.702 101.302,274.854 100.892,275.000 100.583 C 275.164 100.237,275.532 99.228,275.912 98.083 C 276.034 97.717,276.253 97.192,276.399 96.917 C 276.545 96.642,276.665 96.252,276.666 96.052 C 276.666 95.851,276.740 95.641,276.829 95.586 C 276.918 95.531,277.103 95.133,277.241 94.701 C 277.611 93.536,278.074 92.294,278.279 91.917 C 278.379 91.733,278.516 91.323,278.585 91.005 C 278.653 90.688,278.792 90.295,278.893 90.133 C 279.412 89.302,279.017 89.250,272.167 89.250 C 265.163 89.250,265.458 89.204,265.164 90.352 C 264.993 91.017,264.562 92.344,264.250 93.167 C 263.908 94.068,263.495 95.340,263.276 96.167 C 263.167 96.579,262.995 97.067,262.894 97.250 C 262.793 97.433,262.658 97.883,262.593 98.250 C 262.528 98.617,262.380 99.067,262.263 99.250 C 262.146 99.433,261.997 99.872,261.931 100.225 C 261.866 100.578,261.710 101.103,261.585 101.392 C 261.356 101.921,261.007 102.952,260.589 104.333 C 260.464 104.746,260.271 105.346,260.161 105.667 C 260.051 105.987,259.832 106.625,259.676 107.083 C 259.519 107.542,259.262 108.292,259.105 108.750 C 258.947 109.208,258.714 109.921,258.588 110.333 C 258.032 112.142,257.669 112.847,257.666 112.125 C 257.665 112.010,257.550 111.697,257.410 111.428 C 257.269 111.159,257.086 110.671,257.002 110.344 C 256.791 109.522,256.195 107.810,255.999 107.464 C 255.910 107.307,255.767 106.894,255.680 106.547 C 255.496 105.808,255.045 104.461,254.744 103.750 C 254.497 103.166,254.073 101.901,253.766 100.830 C 253.647 100.415,253.475 99.928,253.383 99.746 C 253.199 99.384,252.772 98.169,252.419 97.000 C 252.294 96.587,251.994 95.725,251.752 95.083 C 251.510 94.442,251.240 93.628,251.152 93.274 C 251.063 92.921,250.880 92.418,250.745 92.157 C 250.610 91.897,250.500 91.562,250.500 91.415 C 250.500 90.697,249.663 89.374,249.143 89.270 C 247.610 88.964,236.838 89.162,236.497 89.503 L 236.161 89.839 235.985 89.378 C 235.816 88.932,235.688 88.414,235.358 86.833 C 234.472 82.582,231.342 78.850,226.833 76.666 C 226.237 76.378,225.563 76.044,225.333 75.923 C 225.104 75.803,224.668 75.652,224.364 75.587 C 224.060 75.522,223.610 75.364,223.364 75.235 C 223.118 75.107,222.685 75.002,222.401 75.001 C 222.118 75.000,221.518 74.883,221.068 74.740 C 220.105 74.435,215.701 74.274,214.417 74.497 M55.595 75.087 C 56.925 75.227,58.291 75.446,58.632 75.573 C 58.972 75.701,59.475 75.853,59.750 75.912 C 61.437 76.274,64.943 78.279,66.893 79.997 C 68.162 81.116,70.500 84.820,70.500 85.712 C 70.500 85.876,70.617 86.290,70.760 86.630 C 71.140 87.537,71.439 90.922,71.168 91.248 C 70.988 91.465,70.064 91.500,64.575 91.500 C 57.590 91.500,57.667 91.511,57.667 90.530 C 57.666 89.888,56.809 88.168,56.172 87.531 C 52.603 83.962,46.173 87.939,48.132 92.504 C 48.925 94.350,50.878 95.624,57.333 98.503 C 59.604 99.517,61.160 100.286,63.180 101.397 C 67.683 103.872,70.304 106.867,71.440 110.833 C 71.870 112.337,71.893 117.820,71.474 119.083 C 71.322 119.542,71.156 120.156,71.105 120.449 C 70.490 123.982,66.120 128.512,61.804 130.090 C 49.946 134.424,35.822 128.999,34.015 119.417 C 33.928 118.958,33.778 118.375,33.681 118.120 C 33.463 117.548,33.245 113.710,33.396 113.107 L 33.506 112.667 40.091 112.667 L 46.675 112.667 46.837 113.094 C 46.927 113.329,47.000 113.808,47.000 114.158 C 47.000 114.889,47.645 116.708,48.236 117.645 C 51.083 122.155,58.209 120.151,58.232 114.833 C 58.244 111.929,56.708 110.397,51.333 107.955 C 50.921 107.767,50.468 107.560,50.328 107.495 C 50.187 107.429,49.174 107.019,48.078 106.583 C 40.702 103.651,37.217 100.853,35.101 96.167 C 34.315 94.427,33.885 90.194,34.340 88.666 C 34.435 88.345,34.586 87.711,34.676 87.256 C 35.792 81.577,42.801 75.995,49.833 75.183 C 50.704 75.082,51.642 74.974,51.917 74.942 C 52.913 74.825,53.215 74.837,55.595 75.087 M219.791 75.101 C 221.143 75.249,222.438 75.464,222.667 75.579 C 222.896 75.694,223.383 75.843,223.750 75.910 C 224.117 75.976,224.604 76.124,224.833 76.237 C 225.063 76.351,225.814 76.717,226.503 77.052 C 231.887 79.664,234.916 83.945,235.271 89.447 C 235.363 90.861,235.339 91.227,235.151 91.347 C 235.022 91.428,232.085 91.496,228.625 91.497 C 221.640 91.500,221.672 91.505,221.663 90.375 C 221.626 85.738,214.101 84.749,212.165 89.126 C 210.634 92.587,212.701 94.678,221.399 98.467 C 228.107 101.390,232.754 104.827,234.458 108.127 C 234.848 108.881,235.167 109.601,235.167 109.727 C 235.167 109.853,235.317 110.426,235.500 111.000 C 236.790 115.039,235.449 121.609,232.570 125.350 C 228.156 131.087,216.824 133.270,208.000 130.083 C 203.121 128.321,198.932 123.851,198.081 119.500 C 198.018 119.179,197.867 118.579,197.745 118.167 C 197.446 117.154,197.270 113.430,197.501 112.998 C 197.673 112.676,197.862 112.667,204.238 112.667 C 211.541 112.667,211.000 112.572,211.000 113.846 C 211.000 120.152,219.224 122.488,221.854 116.930 C 223.182 114.122,222.130 111.748,218.581 109.545 C 217.816 109.070,214.775 107.660,212.922 106.920 C 211.826 106.483,210.813 106.068,210.672 105.999 C 210.532 105.930,209.929 105.658,209.333 105.395 C 206.123 103.977,202.755 101.579,201.163 99.579 C 199.168 97.071,198.035 93.550,198.217 90.417 C 198.551 84.652,201.929 79.917,207.781 77.012 C 208.348 76.730,208.895 76.500,208.995 76.500 C 209.096 76.500,209.345 76.395,209.548 76.266 C 209.751 76.138,210.179 75.984,210.500 75.924 C 210.821 75.864,211.346 75.707,211.667 75.575 C 212.167 75.369,215.458 74.913,216.874 74.853 C 217.126 74.842,218.438 74.954,219.791 75.101 M177.442 75.805 C 177.196 76.077,177.166 76.785,177.164 82.430 C 177.163 85.906,177.106 88.837,177.039 88.943 C 176.957 89.072,176.031 89.155,174.250 89.193 C 172.783 89.224,171.490 89.311,171.375 89.385 C 171.072 89.581,171.074 98.549,171.377 98.801 C 171.498 98.901,172.712 98.998,174.217 99.029 C 176.331 99.073,176.877 99.132,177.004 99.333 C 177.100 99.486,177.163 105.600,177.164 115.008 C 177.166 126.780,177.214 130.481,177.367 130.633 C 177.673 130.940,189.722 130.918,189.977 130.611 C 190.108 130.453,190.174 125.914,190.206 114.875 C 190.230 106.342,190.312 99.299,190.388 99.222 C 190.465 99.146,191.665 99.059,193.055 99.029 C 196.477 98.956,196.167 99.449,196.167 94.078 C 196.167 88.759,196.498 89.269,192.990 89.194 C 189.801 89.126,190.172 90.041,190.169 82.234 C 190.167 76.458,190.147 76.034,189.862 75.776 C 189.371 75.332,177.846 75.359,177.442 75.805 M189.284 75.966 C 189.434 76.061,189.498 77.756,189.534 82.622 C 189.572 87.696,189.631 89.199,189.800 89.367 C 189.951 89.519,190.819 89.608,192.716 89.667 L 195.417 89.750 195.461 94.000 C 195.515 99.141,195.818 98.667,192.489 98.667 C 190.415 98.667,190.006 98.709,189.812 98.942 C 189.622 99.171,189.576 101.896,189.538 114.859 L 189.493 130.500 183.663 130.500 L 177.833 130.500 177.831 115.042 C 177.829 102.932,177.783 99.493,177.618 99.167 C 177.409 98.753,177.389 98.749,174.634 98.667 C 173.108 98.621,171.798 98.521,171.722 98.445 C 171.509 98.232,171.450 90.405,171.658 90.016 C 171.819 89.715,172.051 89.685,174.575 89.636 C 176.543 89.598,177.379 89.522,177.534 89.367 C 177.702 89.198,177.761 87.699,177.797 82.623 C 177.833 77.724,177.895 76.064,178.047 75.967 C 178.311 75.800,189.021 75.799,189.284 75.966 M98.417 88.006 C 95.512 88.324,92.157 89.940,89.774 92.169 C 88.426 93.430,88.500 93.472,88.500 91.442 C 88.500 88.947,89.025 89.139,82.378 89.200 C 78.023 89.240,76.827 89.297,76.609 89.479 C 76.289 89.745,76.178 143.829,76.496 144.333 C 76.752 144.739,88.578 144.799,89.022 144.397 C 89.318 144.129,89.333 143.717,89.333 136.141 C 89.333 127.424,89.294 127.740,90.279 128.558 C 91.824 129.839,94.792 131.500,95.538 131.500 C 95.661 131.500,96.209 131.663,96.756 131.862 C 98.251 132.406,104.737 132.405,106.244 131.860 C 106.791 131.662,107.373 131.500,107.536 131.500 C 107.700 131.500,108.114 131.350,108.456 131.167 C 108.799 130.983,109.155 130.833,109.248 130.833 C 110.374 130.828,114.855 127.404,116.660 125.170 C 117.068 124.664,117.449 124.212,117.507 124.167 C 117.709 124.006,118.830 122.073,119.344 121.000 C 120.453 118.684,120.751 117.843,121.087 116.083 C 121.209 115.442,121.390 114.706,121.488 114.447 C 121.770 113.708,121.722 106.917,121.428 105.905 C 121.297 105.453,121.137 104.708,121.073 104.250 C 121.009 103.792,120.865 103.229,120.752 103.000 C 120.640 102.771,120.498 102.323,120.437 102.004 C 120.336 101.472,120.119 100.927,119.373 99.333 C 116.874 93.990,112.643 90.338,106.750 88.437 C 105.105 87.906,101.184 87.704,98.417 88.006 M144.646 88.004 C 143.673 88.077,142.473 88.250,141.980 88.390 C 140.118 88.916,139.898 88.983,139.167 89.248 C 138.301 89.561,137.030 90.119,136.667 90.346 C 136.529 90.432,136.304 90.550,136.167 90.608 C 133.978 91.530,130.257 94.947,128.478 97.667 C 127.241 99.558,126.001 102.040,125.999 102.629 C 125.998 102.787,125.884 103.135,125.744 103.403 C 125.605 103.670,125.419 104.383,125.331 104.986 C 125.243 105.590,125.085 106.383,124.980 106.750 C 124.669 107.830,124.717 112.006,125.061 113.833 C 126.516 121.565,130.716 126.918,138.130 130.490 C 138.523 130.679,138.934 130.833,139.044 130.833 C 139.154 130.833,139.620 130.976,140.080 131.151 C 140.540 131.326,141.329 131.553,141.833 131.656 C 142.337 131.759,143.050 131.913,143.417 131.998 C 144.592 132.270,150.460 132.203,151.590 131.904 C 152.136 131.759,152.921 131.578,153.333 131.501 C 156.469 130.915,160.580 128.588,163.341 125.836 C 166.037 123.149,167.739 120.241,169.062 116.062 C 169.438 114.876,169.748 112.101,169.749 109.917 C 169.751 106.068,169.119 103.248,167.528 100.004 C 166.918 98.761,166.798 98.564,165.591 96.833 C 164.257 94.919,162.183 92.954,160.076 91.607 C 159.338 91.136,158.588 90.656,158.409 90.541 C 158.230 90.425,157.971 90.285,157.833 90.229 C 157.696 90.173,157.283 89.990,156.917 89.823 C 153.476 88.256,149.384 87.649,144.646 88.004 M301.800 88.014 C 301.094 88.088,300.307 88.255,300.050 88.385 C 299.793 88.514,299.363 88.673,299.094 88.738 C 297.866 89.033,294.000 92.037,294.000 92.696 C 294.000 92.771,293.925 92.833,293.833 92.833 C 293.734 92.833,293.666 92.207,293.664 91.292 C 293.663 90.444,293.590 89.638,293.503 89.500 C 293.284 89.153,282.145 89.122,281.800 89.467 C 281.526 89.741,281.390 129.688,281.661 130.401 L 281.825 130.833 287.963 130.833 C 292.514 130.833,294.152 130.782,294.300 130.633 C 294.452 130.482,294.500 127.702,294.500 119.142 C 294.500 104.626,294.645 103.364,296.522 101.529 C 298.652 99.447,303.594 99.453,305.681 101.540 C 307.402 103.261,307.500 104.174,307.500 118.450 C 307.500 127.643,307.546 130.333,307.708 130.554 C 307.899 130.814,308.434 130.834,314.083 130.794 L 320.250 130.750 320.301 116.167 C 320.354 100.787,320.380 101.511,319.660 98.500 C 319.430 97.542,318.964 96.267,318.744 96.000 C 318.632 95.862,318.482 95.563,318.412 95.333 C 317.941 93.793,314.575 90.416,312.667 89.569 C 312.529 89.508,312.028 89.280,311.552 89.062 C 311.076 88.845,310.566 88.667,310.419 88.667 C 310.271 88.667,309.940 88.558,309.684 88.425 C 308.725 87.930,304.619 87.715,301.800 88.014 M343.836 88.015 C 343.059 88.090,342.121 88.261,341.753 88.396 C 341.385 88.531,340.821 88.693,340.500 88.757 C 340.179 88.820,339.842 88.928,339.750 88.998 C 339.658 89.067,339.301 89.214,338.955 89.326 C 335.631 90.397,330.224 94.932,328.713 97.917 C 328.574 98.192,328.365 98.529,328.249 98.667 C 327.632 99.396,326.137 102.949,325.935 104.167 C 325.881 104.487,325.724 105.160,325.585 105.661 C 325.181 107.125,325.231 112.887,325.663 114.511 C 325.844 115.193,325.996 115.900,326.002 116.083 C 326.007 116.267,326.156 116.717,326.333 117.083 C 326.510 117.450,326.658 117.850,326.661 117.972 C 326.678 118.647,328.766 122.293,330.065 123.917 C 331.682 125.937,335.290 128.986,336.871 129.669 C 337.079 129.759,337.362 129.903,337.500 129.989 C 338.163 130.405,340.898 131.499,341.281 131.502 C 341.447 131.503,342.059 131.653,342.640 131.835 C 344.031 132.272,350.348 132.326,351.839 131.915 C 352.340 131.777,353.125 131.596,353.583 131.513 C 354.042 131.429,354.642 131.243,354.917 131.098 C 355.192 130.954,355.519 130.835,355.644 130.834 C 356.801 130.829,361.550 127.749,363.671 125.628 C 365.888 123.411,368.812 118.660,368.839 117.232 C 368.842 117.058,368.952 116.729,369.083 116.500 C 369.469 115.826,369.406 115.024,368.958 114.915 C 368.752 114.865,365.850 114.845,362.509 114.870 L 356.434 114.917 355.759 115.909 C 354.446 117.837,353.211 118.809,350.839 119.779 C 349.762 120.220,345.741 120.220,344.662 119.779 C 342.430 118.867,341.217 117.965,340.140 116.417 C 339.471 115.455,338.667 113.814,338.667 113.411 C 338.667 113.259,338.547 112.724,338.401 112.222 C 337.375 108.693,339.352 103.346,342.417 101.360 C 344.285 100.150,344.498 100.098,347.583 100.105 C 351.909 100.115,354.262 101.447,356.083 104.913 C 356.464 105.639,356.767 105.671,362.953 105.626 C 370.321 105.572,369.805 105.896,368.468 102.167 C 366.188 95.807,360.364 90.440,353.917 88.755 C 353.458 88.635,352.881 88.457,352.634 88.359 C 351.537 87.926,346.722 87.737,343.836 88.015 M106.083 88.818 C 111.398 90.218,115.528 93.372,118.131 98.019 C 118.737 99.100,118.809 99.241,119.136 100.000 C 119.992 101.982,120.139 102.416,120.663 104.500 C 121.411 107.476,121.410 113.031,120.662 116.000 C 120.349 117.242,119.997 118.431,119.849 118.750 C 119.763 118.933,119.497 119.533,119.257 120.083 C 119.017 120.633,118.752 121.196,118.668 121.333 C 118.584 121.471,118.277 121.994,117.985 122.495 C 115.957 125.986,111.876 129.439,108.250 130.730 C 105.558 131.689,100.496 132.163,98.293 131.662 C 97.811 131.553,97.079 131.397,96.667 131.317 C 94.736 130.939,92.484 129.744,90.206 127.888 C 88.758 126.709,88.833 126.272,88.833 135.836 C 88.833 143.246,88.805 144.142,88.570 144.232 C 88.099 144.413,77.502 144.346,77.156 144.161 C 76.756 143.947,76.635 90.265,77.033 89.867 C 77.375 89.525,87.933 89.586,88.066 89.930 C 88.121 90.075,88.167 90.932,88.167 91.833 C 88.167 94.295,88.348 94.496,89.429 93.237 C 90.966 91.447,94.294 89.425,96.583 88.890 C 97.133 88.762,97.808 88.592,98.083 88.512 C 99.403 88.130,104.165 88.312,106.083 88.818 M151.667 88.735 C 153.645 89.138,155.048 89.525,155.917 89.908 C 162.031 92.606,166.012 96.769,168.120 102.667 C 169.638 106.915,169.650 113.443,168.146 117.198 C 167.974 117.627,167.833 118.062,167.833 118.165 C 167.833 119.903,163.059 125.990,160.265 127.812 C 157.988 129.297,156.943 129.801,154.000 130.831 C 151.893 131.569,147.270 132.006,145.083 131.675 C 144.533 131.592,143.544 131.444,142.884 131.347 C 137.138 130.500,131.189 126.315,128.059 120.917 C 127.671 120.248,126.833 118.458,126.833 118.299 C 126.833 118.209,126.724 117.936,126.590 117.692 C 126.333 117.226,125.913 115.705,125.617 114.167 C 125.385 112.961,125.396 107.004,125.632 105.833 C 127.119 98.470,131.558 93.082,138.750 89.908 C 142.101 88.430,147.680 87.923,151.667 88.735 M308.833 88.741 C 313.391 89.905,316.362 92.217,318.193 96.026 C 319.855 99.481,319.917 100.233,319.917 116.917 L 319.917 130.417 313.967 130.460 L 308.017 130.504 307.964 117.710 C 307.905 103.636,307.972 104.587,306.874 102.417 C 304.774 98.270,297.437 98.402,295.110 102.629 C 294.098 104.468,294.111 104.277,294.046 117.960 L 293.986 130.504 288.118 130.460 L 282.250 130.417 282.250 110.083 L 282.250 89.750 287.750 89.750 L 293.250 89.750 293.291 91.333 C 293.361 93.974,293.533 94.186,294.539 92.875 C 296.087 90.857,298.129 89.409,300.167 88.885 C 300.671 88.755,301.308 88.586,301.583 88.508 C 302.768 88.175,307.167 88.316,308.833 88.741 M351.635 88.688 C 356.493 89.756,359.884 91.548,363.095 94.745 C 364.598 96.242,366.229 98.354,366.671 99.376 C 366.760 99.582,366.902 99.862,366.986 100.000 C 367.311 100.527,367.833 101.686,367.834 101.880 C 367.835 101.992,367.953 102.308,368.097 102.583 C 368.514 103.380,368.740 104.851,368.471 105.021 C 368.218 105.182,357.335 105.221,356.924 105.063 C 356.776 105.006,356.534 104.725,356.386 104.438 C 353.607 99.027,345.648 97.628,341.180 101.764 C 334.954 107.528,337.520 118.840,345.417 120.442 C 349.828 121.338,353.708 119.818,356.060 116.274 C 356.389 115.778,356.779 115.326,356.926 115.269 C 357.320 115.118,368.633 115.144,368.727 115.296 C 369.083 115.873,367.365 119.972,365.742 122.418 C 364.533 124.238,359.830 128.667,359.105 128.667 C 359.065 128.667,358.594 128.912,358.058 129.212 C 357.197 129.693,356.126 130.138,354.167 130.829 C 353.846 130.942,353.208 131.105,352.750 131.191 C 352.292 131.277,351.371 131.457,350.704 131.590 C 339.839 133.767,328.240 125.487,326.061 114.000 C 323.197 98.902,336.809 85.430,351.635 88.688 M250.039 91.583 C 250.394 92.592,250.759 93.679,250.850 94.000 C 250.941 94.321,251.085 94.733,251.169 94.917 C 251.408 95.439,251.999 97.182,252.184 97.910 C 252.276 98.273,252.410 98.648,252.482 98.743 C 252.554 98.839,252.862 99.704,253.167 100.667 C 253.471 101.629,253.779 102.495,253.851 102.590 C 253.923 102.685,254.057 103.060,254.149 103.423 C 254.240 103.786,254.661 105.058,255.084 106.250 C 255.507 107.442,255.957 108.754,256.084 109.167 C 256.284 109.819,256.490 110.392,257.360 112.708 C 257.722 113.671,258.431 112.891,258.913 111.000 C 258.972 110.771,259.119 110.321,259.240 110.000 C 259.362 109.679,259.817 108.292,260.252 106.917 C 260.687 105.542,261.146 104.180,261.272 103.891 C 261.397 103.603,261.500 103.242,261.500 103.089 C 261.500 102.937,261.638 102.460,261.806 102.031 C 262.179 101.081,262.606 99.840,262.905 98.833 C 263.028 98.421,263.212 97.858,263.314 97.583 C 263.847 96.143,265.500 91.008,265.500 90.794 C 265.500 90.657,265.655 90.347,265.845 90.106 L 266.191 89.667 272.262 89.667 L 278.333 89.667 278.333 90.038 C 278.333 90.382,278.098 91.076,277.326 93.000 C 277.010 93.787,276.555 95.009,275.976 96.622 C 275.786 97.151,275.536 97.808,275.420 98.083 C 275.304 98.358,275.002 99.146,274.749 99.833 C 274.284 101.096,273.418 103.383,272.824 104.920 C 272.646 105.380,272.500 105.830,272.499 105.920 C 272.498 106.010,272.379 106.308,272.233 106.583 C 272.087 106.858,271.868 107.383,271.747 107.750 C 271.627 108.117,271.330 108.942,271.089 109.583 C 270.847 110.225,270.584 110.938,270.503 111.167 C 270.422 111.396,270.121 112.183,269.833 112.917 C 269.545 113.650,269.237 114.490,269.149 114.783 C 269.061 115.076,268.879 115.526,268.746 115.783 C 268.612 116.040,268.502 116.324,268.501 116.413 C 268.500 116.573,268.009 117.916,267.587 118.917 C 267.392 119.378,266.973 120.498,266.121 122.833 C 265.937 123.337,265.693 123.975,265.578 124.250 C 265.463 124.525,265.221 125.162,265.041 125.667 C 264.725 126.552,263.661 129.364,262.992 131.087 C 262.813 131.547,262.667 131.985,262.667 132.061 C 262.667 132.137,262.558 132.436,262.424 132.725 C 262.200 133.210,262.067 133.559,261.398 135.417 C 261.266 135.783,261.084 136.233,260.993 136.417 C 260.902 136.600,260.758 136.975,260.673 137.250 C 260.508 137.779,259.938 139.307,259.337 140.833 C 259.139 141.337,258.843 142.139,258.681 142.615 C 258.518 143.091,258.258 143.673,258.104 143.909 L 257.823 144.337 251.786 144.294 L 245.750 144.250 245.773 143.722 C 245.786 143.432,245.946 142.869,246.128 142.472 C 246.311 142.075,246.627 141.337,246.831 140.833 C 247.034 140.329,247.304 139.692,247.429 139.417 C 247.731 138.753,248.817 136.080,249.105 135.290 C 249.230 134.945,249.407 134.532,249.498 134.373 C 249.589 134.214,250.003 133.221,250.418 132.167 C 250.833 131.112,251.284 130.051,251.419 129.808 C 251.735 129.243,251.730 127.848,251.411 127.426 C 251.277 127.249,251.167 126.991,251.167 126.854 C 251.167 126.717,251.028 126.300,250.859 125.928 C 250.690 125.555,250.236 124.425,249.850 123.417 C 249.464 122.408,249.003 121.263,248.824 120.871 C 248.646 120.479,248.500 120.065,248.500 119.951 C 248.500 119.838,248.350 119.465,248.167 119.123 C 247.983 118.781,247.831 118.407,247.828 118.292 C 247.825 118.177,247.677 117.783,247.500 117.417 C 247.323 117.050,247.175 116.656,247.172 116.541 C 247.169 116.426,247.017 116.052,246.833 115.710 C 246.650 115.368,246.500 114.995,246.500 114.882 C 246.500 114.768,246.354 114.355,246.176 113.963 C 245.997 113.571,245.539 112.425,245.156 111.417 C 244.774 110.408,244.320 109.275,244.147 108.898 C 243.975 108.522,243.833 108.121,243.833 108.007 C 243.833 107.894,243.729 107.602,243.602 107.359 C 243.312 106.805,241.333 101.772,241.333 101.588 C 241.333 101.514,241.192 101.145,241.019 100.768 C 240.846 100.392,240.392 99.258,240.008 98.250 C 239.322 96.443,239.038 95.725,238.363 94.083 C 238.174 93.625,237.826 92.725,237.588 92.083 C 237.350 91.442,237.083 90.786,236.994 90.627 C 236.437 89.625,236.215 89.658,243.113 89.706 L 249.393 89.750 250.039 91.583 M96.270 99.679 C 88.833 101.705,85.834 110.802,90.638 116.765 C 97.573 125.374,111.026 119.071,109.168 108.083 C 108.176 102.214,101.923 98.139,96.270 99.679 M145.310 99.658 C 138.858 101.150,135.468 108.286,138.219 114.583 C 141.623 122.375,152.493 122.588,156.224 114.938 C 160.050 107.091,153.404 97.786,145.310 99.658 M102.877 100.743 C 110.874 104.565,110.866 115.536,102.862 119.457 L 101.583 120.083 98.833 120.074 C 94.433 120.058,91.700 118.384,89.833 114.562 C 88.836 112.522,88.543 108.170,89.305 106.726 C 89.395 106.556,89.719 105.903,90.026 105.275 C 90.981 103.318,92.979 101.443,95.000 100.606 C 97.085 99.743,100.923 99.809,102.877 100.743 M150.459 100.502 C 150.894 100.691,151.400 100.931,151.583 101.035 C 151.767 101.140,152.073 101.308,152.265 101.408 C 156.219 103.482,158.153 110.705,155.813 114.667 C 155.732 114.804,155.589 115.096,155.495 115.316 C 154.868 116.775,152.387 118.924,150.583 119.569 C 148.180 120.429,144.285 120.167,142.987 119.058 C 142.842 118.934,142.662 118.833,142.587 118.833 C 141.919 118.833,139.651 116.341,138.834 114.708 C 136.344 109.734,138.400 103.324,143.258 100.916 C 145.284 99.912,148.652 99.718,150.459 100.502 " stroke="none" fill="#959595" fill-rule="evenodd"></path></g></svg>